SplineFontDB: 3.0
FontName: MontserratSubrayada-Bold
FullName: MontserratSubrayada-Bold
FamilyName: Montserrat Subrayada
Weight: Bold
Copyright: Copyright (c) 2011-2012, Julieta Ulanovsky (julieta.ulanovsky@gmail.com), with Reserved Font Names 'Montserrat'
Version: 2.001
ItalicAngle: 0
UnderlinePosition: -50
UnderlineWidth: 50
Ascent: 800
Descent: 200
sfntRevision: 0x00020042
LayerCount: 2
Layer: 0 1 "Back"  1
Layer: 1 1 "Fore"  0
XUID: [1021 949 684587506 5099143]
FSType: 0
OS2Version: 3
OS2_WeightWidthSlopeOnly: 0
OS2_UseTypoMetrics: 1
CreationTime: 1321826100
ModificationTime: 1349104570
PfmFamily: 17
TTFWeight: 700
TTFWidth: 5
LineGap: 0
VLineGap: 0
Panose: 2 0 5 5 0 0 0 2 0 4
OS2TypoAscent: 968
OS2TypoAOffset: 0
OS2TypoDescent: -251
OS2TypoDOffset: 0
OS2TypoLinegap: 0
OS2WinAscent: 968
OS2WinAOffset: 0
OS2WinDescent: 251
OS2WinDOffset: 0
HheadAscent: 968
HheadAOffset: 0
HheadDescent: -251
HheadDOffset: 0
OS2SubXSize: 650
OS2SubYSize: 600
OS2SubXOff: 0
OS2SubYOff: 75
OS2SupXSize: 650
OS2SupYSize: 600
OS2SupXOff: 0
OS2SupYOff: 350
OS2StrikeYSize: 50
OS2StrikeYPos: 306
OS2Vendor: 'pyrs'
OS2CodePages: 00000001.00000000
OS2UnicodeRanges: 8000002f.4000204a.00000000.00000000
Lookup: 258 0 0 "'kern' Horizontal Kerning in Latin lookup 0"  {"'kern' Horizontal Kerning in Latin lookup 0 subtable"  } ['kern' ('latn' <'dflt' > ) ]
DEI: 91125
ShortTable: maxp 16
  1
  0
  230
  57
  5
  0
  0
  2
  0
  1
  1
  0
  64
  0
  0
  0
EndShort
LangName: 1033 "" "" "" "JulietaUlanovsky: Montserrat: 2010" "" "Version 2.001" "" "Montserrat is a trademark of Julieta Ulanovsky." "Julieta Ulanovsky" "Julieta Ulanovsky" "" "" "" "This Font Software is licensed under the SIL Open Font License, Version 1.1. This license is available with a FAQ at: http://scripts.sil.org/OFL" "http://scripts.sil.org/OFL" 
GaspTable: 1 65535 2 0
Encoding: UnicodeBmp
UnicodeInterp: none
NameList: AGL For New Fonts
DisplaySize: -24
AntiAlias: 1
FitToEm: 1
BeginChars: 65539 230

StartChar: space
Encoding: 32 32 3
Width: 264
GlyphClass: 2
Flags: W
LayerCount: 2
Fore
SplineSet
264 43 m 1,0,-1
 264 0 l 1,1,-1
 0 0 l 1,2,-1
 0 43 l 1,3,-1
 264 43 l 1,0,-1
EndSplineSet
EndChar

StartChar: exclam
Encoding: 33 33 4
Width: 315
GlyphClass: 2
Flags: W
LayerCount: 2
Fore
SplineSet
69 699 m 1,0,-1
 246 699 l 1,1,-1
 246 575 l 1,2,-1
 216 245 l 1,3,-1
 98 245 l 1,4,-1
 69 575 l 1,5,-1
 69 699 l 1,0,-1
315 43 m 1,6,-1
 315 0 l 1,7,-1
 0 0 l 1,8,-1
 0 43 l 1,9,-1
 99 43 l 1,10,11
 69 68 69 68 69 107.5 c 128,-1,12
 69 147 69 147 94.5 172.5 c 128,-1,13
 120 198 120 198 157 198 c 128,-1,14
 194 198 194 198 219.5 172.5 c 128,-1,15
 245 147 245 147 245 108 c 128,-1,16
 245 69 245 69 214 43 c 1,17,-1
 315 43 l 1,6,-1
EndSplineSet
EndChar

StartChar: quotedbl
Encoding: 34 34 5
Width: 433
GlyphClass: 2
Flags: W
LayerCount: 2
Fore
SplineSet
69 431 m 1,0,-1
 69 699 l 1,1,-1
 188 699 l 1,2,-1
 188 471 l 1,3,-1
 245 471 l 1,4,-1
 245 699 l 1,5,-1
 364 699 l 1,6,-1
 364 431 l 1,7,-1
 249 431 l 1,8,-1
 249 43 l 1,9,-1
 434 43 l 1,10,-1
 434 0 l 1,11,-1
 0 0 l 1,12,-1
 0 43 l 1,13,-1
 185 43 l 1,14,-1
 185 431 l 1,15,-1
 69 431 l 1,0,-1
EndSplineSet
EndChar

StartChar: numbersign
Encoding: 35 35 6
Width: 747
GlyphClass: 2
Flags: W
LayerCount: 2
Fore
SplineSet
748 43 m 1,0,-1
 748 0 l 1,1,-1
 -80 0 l 1,2,-1
 -80 43 l 1,3,-1
 121 43 l 1,4,-1
 140 152 l 1,5,-1
 44 152 l 1,6,-1
 71 290 l 1,7,-1
 164 290 l 1,8,-1
 185 415 l 1,9,-1
 78 415 l 1,10,-1
 105 553 l 1,11,-1
 208 553 l 1,12,-1
 235 715 l 1,13,-1
 386 715 l 1,14,-1
 359 553 l 1,15,-1
 449 553 l 1,16,-1
 476 715 l 1,17,-1
 628 715 l 1,18,-1
 599 553 l 1,19,-1
 704 553 l 1,20,-1
 677 415 l 1,21,-1
 576 415 l 1,22,-1
 555 290 l 1,23,-1
 670 290 l 1,24,-1
 643 152 l 1,25,-1
 532 152 l 1,26,-1
 513 43 l 1,27,-1
 748 43 l 1,0,-1
427 415 m 1,28,-1
 336 415 l 1,29,-1
 314 290 l 1,30,-1
 405 290 l 1,31,-1
 427 415 l 1,28,-1
291 152 m 1,32,-1
 272 43 l 1,33,-1
 363 43 l 1,34,-1
 382 152 l 1,35,-1
 291 152 l 1,32,-1
EndSplineSet
EndChar

StartChar: dollar
Encoding: 36 36 7
Width: 635
GlyphClass: 2
Flags: W
LayerCount: 2
Fore
SplineSet
635 43 m 1,0,-1
 635 0 l 1,1,-1
 376 0 l 1,2,-1
 376 -69 l 1,3,-1
 270 -69 l 1,4,-1
 270 0 l 1,5,-1
 0 0 l 1,6,-1
 0 43 l 1,7,-1
 148 43 l 1,8,9
 86 73 86 73 36 119 c 1,10,-1
 129 232 l 1,11,12
 207 164 207 164 270 145 c 1,13,-1
 270 294 l 1,14,15
 165 321 165 321 116 366.5 c 128,-1,16
 67 412 67 412 67 497.5 c 128,-1,17
 67 583 67 583 123 638.5 c 128,-1,18
 179 694 179 694 270 705 c 1,19,-1
 270 769 l 1,20,-1
 376 769 l 1,21,-1
 376 703 l 1,22,23
 476 689 476 689 575 620 c 1,24,-1
 493 502 l 1,25,26
 430 547 430 547 376 562 c 1,27,-1
 376 418 l 1,28,29
 484 390 484 390 535.5 343 c 128,-1,30
 587 296 587 296 587 213 c 0,31,32
 587 100 587 100 498 43 c 1,33,-1
 635 43 l 1,0,-1
427 202 m 0,34,35
 427 223 427 223 416 237 c 128,-1,36
 405 251 405 251 376 263 c 1,37,-1
 376 140 l 1,38,39
 427 156 427 156 427 202 c 0,34,35
270 566 m 1,40,41
 227 551 227 551 227 511 c 128,-1,42
 227 471 227 471 270 450 c 1,43,-1
 270 566 l 1,40,41
EndSplineSet
EndChar

StartChar: percent
Encoding: 37 37 8
Width: 819
GlyphClass: 2
Flags: W
LayerCount: 2
Fore
SplineSet
491 43 m 1,0,1
 458 81 458 81 458 136 c 128,-1,2
 458 191 458 191 500 232 c 128,-1,3
 542 273 542 273 605.5 273 c 128,-1,4
 669 273 669 273 711 232 c 128,-1,5
 753 191 753 191 753 136 c 128,-1,6
 753 81 753 81 721 43 c 1,7,-1
 839 43 l 1,8,-1
 839 0 l 1,9,-1
 0 0 l 1,10,-1
 0 43 l 1,11,-1
 101 43 l 1,12,-1
 572 699 l 1,13,-1
 743 699 l 1,14,-1
 273 43 l 1,15,-1
 491 43 l 1,0,1
317 441.5 m 128,-1,17
 275 401 275 401 211.5 401 c 128,-1,18
 148 401 148 401 106 442 c 128,-1,19
 64 483 64 483 64 541.5 c 128,-1,20
 64 600 64 600 106 641 c 128,-1,21
 148 682 148 682 211.5 682 c 128,-1,22
 275 682 275 682 317 641 c 128,-1,23
 359 600 359 600 359 541 c 128,-1,16
 359 482 359 482 317 441.5 c 128,-1,17
211 492 m 128,-1,25
 229 492 229 492 241 505.5 c 128,-1,26
 253 519 253 519 253 541 c 128,-1,27
 253 563 253 563 241 577.5 c 128,-1,28
 229 592 229 592 211.5 592 c 128,-1,29
 194 592 194 592 182 577.5 c 128,-1,30
 170 563 170 563 170 541 c 128,-1,31
 170 519 170 519 181.5 505.5 c 128,-1,24
 193 492 193 492 211 492 c 128,-1,25
605 83 m 128,-1,33
 623 83 623 83 635 96.5 c 128,-1,34
 647 110 647 110 647 132 c 128,-1,35
 647 154 647 154 635 168.5 c 128,-1,36
 623 183 623 183 605.5 183 c 128,-1,37
 588 183 588 183 576 168.5 c 128,-1,38
 564 154 564 154 564 132 c 128,-1,39
 564 110 564 110 575.5 96.5 c 128,-1,32
 587 83 587 83 605 83 c 128,-1,33
EndSplineSet
EndChar

StartChar: ampersand
Encoding: 38 38 9
Width: 700
GlyphClass: 2
Flags: W
LayerCount: 2
Fore
SplineSet
700 43 m 1,0,-1
 700 0 l 1,1,-1
 0 0 l 1,2,-1
 0 43 l 1,3,-1
 126 43 l 1,4,5
 47 98 47 98 47 196 c 0,6,7
 47 314 47 314 194 398 c 1,8,9
 130 466 130 466 130 540 c 128,-1,10
 130 614 130 614 188 664.5 c 128,-1,11
 246 715 246 715 347 715 c 0,12,13
 422 715 422 715 481.5 671.5 c 128,-1,14
 541 628 541 628 541 550 c 0,15,16
 541 452 541 452 398 368 c 1,17,18
 443 311 443 311 478 273 c 1,19,20
 503 313 503 313 514 364 c 1,21,-1
 627 290 l 1,22,23
 604 227 604 227 571 173 c 1,24,-1
 657 88 l 1,25,-1
 609 43 l 1,26,-1
 700 43 l 1,0,-1
218 147.5 m 128,-1,28
 244 127 244 127 285.5 127 c 128,-1,29
 327 127 327 127 382 180 c 1,30,31
 318 248 318 248 273 301 c 1,32,33
 238 284 238 284 215 257.5 c 128,-1,34
 192 231 192 231 192 199.5 c 128,-1,27
 192 168 192 168 218 147.5 c 128,-1,28
298.5 581.5 m 128,-1,36
 281 566 281 566 281 539.5 c 128,-1,37
 281 513 281 513 321 463 c 1,38,39
 396 503 396 503 396 538 c 0,40,41
 396 567 396 567 378 582 c 128,-1,42
 360 597 360 597 338 597 c 128,-1,35
 316 597 316 597 298.5 581.5 c 128,-1,36
471 83 m 1,43,44
 437 55 437 55 408 43 c 1,45,-1
 510 43 l 1,46,-1
 471 83 l 1,43,44
EndSplineSet
EndChar

StartChar: quotesingle
Encoding: 39 39 10
Width: 261
GlyphClass: 2
Flags: W
LayerCount: 2
Fore
SplineSet
71 431 m 1,0,-1
 71 699 l 1,1,-1
 190 699 l 1,2,-1
 190 431 l 1,3,-1
 154 431 l 1,4,-1
 154 43 l 1,5,-1
 261 43 l 1,6,-1
 261 0 l 1,7,-1
 0 0 l 1,8,-1
 0 43 l 1,9,-1
 107 43 l 1,10,-1
 107 431 l 1,11,-1
 71 431 l 1,0,-1
EndSplineSet
EndChar

StartChar: parenleft
Encoding: 40 40 11
Width: 362
GlyphClass: 2
Flags: W
LayerCount: 2
Fore
SplineSet
422 43 m 1,0,-1
 422 0 l 1,1,-1
 0 0 l 1,2,-1
 0 43 l 1,3,-1
 146 43 l 1,4,5
 55 195 55 195 55 378 c 0,6,7
 55 594 55 594 175 757 c 1,8,-1
 337 757 l 1,9,10
 272 668 272 668 238 579.5 c 128,-1,11
 204 491 204 491 204 378 c 0,12,13
 204 200 204 200 307 43 c 1,14,-1
 422 43 l 1,0,-1
EndSplineSet
EndChar

StartChar: parenright
Encoding: 41 41 12
Width: 362
GlyphClass: 2
Flags: W
LayerCount: 2
Fore
SplineSet
-60 0 m 1,0,-1
 -60 43 l 1,1,-1
 55 43 l 1,2,3
 158 203 158 203 158 378 c 0,4,5
 158 491 158 491 124 579.5 c 128,-1,6
 90 668 90 668 25 757 c 1,7,-1
 187 757 l 1,8,9
 307 594 307 594 307 378 c 0,10,11
 307 196 307 196 215 43 c 1,12,-1
 362 43 l 1,13,-1
 362 0 l 1,14,-1
 -60 0 l 1,0,-1
EndSplineSet
EndChar

StartChar: asterisk
Encoding: 42 42 13
Width: 456
GlyphClass: 2
Flags: W
LayerCount: 2
Fore
SplineSet
456 43 m 1,0,-1
 456 0 l 1,1,-1
 0 0 l 1,2,-1
 0 43 l 1,3,-1
 204 43 l 1,4,-1
 204 363 l 1,5,-1
 172 363 l 1,6,-1
 178 447 l 1,7,-1
 107 398 l 1,8,-1
 56 489 l 1,9,-1
 140 531 l 1,10,-1
 55 573 l 1,11,-1
 107 662 l 1,12,-1
 178 615 l 1,13,-1
 172 699 l 1,14,-1
 284 699 l 1,15,-1
 278 615 l 1,16,-1
 349 662 l 1,17,-1
 401 573 l 1,18,-1
 316 531 l 1,19,-1
 400 489 l 1,20,-1
 349 398 l 1,21,-1
 278 447 l 1,22,-1
 284 363 l 1,23,-1
 251 363 l 1,24,-1
 251 43 l 1,25,-1
 456 43 l 1,0,-1
EndSplineSet
EndChar

StartChar: plus
Encoding: 43 43 14
Width: 584
GlyphClass: 2
Flags: W
LayerCount: 2
Fore
SplineSet
223 109 m 1,0,-1
 223 289 l 1,1,-1
 48 289 l 1,2,-1
 48 412 l 1,3,-1
 223 412 l 1,4,-1
 223 592 l 1,5,-1
 361 592 l 1,6,-1
 361 412 l 1,7,-1
 536 412 l 1,8,-1
 536 289 l 1,9,-1
 361 289 l 1,10,-1
 361 109 l 1,11,-1
 315 109 l 1,12,-1
 315 43 l 1,13,-1
 584 43 l 1,14,-1
 584 0 l 1,15,-1
 0 0 l 1,16,-1
 0 43 l 1,17,-1
 268 43 l 1,18,-1
 268 109 l 1,19,-1
 223 109 l 1,0,-1
EndSplineSet
EndChar

StartChar: comma
Encoding: 44 44 15
Width: 297
GlyphClass: 2
Flags: W
LayerCount: 2
Fore
SplineSet
0 0 m 1,0,-1
 0 43 l 1,1,-1
 80 43 l 1,2,3
 58 67 58 67 58 102 c 128,-1,4
 58 137 58 137 85 162.5 c 128,-1,5
 112 188 112 188 150 188 c 128,-1,6
 188 188 188 188 215.5 163 c 128,-1,7
 243 138 243 138 243 105 c 128,-1,8
 243 72 243 72 225 43 c 1,9,-1
 297 43 l 1,10,-1
 297 0 l 1,11,-1
 200 0 l 1,12,-1
 154 -79 l 1,13,-1
 55 -79 l 1,14,-1
 82 0 l 1,15,-1
 0 0 l 1,0,-1
EndSplineSet
EndChar

StartChar: hyphen
Encoding: 45 45 16
Width: 490
GlyphClass: 2
Flags: W
LayerCount: 2
Fore
SplineSet
67 234 m 1,0,-1
 67 367 l 1,1,-1
 423 367 l 1,2,-1
 423 234 l 1,3,-1
 269 234 l 1,4,-1
 269 43 l 1,5,-1
 490 43 l 1,6,-1
 490 0 l 1,7,-1
 0 0 l 1,8,-1
 0 43 l 1,9,-1
 222 43 l 1,10,-1
 222 234 l 1,11,-1
 67 234 l 1,0,-1
EndSplineSet
EndChar

StartChar: period
Encoding: 46 46 17
Width: 288
GlyphClass: 2
Flags: W
LayerCount: 2
Fore
SplineSet
0 0 m 1,0,-1
 0 43 l 1,1,-1
 76 43 l 1,2,3
 56 66 56 66 56 101.5 c 128,-1,4
 56 137 56 137 81.5 162.5 c 128,-1,5
 107 188 107 188 144 188 c 128,-1,6
 181 188 181 188 206.5 162.5 c 128,-1,7
 232 137 232 137 232 102 c 128,-1,8
 232 67 232 67 211 43 c 1,9,-1
 288 43 l 1,10,-1
 288 0 l 1,11,-1
 0 0 l 1,0,-1
EndSplineSet
EndChar

StartChar: slash
Encoding: 47 47 18
Width: 614
GlyphClass: 2
Flags: W
LayerCount: 2
Fore
SplineSet
614 43 m 1,0,-1
 614 0 l 1,1,-1
 -40 0 l 1,2,-1
 -40 43 l 1,3,-1
 98 43 l 1,4,-1
 446 805 l 1,5,-1
 588 805 l 1,6,-1
 239 43 l 1,7,-1
 614 43 l 1,0,-1
EndSplineSet
EndChar

StartChar: zero
Encoding: 48 48 19
Width: 690
GlyphClass: 2
Flags: W
LayerCount: 2
Fore
SplineSet
690 43 m 1,0,-1
 690 0 l 1,1,-1
 0 0 l 1,2,-1
 0 43 l 1,3,-1
 176 43 l 1,4,5
 56 131 56 131 56 353 c 0,6,7
 56 518 56 518 128 616.5 c 128,-1,8
 200 715 200 715 345 715 c 128,-1,9
 490 715 490 715 562 616.5 c 128,-1,10
 634 518 634 518 634 353 c 0,11,12
 634 131 634 131 514 43 c 1,13,-1
 690 43 l 1,0,-1
209 353 m 128,-1,15
 209 248 209 248 242 184 c 128,-1,16
 275 120 275 120 345 120 c 128,-1,17
 415 120 415 120 448 184 c 128,-1,18
 481 248 481 248 481 353 c 128,-1,19
 481 458 481 458 448 522 c 128,-1,20
 415 586 415 586 345 586 c 128,-1,21
 275 586 275 586 242 522 c 128,-1,14
 209 458 209 458 209 353 c 128,-1,15
EndSplineSet
EndChar

StartChar: one
Encoding: 49 49 20
Width: 403
GlyphClass: 2
Flags: W
LayerCount: 2
Fore
SplineSet
403 43 m 1,0,-1
 403 0 l 1,1,-1
 0 0 l 1,2,-1
 0 43 l 1,3,-1
 164 43 l 1,4,-1
 164 566 l 1,5,-1
 31 566 l 1,6,-1
 31 699 l 1,7,-1
 314 699 l 1,8,-1
 314 43 l 1,9,-1
 403 43 l 1,0,-1
EndSplineSet
EndChar

StartChar: two
Encoding: 50 50 21
Width: 605
GlyphClass: 2
Flags: W
LayerCount: 2
Fore
SplineSet
615 43 m 1,0,-1
 615 0 l 1,1,-1
 -10 0 l 1,2,-1
 -10 43 l 1,3,-1
 58 43 l 1,4,-1
 58 116 l 1,5,-1
 263 326 l 2,6,7
 325 389 325 389 351.5 426.5 c 128,-1,8
 378 464 378 464 378 499 c 128,-1,9
 378 534 378 534 355 557.5 c 128,-1,10
 332 581 332 581 296 581 c 0,11,12
 230 581 230 581 171 487 c 1,13,-1
 46 561 l 1,14,15
 95 637 95 637 153.5 676 c 128,-1,16
 212 715 212 715 302.5 715 c 128,-1,17
 393 715 393 715 461.5 657.5 c 128,-1,18
 530 600 530 600 530 501 c 0,19,20
 530 447 530 447 502.5 397.5 c 128,-1,21
 475 348 475 348 401 271 c 2,22,-1
 275 140 l 1,23,-1
 551 140 l 1,24,-1
 551 43 l 1,25,-1
 615 43 l 1,0,-1
EndSplineSet
EndChar

StartChar: three
Encoding: 51 51 22
Width: 591
GlyphClass: 2
Flags: W
LayerCount: 2
Fore
SplineSet
591 43 m 1,0,-1
 591 0 l 1,1,-1
 -10 0 l 1,2,-1
 -10 43 l 1,3,-1
 119 43 l 1,4,5
 74 62 74 62 36 89 c 1,6,-1
 100 213 l 1,7,8
 199 143 199 143 277 143 c 0,9,10
 324 143 324 143 354.5 166 c 128,-1,11
 385 189 385 189 385 232.5 c 128,-1,12
 385 276 385 276 350 301.5 c 128,-1,13
 315 327 315 327 253 327 c 0,14,15
 220 327 220 327 160 308 c 1,16,-1
 160 423 l 1,17,-1
 294 566 l 1,18,-1
 75 566 l 1,19,-1
 75 699 l 1,20,-1
 503 699 l 1,21,-1
 503 591 l 1,22,-1
 360 443 l 1,23,24
 444 429 444 429 490 372.5 c 128,-1,25
 536 316 536 316 536 242 c 0,26,27
 536 107 536 107 424 43 c 1,28,-1
 591 43 l 1,0,-1
EndSplineSet
EndChar

StartChar: four
Encoding: 52 52 23
Width: 588
GlyphClass: 2
Flags: W
LayerCount: 2
Fore
SplineSet
588 43 m 1,0,-1
 588 0 l 1,1,-1
 0 0 l 1,2,-1
 0 43 l 1,3,-1
 317 43 l 1,4,-1
 317 167 l 1,5,-1
 36 167 l 1,6,-1
 36 286 l 1,7,-1
 285 699 l 1,8,-1
 455 699 l 1,9,-1
 218 302 l 1,10,-1
 317 302 l 1,11,-1
 317 424 l 1,12,-1
 467 424 l 1,13,-1
 467 302 l 1,14,-1
 546 302 l 1,15,-1
 546 167 l 1,16,-1
 467 167 l 1,17,-1
 467 43 l 1,18,-1
 588 43 l 1,0,-1
EndSplineSet
EndChar

StartChar: five
Encoding: 53 53 24
Width: 596
GlyphClass: 2
Flags: W
LayerCount: 2
Fore
SplineSet
596 43 m 1,0,-1
 596 0 l 1,1,-1
 0 0 l 1,2,-1
 0 43 l 1,3,-1
 111 43 l 1,4,5
 74 68 74 68 49 97 c 1,6,-1
 131 211 l 1,7,8
 140 202 140 202 155 189 c 128,-1,9
 170 176 170 176 210 154.5 c 128,-1,10
 250 133 250 133 290 133 c 128,-1,11
 330 133 330 133 361 157 c 128,-1,12
 392 181 392 181 392 228 c 128,-1,13
 392 275 392 275 358.5 300.5 c 128,-1,14
 325 326 325 326 272 326 c 128,-1,15
 219 326 219 326 149 288 c 1,16,-1
 84 358 l 1,17,-1
 84 699 l 1,18,-1
 506 699 l 1,19,-1
 506 564 l 1,20,-1
 230 564 l 1,21,-1
 230 447 l 1,22,23
 261 456 261 456 301 456 c 0,24,25
 402 456 402 456 475 395 c 128,-1,26
 548 334 548 334 548 230 c 0,27,28
 548 172 548 172 522.5 123.5 c 128,-1,29
 497 75 497 75 452 43 c 1,30,-1
 596 43 l 1,0,-1
EndSplineSet
EndChar

StartChar: six
Encoding: 54 54 25
Width: 630
GlyphClass: 2
Flags: W
LayerCount: 2
Fore
SplineSet
630 43 m 1,0,-1
 630 0 l 1,1,-1
 0 0 l 1,2,-1
 0 43 l 1,3,-1
 166 43 l 1,4,5
 56 131 56 131 56 348 c 0,6,7
 56 444 56 444 79.5 516.5 c 128,-1,8
 103 589 103 589 144 631 c 0,9,10
 224 715 224 715 342 715 c 0,11,12
 391 715 391 715 435.5 700.5 c 128,-1,13
 480 686 480 686 504 671 c 128,-1,14
 528 656 528 656 557 633 c 1,15,-1
 483 523 l 1,16,17
 477 529 477 529 465.5 539 c 128,-1,18
 454 549 454 549 420 565 c 128,-1,19
 386 581 386 581 354 581 c 0,20,21
 289 581 289 581 253.5 537.5 c 128,-1,22
 218 494 218 494 210 419 c 1,23,24
 275 461 275 461 348 461 c 0,25,26
 446 461 446 461 511.5 397 c 128,-1,27
 577 333 577 333 577 220.5 c 128,-1,28
 577 108 577 108 491 43 c 1,29,-1
 630 43 l 1,0,-1
255.5 301.5 m 128,-1,31
 224 274 224 274 224 230 c 128,-1,32
 224 186 224 186 254 154.5 c 128,-1,33
 284 123 284 123 329 123 c 128,-1,34
 374 123 374 123 404 151 c 128,-1,35
 434 179 434 179 434 223.5 c 128,-1,36
 434 268 434 268 407 298.5 c 128,-1,37
 380 329 380 329 333.5 329 c 128,-1,30
 287 329 287 329 255.5 301.5 c 128,-1,31
EndSplineSet
EndChar

StartChar: seven
Encoding: 55 55 26
Width: 579
GlyphClass: 2
Flags: W
LayerCount: 2
Fore
SplineSet
579 43 m 1,0,-1
 579 0 l 1,1,-1
 0 0 l 1,2,-1
 0 43 l 1,3,-1
 119 43 l 1,4,-1
 369 565 l 1,5,-1
 193 565 l 1,6,-1
 193 475 l 1,7,-1
 47 475 l 1,8,-1
 47 699 l 1,9,-1
 552 699 l 1,10,-1
 552 581 l 1,11,-1
 290 43 l 1,12,-1
 579 43 l 1,0,-1
EndSplineSet
EndChar

StartChar: eight
Encoding: 56 56 27
Width: 642
GlyphClass: 2
Flags: W
LayerCount: 2
Fore
SplineSet
642 43 m 1,0,-1
 642 0 l 1,1,-1
 0 0 l 1,2,-1
 0 43 l 1,3,-1
 143 43 l 1,4,5
 54 105 54 105 54 212 c 128,-1,6
 54 319 54 319 141 386 c 1,7,8
 78 445 78 445 78 525 c 128,-1,9
 78 605 78 605 147.5 660 c 128,-1,10
 217 715 217 715 321 715 c 128,-1,11
 425 715 425 715 494 660 c 128,-1,12
 563 605 563 605 563 524.5 c 128,-1,13
 563 444 563 444 501 386 c 1,14,15
 588 319 588 319 588 212 c 128,-1,16
 588 105 588 105 499 43 c 1,17,-1
 642 43 l 1,0,-1
321 122 m 128,-1,19
 362 122 362 122 397 145.5 c 128,-1,20
 432 169 432 169 432 214 c 128,-1,21
 432 259 432 259 398 283 c 128,-1,22
 364 307 364 307 321 307 c 128,-1,23
 278 307 278 307 244 283 c 128,-1,24
 210 259 210 259 210 214 c 128,-1,25
 210 169 210 169 245 145.5 c 128,-1,18
 280 122 280 122 321 122 c 128,-1,19
321 427 m 128,-1,27
 359 427 359 427 387.5 451 c 128,-1,28
 416 475 416 475 416 510.5 c 128,-1,29
 416 546 416 546 388 570 c 128,-1,30
 360 594 360 594 321 594 c 128,-1,31
 282 594 282 594 254 570 c 128,-1,32
 226 546 226 546 226 510.5 c 128,-1,33
 226 475 226 475 254.5 451 c 128,-1,26
 283 427 283 427 321 427 c 128,-1,27
EndSplineSet
EndChar

StartChar: nine
Encoding: 57 57 28
Width: 629
GlyphClass: 2
Flags: W
LayerCount: 2
Fore
SplineSet
629 43 m 1,0,-1
 629 0 l 1,1,-1
 0 0 l 1,2,-1
 0 43 l 1,3,-1
 113 43 l 1,4,5
 88 60 88 60 72 73 c 1,6,-1
 150 183 l 1,7,8
 157 177 157 177 168.5 167.5 c 128,-1,9
 180 158 180 158 213 142 c 128,-1,10
 246 126 246 126 275 126 c 0,11,12
 340 126 340 126 375.5 169.5 c 128,-1,13
 411 213 411 213 419 288 c 1,14,15
 355 245 355 245 281 245 c 0,16,17
 183 245 183 245 117.5 309.5 c 128,-1,18
 52 374 52 374 52 480 c 128,-1,19
 52 586 52 586 122.5 650.5 c 128,-1,20
 193 715 193 715 300 715 c 0,21,22
 374 715 374 715 428.5 686.5 c 128,-1,23
 483 658 483 658 514 607 c 0,24,25
 573 508 573 508 573 359 c 0,26,27
 573 135 573 135 449 43 c 1,28,-1
 629 43 l 1,0,-1
374 405 m 128,-1,30
 405 432 405 432 405 476 c 128,-1,31
 405 520 405 520 375 552 c 128,-1,32
 345 584 345 584 300 584 c 128,-1,33
 255 584 255 584 226.5 555.5 c 128,-1,34
 198 527 198 527 198 483 c 128,-1,35
 198 439 198 439 224 408.5 c 128,-1,36
 250 378 250 378 296.5 378 c 128,-1,29
 343 378 343 378 374 405 c 128,-1,30
EndSplineSet
EndChar

StartChar: colon
Encoding: 58 58 29
Width: 310
GlyphClass: 2
Flags: W
LayerCount: 2
Fore
SplineSet
0 0 m 1,0,-1
 0 43 l 1,1,-1
 87 43 l 1,2,3
 67 66 67 66 67 101.5 c 128,-1,4
 67 137 67 137 92.5 162.5 c 128,-1,5
 118 188 118 188 155 188 c 128,-1,6
 192 188 192 188 217.5 162.5 c 128,-1,7
 243 137 243 137 243 102 c 128,-1,8
 243 67 243 67 222 43 c 1,9,-1
 310 43 l 1,10,-1
 310 0 l 1,11,-1
 0 0 l 1,0,-1
67 363 m 128,-1,13
 67 400 67 400 92.5 425.5 c 128,-1,14
 118 451 118 451 155 451 c 128,-1,15
 192 451 192 451 217.5 425.5 c 128,-1,16
 243 400 243 400 243 363 c 128,-1,17
 243 326 243 326 217.5 300.5 c 128,-1,18
 192 275 192 275 155 275 c 128,-1,19
 118 275 118 275 92.5 300.5 c 128,-1,12
 67 326 67 326 67 363 c 128,-1,13
EndSplineSet
EndChar

StartChar: semicolon
Encoding: 59 59 30
Width: 315
GlyphClass: 2
Flags: W
LayerCount: 2
Fore
SplineSet
0 0 m 1,0,-1
 0 43 l 1,1,-1
 88 43 l 1,2,3
 67 67 67 67 67 101.5 c 128,-1,4
 67 136 67 136 94 161.5 c 128,-1,5
 121 187 121 187 159.5 187 c 128,-1,6
 198 187 198 187 225.5 162 c 128,-1,7
 253 137 253 137 253 99 c 0,8,9
 253 77 253 77 236 43 c 1,10,-1
 315 43 l 1,11,-1
 315 0 l 1,12,-1
 211 0 l 1,13,-1
 162 -81 l 1,14,-1
 64 -81 l 1,15,-1
 92 0 l 1,16,-1
 0 0 l 1,0,-1
67 363 m 128,-1,18
 67 400 67 400 92.5 425.5 c 128,-1,19
 118 451 118 451 155 451 c 128,-1,20
 192 451 192 451 217.5 425.5 c 128,-1,21
 243 400 243 400 243 363 c 128,-1,22
 243 326 243 326 217.5 300.5 c 128,-1,23
 192 275 192 275 155 275 c 128,-1,24
 118 275 118 275 92.5 300.5 c 128,-1,17
 67 326 67 326 67 363 c 128,-1,18
EndSplineSet
EndChar

StartChar: less
Encoding: 60 60 31
Width: 601
GlyphClass: 2
Flags: W
LayerCount: 2
Fore
SplineSet
352 43 m 1,0,-1
 601 43 l 1,1,-1
 601 0 l 1,2,-1
 0 0 l 1,3,-1
 0 43 l 1,4,-1
 305 43 l 1,5,-1
 305 201 l 1,6,-1
 41 326 l 1,7,-1
 41 463 l 1,8,-1
 527 692 l 1,9,-1
 527 545 l 1,10,-1
 206 397 l 1,11,-1
 527 245 l 1,12,-1
 527 97 l 1,13,-1
 352 179 l 1,14,-1
 352 43 l 1,0,-1
EndSplineSet
EndChar

StartChar: equal
Encoding: 61 61 32
Width: 587
GlyphClass: 2
Flags: W
LayerCount: 2
Fore
SplineSet
50 289 m 1,0,-1
 273 289 l 1,1,-1
 273 415 l 1,2,-1
 50 415 l 1,3,-1
 50 538 l 1,4,-1
 537 538 l 1,5,-1
 537 415 l 1,6,-1
 320 415 l 1,7,-1
 320 289 l 1,8,-1
 537 289 l 1,9,-1
 537 166 l 1,10,-1
 320 166 l 1,11,-1
 320 43 l 1,12,-1
 587 43 l 1,13,-1
 587 0 l 1,14,-1
 0 0 l 1,15,-1
 0 43 l 1,16,-1
 273 43 l 1,17,-1
 273 166 l 1,18,-1
 50 166 l 1,19,-1
 50 289 l 1,0,-1
EndSplineSet
EndChar

StartChar: greater
Encoding: 62 62 33
Width: 601
GlyphClass: 2
Flags: W
LayerCount: 2
Fore
SplineSet
601 43 m 1,0,-1
 601 0 l 1,1,-1
 0 0 l 1,2,-1
 0 43 l 1,3,-1
 249 43 l 1,4,-1
 249 179 l 1,5,-1
 74 97 l 1,6,-1
 74 245 l 1,7,-1
 395 397 l 1,8,-1
 74 545 l 1,9,-1
 74 692 l 1,10,-1
 560 463 l 1,11,-1
 560 326 l 1,12,-1
 296 201 l 1,13,-1
 296 43 l 1,14,-1
 601 43 l 1,0,-1
EndSplineSet
EndChar

StartChar: question
Encoding: 63 63 34
Width: 524
GlyphClass: 2
Flags: W
LayerCount: 2
Fore
SplineSet
331 235 m 1,0,-1
 179 235 l 1,1,-1
 179 284 l 2,2,3
 179 352 179 352 236 411 c 0,4,5
 244 419 244 419 264 438 c 128,-1,6
 284 457 284 457 292 466 c 0,7,8
 317 494 317 494 317 522.5 c 128,-1,9
 317 551 317 551 302 567 c 128,-1,10
 287 583 287 583 259.5 583 c 128,-1,11
 232 583 232 583 212.5 558.5 c 128,-1,12
 193 534 193 534 193 503 c 0,13,14
 193 497 193 497 194 491 c 1,15,-1
 52 491 l 1,16,17
 52 497 52 497 52 503 c 0,18,19
 52 597 52 597 111.5 656 c 128,-1,20
 171 715 171 715 267.5 715 c 128,-1,21
 364 715 364 715 419 666.5 c 128,-1,22
 474 618 474 618 474 533 c 0,23,24
 474 491 474 491 451.5 450.5 c 128,-1,25
 429 410 429 410 402 384 c 0,26,27
 331 316 331 316 331 266 c 2,28,-1
 331 235 l 1,0,-1
524 43 m 1,29,-1
 524 0 l 1,30,-1
 0 0 l 1,31,-1
 0 43 l 1,32,-1
 189 43 l 1,33,34
 169 66 169 66 169 101.5 c 128,-1,35
 169 137 169 137 194.5 162.5 c 128,-1,36
 220 188 220 188 257 188 c 128,-1,37
 294 188 294 188 319.5 162.5 c 128,-1,38
 345 137 345 137 345 102 c 128,-1,39
 345 67 345 67 324 43 c 1,40,-1
 524 43 l 1,29,-1
EndSplineSet
EndChar

StartChar: at
Encoding: 64 64 35
Width: 891
GlyphClass: 2
Flags: W
LayerCount: 2
Fore
SplineSet
891 43 m 1,0,-1
 891 0 l 1,1,-1
 0 0 l 1,2,-1
 0 43 l 1,3,-1
 154 43 l 1,4,5
 52 151 52 151 52 315 c 128,-1,6
 52 479 52 479 170.5 597.5 c 128,-1,7
 289 716 289 716 456 716 c 128,-1,8
 623 716 623 716 735 602 c 128,-1,9
 847 488 847 488 847 318 c 0,10,11
 847 208 847 208 801.5 141.5 c 128,-1,12
 756 75 756 75 682 75 c 0,13,14
 644 75 644 75 612.5 98 c 128,-1,15
 581 121 581 121 569 156 c 1,16,17
 514 85 514 85 429.5 85 c 128,-1,18
 345 85 345 85 282.5 149 c 128,-1,19
 220 213 220 213 220 311 c 128,-1,20
 220 409 220 409 276.5 474.5 c 128,-1,21
 333 540 333 540 425 540 c 0,22,23
 456 540 456 540 484 527 c 128,-1,24
 512 514 512 514 524 500 c 1,25,-1
 537 487 l 1,26,-1
 537 532 l 1,27,-1
 662 532 l 1,28,-1
 662 214 l 2,29,30
 662 164 662 164 692 164 c 0,31,32
 719 164 719 164 739.5 207 c 128,-1,33
 760 250 760 250 760 315 c 0,34,35
 760 456 760 456 679 548.5 c 128,-1,36
 598 641 598 641 462 641 c 128,-1,37
 326 641 326 641 233 544 c 128,-1,38
 140 447 140 447 140 310 c 0,39,40
 140 224 140 224 177.5 154 c 128,-1,41
 215 84 215 84 280 43 c 1,42,-1
 891 43 l 1,0,-1
511.5 398 m 128,-1,44
 485 431 485 431 442 431 c 128,-1,45
 399 431 399 431 373.5 398 c 128,-1,46
 348 365 348 365 348 316.5 c 128,-1,47
 348 268 348 268 373.5 232 c 128,-1,48
 399 196 399 196 443 196 c 128,-1,49
 487 196 487 196 512.5 230.5 c 128,-1,50
 538 265 538 265 538 315 c 128,-1,43
 538 365 538 365 511.5 398 c 128,-1,44
EndSplineSet
EndChar

StartChar: A
Encoding: 65 65 36
Width: 745
GlyphClass: 2
Flags: W
LayerCount: 2
Fore
SplineSet
847 43 m 1,0,-1
 847 0 l 1,1,-1
 584 0 l 1,2,-1
 519 151 l 1,3,-1
 226 151 l 1,4,-1
 161 0 l 1,5,-1
 -102 0 l 1,6,-1
 -102 43 l 1,7,-1
 13 43 l 1,8,-1
 297 699 l 1,9,-1
 448 699 l 1,10,-1
 731 43 l 1,11,-1
 847 43 l 1,0,-1
373 491 m 1,12,-1
 285 288 l 1,13,-1
 460 288 l 1,14,-1
 373 491 l 1,12,-1
EndSplineSet
EndChar

StartChar: B
Encoding: 66 66 37
Width: 706
GlyphClass: 2
Flags: W
LayerCount: 2
Fore
SplineSet
706 43 m 1,0,-1
 706 0 l 1,1,-1
 -11 0 l 1,2,-1
 -11 43 l 1,3,-1
 86 43 l 1,4,-1
 86 699 l 1,5,-1
 358 699 l 2,6,7
 429 699 429 699 480.5 682 c 128,-1,8
 532 665 532 665 558 636 c 0,9,10
 605 582 605 582 605 514 c 0,11,12
 605 432 605 432 552 392 c 0,13,14
 534 378 534 378 527 374.5 c 128,-1,15
 520 371 520 371 502 363 c 1,16,17
 567 349 567 349 605.5 304.5 c 128,-1,18
 644 260 644 260 644 194 c 0,19,20
 644 95 644 95 566 43 c 1,21,-1
 706 43 l 1,0,-1
242 132 m 1,22,-1
 349 132 l 2,23,24
 416 132 416 132 449.5 148.5 c 128,-1,25
 483 165 483 165 483 213.5 c 128,-1,26
 483 262 483 262 447.5 277.5 c 128,-1,27
 412 293 412 293 334 293 c 2,28,-1
 242 293 l 1,29,-1
 242 132 l 1,22,-1
242 416 m 1,30,-1
 316 416 l 2,31,32
 381 416 381 416 412.5 430 c 128,-1,33
 444 444 444 444 444 490.5 c 128,-1,34
 444 537 444 537 415 552 c 128,-1,35
 386 567 386 567 317 567 c 2,36,-1
 242 567 l 1,37,-1
 242 416 l 1,30,-1
EndSplineSet
EndChar

StartChar: C
Encoding: 67 67 38
Width: 736
GlyphClass: 2
Flags: W
LayerCount: 2
Fore
SplineSet
736 43 m 1,0,-1
 736 0 l 1,1,-1
 0 0 l 1,2,-1
 0 43 l 1,3,-1
 215 43 l 1,4,5
 135 90 135 90 89.5 170.5 c 128,-1,6
 44 251 44 251 44 353 c 0,7,8
 44 507 44 507 150.5 611 c 128,-1,9
 257 715 257 715 411 715 c 0,10,11
 583 715 583 715 699 584 c 1,12,-1
 602 474 l 1,13,14
 528 566 528 566 418 566 c 0,15,16
 330 566 330 566 267.5 508.5 c 128,-1,17
 205 451 205 451 205 353.5 c 128,-1,18
 205 256 205 256 264 197 c 128,-1,19
 323 138 323 138 407 138 c 0,20,21
 522 138 522 138 595 229 c 1,22,-1
 695 126 l 1,23,24
 651 75 651 75 596 43 c 1,25,-1
 736 43 l 1,0,-1
EndSplineSet
EndChar

StartChar: D
Encoding: 68 68 39
Width: 782
GlyphClass: 2
Flags: W
LayerCount: 2
Fore
SplineSet
782 43 m 1,0,-1
 782 0 l 1,1,-1
 -11 0 l 1,2,-1
 -11 43 l 1,3,-1
 86 43 l 1,4,-1
 86 699 l 1,5,-1
 333 699 l 2,6,7
 520 699 520 699 620 607.5 c 128,-1,8
 720 516 720 516 720 350 c 0,9,10
 720 126 720 126 546 43 c 1,11,-1
 782 43 l 1,0,-1
505.5 192 m 128,-1,13
 563 246 563 246 563 349 c 128,-1,14
 563 452 563 452 505.5 507.5 c 128,-1,15
 448 563 448 563 329 563 c 2,16,-1
 242 563 l 1,17,-1
 242 138 l 1,18,-1
 341 138 l 2,19,12
 448 138 448 138 505.5 192 c 128,-1,13
EndSplineSet
EndChar

StartChar: E
Encoding: 69 69 40
Width: 654
GlyphClass: 2
Flags: W
LayerCount: 2
Fore
SplineSet
86 43 m 1,0,-1
 86 699 l 1,1,-1
 590 699 l 1,2,-1
 590 560 l 1,3,-1
 242 560 l 1,4,-1
 242 416 l 1,5,-1
 555 416 l 1,6,-1
 555 283 l 1,7,-1
 242 283 l 1,8,-1
 242 138 l 1,9,-1
 601 138 l 1,10,-1
 601 43 l 1,11,-1
 698 43 l 1,12,-1
 698 0 l 1,13,-1
 -11 0 l 1,14,-1
 -11 43 l 1,15,-1
 86 43 l 1,0,-1
EndSplineSet
EndChar

StartChar: F
Encoding: 70 70 41
Width: 612
GlyphClass: 2
Flags: W
LayerCount: 2
Fore
SplineSet
612 43 m 1,0,-1
 612 0 l 1,1,-1
 0 0 l 1,2,-1
 0 43 l 1,3,-1
 86 43 l 1,4,-1
 86 699 l 1,5,-1
 566 699 l 1,6,-1
 566 562 l 1,7,-1
 242 562 l 1,8,-1
 242 411 l 1,9,-1
 550 411 l 1,10,-1
 550 274 l 1,11,-1
 242 274 l 1,12,-1
 242 43 l 1,13,-1
 612 43 l 1,0,-1
EndSplineSet
EndChar

StartChar: G
Encoding: 71 71 42
Width: 750
GlyphClass: 2
Flags: W
LayerCount: 2
Fore
SplineSet
750 43 m 1,0,-1
 750 0 l 1,1,-1
 0 0 l 1,2,-1
 0 43 l 1,3,-1
 217 43 l 1,4,5
 137 90 137 90 91.5 170.5 c 128,-1,6
 46 251 46 251 46 353 c 0,7,8
 46 507 46 507 152.5 611 c 128,-1,9
 259 715 259 715 409.5 715 c 128,-1,10
 560 715 560 715 671 616 c 1,11,-1
 590 499 l 1,12,13
 543 540 543 540 503.5 555.5 c 128,-1,14
 464 571 464 571 418 571 c 0,15,16
 329 571 329 571 268 510.5 c 128,-1,17
 207 450 207 450 207 351 c 128,-1,18
 207 252 207 252 265.5 192.5 c 128,-1,19
 324 133 324 133 405 133 c 128,-1,20
 486 133 486 133 540 164 c 1,21,-1
 540 356 l 1,22,-1
 697 356 l 1,23,-1
 697 108 l 1,24,25
 663 70 663 70 616 43 c 1,26,-1
 750 43 l 1,0,-1
EndSplineSet
EndChar

StartChar: H
Encoding: 72 72 43
Width: 762
GlyphClass: 2
Flags: W
LayerCount: 2
Fore
SplineSet
762 43 m 1,0,-1
 762 0 l 1,1,-1
 520 0 l 1,2,-1
 520 275 l 1,3,-1
 242 275 l 1,4,-1
 242 0 l 1,5,-1
 0 0 l 1,6,-1
 0 43 l 1,7,-1
 86 43 l 1,8,-1
 86 699 l 1,9,-1
 242 699 l 1,10,-1
 242 407 l 1,11,-1
 520 407 l 1,12,-1
 520 699 l 1,13,-1
 676 699 l 1,14,-1
 676 43 l 1,15,-1
 762 43 l 1,0,-1
EndSplineSet
EndChar

StartChar: I
Encoding: 73 73 44
Width: 328
GlyphClass: 2
Flags: W
LayerCount: 2
Fore
SplineSet
328 43 m 1,0,-1
 328 0 l 1,1,-1
 0 0 l 1,2,-1
 0 43 l 1,3,-1
 86 43 l 1,4,-1
 86 699 l 1,5,-1
 242 699 l 1,6,-1
 242 43 l 1,7,-1
 328 43 l 1,0,-1
EndSplineSet
EndChar

StartChar: J
Encoding: 74 74 45
Width: 556
GlyphClass: 2
Flags: W
LayerCount: 2
Fore
SplineSet
556 43 m 1,0,-1
 556 0 l 1,1,-1
 0 0 l 1,2,-1
 0 43 l 1,3,-1
 119 43 l 1,4,5
 70 65 70 65 26 111 c 1,6,-1
 107 226 l 1,7,8
 170 158 170 158 239 158 c 0,9,10
 272 158 272 158 295.5 184 c 128,-1,11
 319 210 319 210 319 260 c 2,12,-1
 319 565 l 1,13,-1
 112 565 l 1,14,-1
 112 699 l 1,15,-1
 476 699 l 1,16,-1
 476 263 l 2,17,18
 476 104 476 104 368 43 c 1,19,-1
 556 43 l 1,0,-1
EndSplineSet
EndChar

StartChar: K
Encoding: 75 75 46
Width: 710
GlyphClass: 2
Flags: W
LayerCount: 2
Fore
SplineSet
421 390 m 1,0,-1
 668 43 l 1,1,-1
 751 43 l 1,2,-1
 751 0 l 1,3,-1
 517 0 l 1,4,-1
 312 276 l 1,5,-1
 242 198 l 1,6,-1
 242 0 l 1,7,-1
 0 0 l 1,8,-1
 0 43 l 1,9,-1
 86 43 l 1,10,-1
 86 699 l 1,11,-1
 242 699 l 1,12,-1
 242 412 l 1,13,-1
 506 699 l 1,14,-1
 699 699 l 1,15,-1
 421 390 l 1,0,-1
EndSplineSet
EndChar

StartChar: L
Encoding: 76 76 47
Width: 568
GlyphClass: 2
Flags: W
LayerCount: 2
Fore
SplineSet
637 43 m 1,0,-1
 637 0 l 1,1,-1
 -11 0 l 1,2,-1
 -11 43 l 1,3,-1
 86 43 l 1,4,-1
 86 699 l 1,5,-1
 242 699 l 1,6,-1
 242 139 l 1,7,-1
 540 139 l 1,8,-1
 540 43 l 1,9,-1
 637 43 l 1,0,-1
EndSplineSet
EndChar

StartChar: M
Encoding: 77 77 48
Width: 954
GlyphClass: 2
Flags: W
LayerCount: 2
Fore
SplineSet
712 440 m 1,0,-1
 523 58 l 1,1,-1
 430 58 l 1,2,-1
 242 440 l 1,3,-1
 242 0 l 1,4,-1
 -11 0 l 1,5,-1
 -11 43 l 1,6,-1
 86 43 l 1,7,-1
 86 699 l 1,8,-1
 297 699 l 1,9,-1
 477 315 l 1,10,-1
 658 699 l 1,11,-1
 868 699 l 1,12,-1
 868 43 l 1,13,-1
 965 43 l 1,14,-1
 965 0 l 1,15,-1
 712 0 l 1,16,-1
 712 440 l 1,0,-1
EndSplineSet
EndChar

StartChar: N
Encoding: 78 78 49
Width: 817
GlyphClass: 2
Flags: W
LayerCount: 2
Fore
SplineSet
86 43 m 1,0,-1
 86 699 l 1,1,-1
 232 699 l 1,2,-1
 575 249 l 1,3,-1
 575 699 l 1,4,-1
 731 699 l 1,5,-1
 731 43 l 1,6,-1
 828 43 l 1,7,-1
 828 0 l 1,8,-1
 575 0 l 1,9,-1
 242 438 l 1,10,-1
 242 0 l 1,11,-1
 -11 0 l 1,12,-1
 -11 43 l 1,13,-1
 86 43 l 1,0,-1
EndSplineSet
EndChar

StartChar: O
Encoding: 79 79 50
Width: 826
GlyphClass: 2
Flags: W
LayerCount: 2
Fore
SplineSet
826 43 m 1,0,-1
 826 0 l 1,1,-1
 0 0 l 1,2,-1
 0 43 l 1,3,-1
 223 43 l 1,4,5
 141 90 141 90 93.5 172 c 128,-1,6
 46 254 46 254 46 354 c 0,7,8
 46 508 46 508 152 611.5 c 128,-1,9
 258 715 258 715 413 715 c 128,-1,10
 568 715 568 715 674 611.5 c 128,-1,11
 780 508 780 508 780 354 c 0,12,13
 780 254 780 254 732 172 c 128,-1,14
 684 90 684 90 603 43 c 1,15,-1
 826 43 l 1,0,-1
561 513 m 128,-1,17
 501 579 501 579 413.5 579 c 128,-1,18
 326 579 326 579 266 513 c 128,-1,19
 206 447 206 447 206 353.5 c 128,-1,20
 206 260 206 260 266 194.5 c 128,-1,21
 326 129 326 129 413.5 129 c 128,-1,22
 501 129 501 129 561 194.5 c 128,-1,23
 621 260 621 260 621 353.5 c 128,-1,16
 621 447 621 447 561 513 c 128,-1,17
EndSplineSet
EndChar

StartChar: P
Encoding: 80 80 51
Width: 677
GlyphClass: 2
Flags: W
LayerCount: 2
Fore
SplineSet
677 43 m 1,0,-1
 677 0 l 1,1,-1
 -11 0 l 1,2,-1
 -11 43 l 1,3,-1
 86 43 l 1,4,-1
 86 699 l 1,5,-1
 333 699 l 2,6,7
 494 699 494 699 567.5 636.5 c 128,-1,8
 641 574 641 574 641 444.5 c 128,-1,9
 641 315 641 315 565.5 255 c 128,-1,10
 490 195 490 195 335 195 c 2,11,-1
 242 195 l 1,12,-1
 242 43 l 1,13,-1
 677 43 l 1,0,-1
453 361.5 m 128,-1,15
 481 393 481 393 481 453.5 c 128,-1,16
 481 514 481 514 444.5 539.5 c 128,-1,17
 408 565 408 565 331 565 c 2,18,-1
 242 565 l 1,19,-1
 242 330 l 1,20,-1
 347 330 l 2,21,14
 425 330 425 330 453 361.5 c 128,-1,15
EndSplineSet
EndChar

StartChar: Q
Encoding: 81 81 52
Width: 827
GlyphClass: 2
Flags: W
LayerCount: 2
Fore
SplineSet
780 354 m 0,0,1
 780 254 780 254 732.5 172 c 128,-1,2
 685 90 685 90 603 43 c 1,3,-1
 827 43 l 1,4,-1
 827 0 l 1,5,-1
 491 0 l 1,6,-1
 491 -117 l 1,7,-1
 335 -117 l 1,8,-1
 335 0 l 1,9,-1
 0 0 l 1,10,-1
 0 43 l 1,11,-1
 223 43 l 1,12,13
 141 90 141 90 93.5 172 c 128,-1,14
 46 254 46 254 46 354 c 0,15,16
 46 508 46 508 152 611.5 c 128,-1,17
 258 715 258 715 413 715 c 128,-1,18
 568 715 568 715 674 611.5 c 128,-1,19
 780 508 780 508 780 354 c 0,0,1
335 242 m 1,20,-1
 491 242 l 1,21,-1
 491 145 l 1,22,23
 549 170 549 170 585 226.5 c 128,-1,24
 621 283 621 283 621 353 c 0,25,26
 621 447 621 447 561 513 c 128,-1,27
 501 579 501 579 413.5 579 c 128,-1,28
 326 579 326 579 266 513 c 128,-1,29
 206 447 206 447 206 353 c 0,30,31
 206 283 206 283 241.5 226.5 c 128,-1,32
 277 170 277 170 335 145 c 1,33,-1
 335 242 l 1,20,-1
EndSplineSet
EndChar

StartChar: R
Encoding: 82 82 53
Width: 727
GlyphClass: 2
Flags: W
LayerCount: 2
Fore
SplineSet
86 43 m 1,0,-1
 86 699 l 1,1,-1
 351 699 l 2,2,3
 514 699 514 699 583.5 644 c 128,-1,4
 653 589 653 589 653 467 c 0,5,6
 653 299 653 299 520 250 c 1,7,-1
 666 43 l 1,8,-1
 760 43 l 1,9,-1
 760 0 l 1,10,-1
 505 0 l 1,11,-1
 350 223 l 1,12,-1
 242 223 l 1,13,-1
 242 0 l 1,14,-1
 -11 0 l 1,15,-1
 -11 43 l 1,16,-1
 86 43 l 1,0,-1
465 384 m 128,-1,18
 494 410 494 410 494 466.5 c 128,-1,19
 494 523 494 523 464 544 c 128,-1,20
 434 565 434 565 359 565 c 2,21,-1
 242 565 l 1,22,-1
 242 358 l 1,23,-1
 356 358 l 2,24,17
 436 358 436 358 465 384 c 128,-1,18
EndSplineSet
EndChar

StartChar: S
Encoding: 83 83 54
Width: 638
GlyphClass: 2
Flags: W
LayerCount: 2
Fore
SplineSet
638 43 m 1,0,-1
 638 0 l 1,1,-1
 0 0 l 1,2,-1
 0 43 l 1,3,-1
 136 43 l 1,4,5
 81 71 81 71 36 115 c 1,6,-1
 129 229 l 1,7,8
 242 130 242 130 338 130 c 0,9,10
 381 130 381 130 405.5 148.5 c 128,-1,11
 430 167 430 167 430 198.5 c 128,-1,12
 430 230 430 230 404 248.5 c 128,-1,13
 378 267 378 267 301 286 c 0,14,15
 179 315 179 315 122.5 361.5 c 128,-1,16
 66 408 66 408 66 507.5 c 128,-1,17
 66 607 66 607 137.5 661 c 128,-1,18
 209 715 209 715 316 715 c 0,19,20
 386 715 386 715 456 691 c 128,-1,21
 526 667 526 667 578 623 c 1,22,-1
 499 509 l 1,23,24
 408 578 408 578 311 578 c 0,25,26
 272 578 272 578 249.5 559.5 c 128,-1,27
 227 541 227 541 227 510.5 c 128,-1,28
 227 480 227 480 254.5 462 c 128,-1,29
 282 444 282 444 381.5 419.5 c 128,-1,30
 481 395 481 395 536 346 c 128,-1,31
 591 297 591 297 591 210 c 0,32,33
 591 102 591 102 510 43 c 1,34,-1
 638 43 l 1,0,-1
EndSplineSet
EndChar

StartChar: T
Encoding: 84 84 55
Width: 608
GlyphClass: 2
Flags: W
LayerCount: 2
Fore
SplineSet
608 43 m 1,0,-1
 608 0 l 1,1,-1
 0 0 l 1,2,-1
 0 43 l 1,3,-1
 226 43 l 1,4,-1
 226 564 l 1,5,-1
 28 564 l 1,6,-1
 28 699 l 1,7,-1
 580 699 l 1,8,-1
 580 564 l 1,9,-1
 382 564 l 1,10,-1
 382 43 l 1,11,-1
 608 43 l 1,0,-1
EndSplineSet
EndChar

StartChar: U
Encoding: 85 85 56
Width: 751
GlyphClass: 2
Flags: W
LayerCount: 2
Fore
SplineSet
751 43 m 1,0,-1
 751 0 l 1,1,-1
 0 0 l 1,2,-1
 0 43 l 1,3,-1
 199 43 l 1,4,5
 76 125 76 125 76 308 c 2,6,-1
 76 699 l 1,7,-1
 232 699 l 1,8,-1
 232 313 l 2,9,10
 232 229 232 229 271 180.5 c 128,-1,11
 310 132 310 132 376 132 c 128,-1,12
 442 132 442 132 480.5 180.5 c 128,-1,13
 519 229 519 229 519 313 c 2,14,-1
 519 699 l 1,15,-1
 675 699 l 1,16,-1
 675 308 l 2,17,18
 675 125 675 125 553 43 c 1,19,-1
 751 43 l 1,0,-1
EndSplineSet
EndChar

StartChar: V
Encoding: 86 86 57
Width: 688
GlyphClass: 2
Flags: W
LayerCount: 2
Fore
SplineSet
688 43 m 1,0,-1
 688 0 l 1,1,-1
 0 0 l 1,2,-1
 0 43 l 1,3,-1
 260 43 l 1,4,-1
 -3 699 l 1,5,-1
 166 699 l 1,6,-1
 344 254 l 1,7,-1
 522 699 l 1,8,-1
 691 699 l 1,9,-1
 427 43 l 1,10,-1
 688 43 l 1,0,-1
EndSplineSet
EndChar

StartChar: W
Encoding: 87 87 58
Width: 1019
GlyphClass: 2
Flags: W
LayerCount: 2
Fore
SplineSet
1019 43 m 1,0,-1
 1019 0 l 1,1,-1
 662 0 l 1,2,-1
 509 486 l 1,3,-1
 357 0 l 1,4,-1
 0 0 l 1,5,-1
 0 43 l 1,6,-1
 226 43 l 1,7,-1
 -3 699 l 1,8,-1
 166 699 l 1,9,-1
 304 297 l 1,10,-1
 428 699 l 1,11,-1
 591 699 l 1,12,-1
 714 297 l 1,13,-1
 853 699 l 1,14,-1
 1022 699 l 1,15,-1
 793 43 l 1,16,-1
 1019 43 l 1,0,-1
EndSplineSet
EndChar

StartChar: X
Encoding: 88 88 59
Width: 695
GlyphClass: 2
Flags: W
LayerCount: 2
Fore
SplineSet
754 43 m 1,0,-1
 754 0 l 1,1,-1
 495 0 l 1,2,-1
 346 230 l 1,3,-1
 198 0 l 1,4,-1
 -58 0 l 1,5,-1
 -58 43 l 1,6,-1
 38 43 l 1,7,-1
 245 358 l 1,8,-1
 26 699 l 1,9,-1
 213 699 l 1,10,-1
 346 492 l 1,11,-1
 479 699 l 1,12,-1
 667 699 l 1,13,-1
 449 362 l 1,14,-1
 657 43 l 1,15,-1
 754 43 l 1,0,-1
EndSplineSet
EndChar

StartChar: Y
Encoding: 89 89 60
Width: 618
GlyphClass: 2
Flags: W
LayerCount: 2
Fore
SplineSet
618 43 m 1,0,-1
 618 0 l 1,1,-1
 0 0 l 1,2,-1
 0 43 l 1,3,-1
 231 43 l 1,4,-1
 231 276 l 1,5,-1
 -11 699 l 1,6,-1
 158 699 l 1,7,-1
 309 439 l 1,8,-1
 460 699 l 1,9,-1
 629 699 l 1,10,-1
 387 276 l 1,11,-1
 387 43 l 1,12,-1
 618 43 l 1,0,-1
EndSplineSet
EndChar

StartChar: Z
Encoding: 90 90 61
Width: 681
GlyphClass: 2
Flags: W
LayerCount: 2
Fore
SplineSet
728 43 m 1,0,-1
 728 0 l 1,1,-1
 -51 0 l 1,2,-1
 -51 43 l 1,3,-1
 46 43 l 1,4,-1
 46 107 l 1,5,-1
 412 564 l 1,6,-1
 58 564 l 1,7,-1
 58 699 l 1,8,-1
 625 699 l 1,9,-1
 625 591 l 1,10,-1
 260 136 l 1,11,-1
 631 136 l 1,12,-1
 631 43 l 1,13,-1
 728 43 l 1,0,-1
EndSplineSet
EndChar

StartChar: bracketleft
Encoding: 91 91 62
Width: 374
GlyphClass: 2
Flags: W
LayerCount: 2
Fore
SplineSet
-9 0 m 1,0,-1
 -9 43 l 1,1,-1
 77 43 l 1,2,-1
 77 757 l 1,3,-1
 334 757 l 1,4,-1
 334 644 l 1,5,-1
 205 644 l 1,6,-1
 205 130 l 1,7,-1
 334 130 l 1,8,-1
 334 43 l 1,9,-1
 411 43 l 1,10,-1
 411 0 l 1,11,-1
 -9 0 l 1,0,-1
EndSplineSet
EndChar

StartChar: backslash
Encoding: 92 92 63
Width: 572
GlyphClass: 2
Flags: W
LayerCount: 2
Fore
SplineSet
632 43 m 1,0,-1
 632 0 l 1,1,-1
 0 0 l 1,2,-1
 0 43 l 1,3,-1
 371 43 l 1,4,-1
 28 757 l 1,5,-1
 179 757 l 1,6,-1
 522 43 l 1,7,-1
 632 43 l 1,0,-1
EndSplineSet
EndChar

StartChar: bracketright
Encoding: 93 93 64
Width: 374
GlyphClass: 2
Flags: W
LayerCount: 2
Fore
SplineSet
383 43 m 1,0,-1
 383 0 l 1,1,-1
 -37 0 l 1,2,-1
 -37 43 l 1,3,-1
 40 43 l 1,4,-1
 40 130 l 1,5,-1
 169 130 l 1,6,-1
 169 644 l 1,7,-1
 40 644 l 1,8,-1
 40 757 l 1,9,-1
 297 757 l 1,10,-1
 297 43 l 1,11,-1
 383 43 l 1,0,-1
EndSplineSet
EndChar

StartChar: asciicircum
Encoding: 94 94 65
Width: 483
GlyphClass: 2
Flags: W
LayerCount: 2
Fore
SplineSet
165 771 m 1,0,-1
 22 771 l 1,1,-1
 159 948 l 1,2,-1
 324 948 l 1,3,-1
 461 771 l 1,4,-1
 318 771 l 1,5,-1
 241 856 l 1,6,-1
 165 771 l 1,0,-1
EndSplineSet
EndChar

StartChar: underscore
Encoding: 95 95 66
Width: 720
GlyphClass: 2
Flags: W
LayerCount: 2
Fore
SplineSet
0 0 m 1,0,-1
 0 43 l 1,1,-1
 720 43 l 1,2,-1
 720 0 l 1,3,-1
 384 0 l 1,4,-1
 384 -45 l 1,5,-1
 653 -45 l 1,6,-1
 653 -132 l 1,7,-1
 67 -132 l 1,8,-1
 67 -45 l 1,9,-1
 337 -45 l 1,10,-1
 337 0 l 1,11,-1
 0 0 l 1,0,-1
EndSplineSet
EndChar

StartChar: grave
Encoding: 96 96 67
Width: 382
GlyphClass: 2
Flags: W
LayerCount: 2
Fore
SplineSet
332 769 m 1,0,-1
 189 769 l 1,1,-1
 50 881 l 1,2,-1
 204 947 l 1,3,-1
 332 769 l 1,0,-1
EndSplineSet
EndChar

StartChar: a
Encoding: 97 97 68
Width: 745
GlyphClass: 2
Flags: W
LayerCount: 2
Fore
SplineSet
847 43 m 1,0,-1
 847 0 l 1,1,-1
 584 0 l 1,2,-1
 519 151 l 1,3,-1
 226 151 l 1,4,-1
 161 0 l 1,5,-1
 -102 0 l 1,6,-1
 -102 43 l 1,7,-1
 13 43 l 1,8,-1
 297 699 l 1,9,-1
 448 699 l 1,10,-1
 731 43 l 1,11,-1
 847 43 l 1,0,-1
373 491 m 1,12,-1
 285 288 l 1,13,-1
 460 288 l 1,14,-1
 373 491 l 1,12,-1
EndSplineSet
EndChar

StartChar: b
Encoding: 98 98 69
Width: 706
GlyphClass: 2
Flags: W
LayerCount: 2
Fore
SplineSet
706 43 m 1,0,-1
 706 0 l 1,1,-1
 -11 0 l 1,2,-1
 -11 43 l 1,3,-1
 86 43 l 1,4,-1
 86 699 l 1,5,-1
 358 699 l 2,6,7
 429 699 429 699 480.5 682 c 128,-1,8
 532 665 532 665 558 636 c 0,9,10
 605 582 605 582 605 514 c 0,11,12
 605 432 605 432 552 392 c 0,13,14
 534 378 534 378 527 374.5 c 128,-1,15
 520 371 520 371 502 363 c 1,16,17
 567 349 567 349 605.5 304.5 c 128,-1,18
 644 260 644 260 644 194 c 0,19,20
 644 95 644 95 566 43 c 1,21,-1
 706 43 l 1,0,-1
242 132 m 1,22,-1
 349 132 l 2,23,24
 416 132 416 132 449.5 148.5 c 128,-1,25
 483 165 483 165 483 213.5 c 128,-1,26
 483 262 483 262 447.5 277.5 c 128,-1,27
 412 293 412 293 334 293 c 2,28,-1
 242 293 l 1,29,-1
 242 132 l 1,22,-1
242 416 m 1,30,-1
 316 416 l 2,31,32
 381 416 381 416 412.5 430 c 128,-1,33
 444 444 444 444 444 490.5 c 128,-1,34
 444 537 444 537 415 552 c 128,-1,35
 386 567 386 567 317 567 c 2,36,-1
 242 567 l 1,37,-1
 242 416 l 1,30,-1
EndSplineSet
EndChar

StartChar: c
Encoding: 99 99 70
Width: 736
GlyphClass: 2
Flags: W
LayerCount: 2
Fore
SplineSet
736 43 m 1,0,-1
 736 0 l 1,1,-1
 0 0 l 1,2,-1
 0 43 l 1,3,-1
 215 43 l 1,4,5
 135 90 135 90 89.5 170.5 c 128,-1,6
 44 251 44 251 44 353 c 0,7,8
 44 507 44 507 150.5 611 c 128,-1,9
 257 715 257 715 411 715 c 0,10,11
 583 715 583 715 699 584 c 1,12,-1
 602 474 l 1,13,14
 528 566 528 566 418 566 c 0,15,16
 330 566 330 566 267.5 508.5 c 128,-1,17
 205 451 205 451 205 353.5 c 128,-1,18
 205 256 205 256 264 197 c 128,-1,19
 323 138 323 138 407 138 c 0,20,21
 522 138 522 138 595 229 c 1,22,-1
 695 126 l 1,23,24
 651 75 651 75 596 43 c 1,25,-1
 736 43 l 1,0,-1
EndSplineSet
EndChar

StartChar: d
Encoding: 100 100 71
Width: 782
GlyphClass: 2
Flags: W
LayerCount: 2
Fore
SplineSet
782 43 m 1,0,-1
 782 0 l 1,1,-1
 -11 0 l 1,2,-1
 -11 43 l 1,3,-1
 86 43 l 1,4,-1
 86 699 l 1,5,-1
 333 699 l 2,6,7
 520 699 520 699 620 607.5 c 128,-1,8
 720 516 720 516 720 350 c 0,9,10
 720 126 720 126 546 43 c 1,11,-1
 782 43 l 1,0,-1
505.5 192 m 128,-1,13
 563 246 563 246 563 349 c 128,-1,14
 563 452 563 452 505.5 507.5 c 128,-1,15
 448 563 448 563 329 563 c 2,16,-1
 242 563 l 1,17,-1
 242 138 l 1,18,-1
 341 138 l 2,19,12
 448 138 448 138 505.5 192 c 128,-1,13
EndSplineSet
EndChar

StartChar: e
Encoding: 101 101 72
Width: 654
GlyphClass: 2
Flags: W
LayerCount: 2
Fore
SplineSet
86 43 m 1,0,-1
 86 699 l 1,1,-1
 590 699 l 1,2,-1
 590 560 l 1,3,-1
 242 560 l 1,4,-1
 242 416 l 1,5,-1
 555 416 l 1,6,-1
 555 283 l 1,7,-1
 242 283 l 1,8,-1
 242 138 l 1,9,-1
 601 138 l 1,10,-1
 601 43 l 1,11,-1
 698 43 l 1,12,-1
 698 0 l 1,13,-1
 -11 0 l 1,14,-1
 -11 43 l 1,15,-1
 86 43 l 1,0,-1
EndSplineSet
EndChar

StartChar: f
Encoding: 102 102 73
Width: 612
GlyphClass: 2
Flags: W
LayerCount: 2
Fore
SplineSet
612 43 m 1,0,-1
 612 0 l 1,1,-1
 0 0 l 1,2,-1
 0 43 l 1,3,-1
 86 43 l 1,4,-1
 86 699 l 1,5,-1
 566 699 l 1,6,-1
 566 562 l 1,7,-1
 242 562 l 1,8,-1
 242 411 l 1,9,-1
 550 411 l 1,10,-1
 550 274 l 1,11,-1
 242 274 l 1,12,-1
 242 43 l 1,13,-1
 612 43 l 1,0,-1
EndSplineSet
EndChar

StartChar: g
Encoding: 103 103 74
Width: 750
GlyphClass: 2
Flags: W
LayerCount: 2
Fore
SplineSet
750 43 m 1,0,-1
 750 0 l 1,1,-1
 0 0 l 1,2,-1
 0 43 l 1,3,-1
 217 43 l 1,4,5
 137 90 137 90 91.5 170.5 c 128,-1,6
 46 251 46 251 46 353 c 0,7,8
 46 507 46 507 152.5 611 c 128,-1,9
 259 715 259 715 409.5 715 c 128,-1,10
 560 715 560 715 671 616 c 1,11,-1
 590 499 l 1,12,13
 543 540 543 540 503.5 555.5 c 128,-1,14
 464 571 464 571 418 571 c 0,15,16
 329 571 329 571 268 510.5 c 128,-1,17
 207 450 207 450 207 351 c 128,-1,18
 207 252 207 252 265.5 192.5 c 128,-1,19
 324 133 324 133 405 133 c 128,-1,20
 486 133 486 133 540 164 c 1,21,-1
 540 356 l 1,22,-1
 697 356 l 1,23,-1
 697 108 l 1,24,25
 663 70 663 70 616 43 c 1,26,-1
 750 43 l 1,0,-1
EndSplineSet
EndChar

StartChar: h
Encoding: 104 104 75
Width: 762
GlyphClass: 2
Flags: W
LayerCount: 2
Fore
SplineSet
762 43 m 1,0,-1
 762 0 l 1,1,-1
 520 0 l 1,2,-1
 520 275 l 1,3,-1
 242 275 l 1,4,-1
 242 0 l 1,5,-1
 0 0 l 1,6,-1
 0 43 l 1,7,-1
 86 43 l 1,8,-1
 86 699 l 1,9,-1
 242 699 l 1,10,-1
 242 407 l 1,11,-1
 520 407 l 1,12,-1
 520 699 l 1,13,-1
 676 699 l 1,14,-1
 676 43 l 1,15,-1
 762 43 l 1,0,-1
EndSplineSet
EndChar

StartChar: i
Encoding: 105 105 76
Width: 328
GlyphClass: 2
Flags: W
LayerCount: 2
Fore
SplineSet
328 43 m 1,0,-1
 328 0 l 1,1,-1
 0 0 l 1,2,-1
 0 43 l 1,3,-1
 86 43 l 1,4,-1
 86 699 l 1,5,-1
 242 699 l 1,6,-1
 242 43 l 1,7,-1
 328 43 l 1,0,-1
EndSplineSet
EndChar

StartChar: j
Encoding: 106 106 77
Width: 556
GlyphClass: 2
Flags: W
LayerCount: 2
Fore
SplineSet
556 43 m 1,0,-1
 556 0 l 1,1,-1
 0 0 l 1,2,-1
 0 43 l 1,3,-1
 119 43 l 1,4,5
 70 65 70 65 26 111 c 1,6,-1
 107 226 l 1,7,8
 170 158 170 158 239 158 c 0,9,10
 272 158 272 158 295.5 184 c 128,-1,11
 319 210 319 210 319 260 c 2,12,-1
 319 565 l 1,13,-1
 112 565 l 1,14,-1
 112 699 l 1,15,-1
 476 699 l 1,16,-1
 476 263 l 2,17,18
 476 104 476 104 368 43 c 1,19,-1
 556 43 l 1,0,-1
EndSplineSet
EndChar

StartChar: k
Encoding: 107 107 78
Width: 710
GlyphClass: 2
Flags: W
LayerCount: 2
Fore
SplineSet
421 390 m 1,0,-1
 668 43 l 1,1,-1
 751 43 l 1,2,-1
 751 0 l 1,3,-1
 517 0 l 1,4,-1
 312 276 l 1,5,-1
 242 198 l 1,6,-1
 242 0 l 1,7,-1
 0 0 l 1,8,-1
 0 43 l 1,9,-1
 86 43 l 1,10,-1
 86 699 l 1,11,-1
 242 699 l 1,12,-1
 242 412 l 1,13,-1
 506 699 l 1,14,-1
 699 699 l 1,15,-1
 421 390 l 1,0,-1
EndSplineSet
EndChar

StartChar: l
Encoding: 108 108 79
Width: 568
GlyphClass: 2
Flags: W
LayerCount: 2
Fore
SplineSet
637 43 m 1,0,-1
 637 0 l 1,1,-1
 -11 0 l 1,2,-1
 -11 43 l 1,3,-1
 86 43 l 1,4,-1
 86 699 l 1,5,-1
 242 699 l 1,6,-1
 242 139 l 1,7,-1
 540 139 l 1,8,-1
 540 43 l 1,9,-1
 637 43 l 1,0,-1
EndSplineSet
EndChar

StartChar: m
Encoding: 109 109 80
Width: 954
GlyphClass: 2
Flags: W
LayerCount: 2
Fore
SplineSet
712 440 m 1,0,-1
 523 58 l 1,1,-1
 430 58 l 1,2,-1
 242 440 l 1,3,-1
 242 0 l 1,4,-1
 -11 0 l 1,5,-1
 -11 43 l 1,6,-1
 86 43 l 1,7,-1
 86 699 l 1,8,-1
 297 699 l 1,9,-1
 477 315 l 1,10,-1
 658 699 l 1,11,-1
 868 699 l 1,12,-1
 868 43 l 1,13,-1
 965 43 l 1,14,-1
 965 0 l 1,15,-1
 712 0 l 1,16,-1
 712 440 l 1,0,-1
EndSplineSet
EndChar

StartChar: n
Encoding: 110 110 81
Width: 817
GlyphClass: 2
Flags: W
LayerCount: 2
Fore
SplineSet
86 43 m 1,0,-1
 86 699 l 1,1,-1
 232 699 l 1,2,-1
 575 249 l 1,3,-1
 575 699 l 1,4,-1
 731 699 l 1,5,-1
 731 43 l 1,6,-1
 828 43 l 1,7,-1
 828 0 l 1,8,-1
 575 0 l 1,9,-1
 242 438 l 1,10,-1
 242 0 l 1,11,-1
 -11 0 l 1,12,-1
 -11 43 l 1,13,-1
 86 43 l 1,0,-1
EndSplineSet
EndChar

StartChar: o
Encoding: 111 111 82
Width: 826
GlyphClass: 2
Flags: W
LayerCount: 2
Fore
SplineSet
826 43 m 1,0,-1
 826 0 l 1,1,-1
 0 0 l 1,2,-1
 0 43 l 1,3,-1
 223 43 l 1,4,5
 141 90 141 90 93.5 172 c 128,-1,6
 46 254 46 254 46 354 c 0,7,8
 46 508 46 508 152 611.5 c 128,-1,9
 258 715 258 715 413 715 c 128,-1,10
 568 715 568 715 674 611.5 c 128,-1,11
 780 508 780 508 780 354 c 0,12,13
 780 254 780 254 732 172 c 128,-1,14
 684 90 684 90 603 43 c 1,15,-1
 826 43 l 1,0,-1
561 513 m 128,-1,17
 501 579 501 579 413.5 579 c 128,-1,18
 326 579 326 579 266 513 c 128,-1,19
 206 447 206 447 206 353.5 c 128,-1,20
 206 260 206 260 266 194.5 c 128,-1,21
 326 129 326 129 413.5 129 c 128,-1,22
 501 129 501 129 561 194.5 c 128,-1,23
 621 260 621 260 621 353.5 c 128,-1,16
 621 447 621 447 561 513 c 128,-1,17
EndSplineSet
EndChar

StartChar: p
Encoding: 112 112 83
Width: 677
GlyphClass: 2
Flags: W
LayerCount: 2
Fore
SplineSet
677 43 m 1,0,-1
 677 0 l 1,1,-1
 -11 0 l 1,2,-1
 -11 43 l 1,3,-1
 86 43 l 1,4,-1
 86 699 l 1,5,-1
 333 699 l 2,6,7
 494 699 494 699 567.5 636.5 c 128,-1,8
 641 574 641 574 641 444.5 c 128,-1,9
 641 315 641 315 565.5 255 c 128,-1,10
 490 195 490 195 335 195 c 2,11,-1
 242 195 l 1,12,-1
 242 43 l 1,13,-1
 677 43 l 1,0,-1
453 361.5 m 128,-1,15
 481 393 481 393 481 453.5 c 128,-1,16
 481 514 481 514 444.5 539.5 c 128,-1,17
 408 565 408 565 331 565 c 2,18,-1
 242 565 l 1,19,-1
 242 330 l 1,20,-1
 347 330 l 2,21,14
 425 330 425 330 453 361.5 c 128,-1,15
EndSplineSet
EndChar

StartChar: q
Encoding: 113 113 84
Width: 827
GlyphClass: 2
Flags: W
LayerCount: 2
Fore
SplineSet
780 354 m 0,0,1
 780 254 780 254 732.5 172 c 128,-1,2
 685 90 685 90 603 43 c 1,3,-1
 827 43 l 1,4,-1
 827 0 l 1,5,-1
 491 0 l 1,6,-1
 491 -117 l 1,7,-1
 335 -117 l 1,8,-1
 335 0 l 1,9,-1
 0 0 l 1,10,-1
 0 43 l 1,11,-1
 223 43 l 1,12,13
 141 90 141 90 93.5 172 c 128,-1,14
 46 254 46 254 46 354 c 0,15,16
 46 508 46 508 152 611.5 c 128,-1,17
 258 715 258 715 413 715 c 128,-1,18
 568 715 568 715 674 611.5 c 128,-1,19
 780 508 780 508 780 354 c 0,0,1
335 242 m 1,20,-1
 491 242 l 1,21,-1
 491 145 l 1,22,23
 549 170 549 170 585 226.5 c 128,-1,24
 621 283 621 283 621 353 c 0,25,26
 621 447 621 447 561 513 c 128,-1,27
 501 579 501 579 413.5 579 c 128,-1,28
 326 579 326 579 266 513 c 128,-1,29
 206 447 206 447 206 353 c 0,30,31
 206 283 206 283 241.5 226.5 c 128,-1,32
 277 170 277 170 335 145 c 1,33,-1
 335 242 l 1,20,-1
EndSplineSet
EndChar

StartChar: r
Encoding: 114 114 85
Width: 727
GlyphClass: 2
Flags: W
LayerCount: 2
Fore
SplineSet
86 43 m 1,0,-1
 86 699 l 1,1,-1
 351 699 l 2,2,3
 514 699 514 699 583.5 644 c 128,-1,4
 653 589 653 589 653 467 c 0,5,6
 653 299 653 299 520 250 c 1,7,-1
 666 43 l 1,8,-1
 760 43 l 1,9,-1
 760 0 l 1,10,-1
 505 0 l 1,11,-1
 350 223 l 1,12,-1
 242 223 l 1,13,-1
 242 0 l 1,14,-1
 -11 0 l 1,15,-1
 -11 43 l 1,16,-1
 86 43 l 1,0,-1
465 384 m 128,-1,18
 494 410 494 410 494 466.5 c 128,-1,19
 494 523 494 523 464 544 c 128,-1,20
 434 565 434 565 359 565 c 2,21,-1
 242 565 l 1,22,-1
 242 358 l 1,23,-1
 356 358 l 2,24,17
 436 358 436 358 465 384 c 128,-1,18
EndSplineSet
EndChar

StartChar: s
Encoding: 115 115 86
Width: 638
GlyphClass: 2
Flags: W
LayerCount: 2
Fore
SplineSet
638 43 m 1,0,-1
 638 0 l 1,1,-1
 0 0 l 1,2,-1
 0 43 l 1,3,-1
 136 43 l 1,4,5
 81 71 81 71 36 115 c 1,6,-1
 129 229 l 1,7,8
 242 130 242 130 338 130 c 0,9,10
 381 130 381 130 405.5 148.5 c 128,-1,11
 430 167 430 167 430 198.5 c 128,-1,12
 430 230 430 230 404 248.5 c 128,-1,13
 378 267 378 267 301 286 c 0,14,15
 179 315 179 315 122.5 361.5 c 128,-1,16
 66 408 66 408 66 507.5 c 128,-1,17
 66 607 66 607 137.5 661 c 128,-1,18
 209 715 209 715 316 715 c 0,19,20
 386 715 386 715 456 691 c 128,-1,21
 526 667 526 667 578 623 c 1,22,-1
 499 509 l 1,23,24
 408 578 408 578 311 578 c 0,25,26
 272 578 272 578 249.5 559.5 c 128,-1,27
 227 541 227 541 227 510.5 c 128,-1,28
 227 480 227 480 254.5 462 c 128,-1,29
 282 444 282 444 381.5 419.5 c 128,-1,30
 481 395 481 395 536 346 c 128,-1,31
 591 297 591 297 591 210 c 0,32,33
 591 102 591 102 510 43 c 1,34,-1
 638 43 l 1,0,-1
EndSplineSet
EndChar

StartChar: t
Encoding: 116 116 87
Width: 608
GlyphClass: 2
Flags: W
LayerCount: 2
Fore
SplineSet
608 43 m 1,0,-1
 608 0 l 1,1,-1
 0 0 l 1,2,-1
 0 43 l 1,3,-1
 226 43 l 1,4,-1
 226 564 l 1,5,-1
 28 564 l 1,6,-1
 28 699 l 1,7,-1
 580 699 l 1,8,-1
 580 564 l 1,9,-1
 382 564 l 1,10,-1
 382 43 l 1,11,-1
 608 43 l 1,0,-1
EndSplineSet
EndChar

StartChar: u
Encoding: 117 117 88
Width: 751
GlyphClass: 2
Flags: W
LayerCount: 2
Fore
SplineSet
751 43 m 1,0,-1
 751 0 l 1,1,-1
 0 0 l 1,2,-1
 0 43 l 1,3,-1
 199 43 l 1,4,5
 76 125 76 125 76 308 c 2,6,-1
 76 699 l 1,7,-1
 232 699 l 1,8,-1
 232 313 l 2,9,10
 232 229 232 229 271 180.5 c 128,-1,11
 310 132 310 132 376 132 c 128,-1,12
 442 132 442 132 480.5 180.5 c 128,-1,13
 519 229 519 229 519 313 c 2,14,-1
 519 699 l 1,15,-1
 675 699 l 1,16,-1
 675 308 l 2,17,18
 675 125 675 125 553 43 c 1,19,-1
 751 43 l 1,0,-1
EndSplineSet
EndChar

StartChar: v
Encoding: 118 118 89
Width: 688
GlyphClass: 2
Flags: W
LayerCount: 2
Fore
SplineSet
688 43 m 1,0,-1
 688 0 l 1,1,-1
 0 0 l 1,2,-1
 0 43 l 1,3,-1
 260 43 l 1,4,-1
 -3 699 l 1,5,-1
 166 699 l 1,6,-1
 344 254 l 1,7,-1
 522 699 l 1,8,-1
 691 699 l 1,9,-1
 427 43 l 1,10,-1
 688 43 l 1,0,-1
EndSplineSet
EndChar

StartChar: w
Encoding: 119 119 90
Width: 1019
GlyphClass: 2
Flags: W
LayerCount: 2
Fore
SplineSet
1019 43 m 1,0,-1
 1019 0 l 1,1,-1
 662 0 l 1,2,-1
 509 486 l 1,3,-1
 357 0 l 1,4,-1
 0 0 l 1,5,-1
 0 43 l 1,6,-1
 226 43 l 1,7,-1
 -3 699 l 1,8,-1
 166 699 l 1,9,-1
 304 297 l 1,10,-1
 428 699 l 1,11,-1
 591 699 l 1,12,-1
 714 297 l 1,13,-1
 853 699 l 1,14,-1
 1022 699 l 1,15,-1
 793 43 l 1,16,-1
 1019 43 l 1,0,-1
EndSplineSet
EndChar

StartChar: x
Encoding: 120 120 91
Width: 695
GlyphClass: 2
Flags: W
LayerCount: 2
Fore
SplineSet
754 43 m 1,0,-1
 754 0 l 1,1,-1
 495 0 l 1,2,-1
 346 230 l 1,3,-1
 198 0 l 1,4,-1
 -58 0 l 1,5,-1
 -58 43 l 1,6,-1
 38 43 l 1,7,-1
 245 358 l 1,8,-1
 26 699 l 1,9,-1
 213 699 l 1,10,-1
 346 492 l 1,11,-1
 479 699 l 1,12,-1
 667 699 l 1,13,-1
 449 362 l 1,14,-1
 657 43 l 1,15,-1
 754 43 l 1,0,-1
EndSplineSet
EndChar

StartChar: y
Encoding: 121 121 92
Width: 618
GlyphClass: 2
Flags: W
LayerCount: 2
Fore
SplineSet
618 43 m 1,0,-1
 618 0 l 1,1,-1
 0 0 l 1,2,-1
 0 43 l 1,3,-1
 231 43 l 1,4,-1
 231 276 l 1,5,-1
 -11 699 l 1,6,-1
 158 699 l 1,7,-1
 309 439 l 1,8,-1
 460 699 l 1,9,-1
 629 699 l 1,10,-1
 387 276 l 1,11,-1
 387 43 l 1,12,-1
 618 43 l 1,0,-1
EndSplineSet
EndChar

StartChar: z
Encoding: 122 122 93
Width: 681
GlyphClass: 2
Flags: W
LayerCount: 2
Fore
SplineSet
728 43 m 1,0,-1
 728 0 l 1,1,-1
 -51 0 l 1,2,-1
 -51 43 l 1,3,-1
 46 43 l 1,4,-1
 46 107 l 1,5,-1
 412 564 l 1,6,-1
 58 564 l 1,7,-1
 58 699 l 1,8,-1
 625 699 l 1,9,-1
 625 591 l 1,10,-1
 260 136 l 1,11,-1
 631 136 l 1,12,-1
 631 43 l 1,13,-1
 728 43 l 1,0,-1
EndSplineSet
EndChar

StartChar: braceleft
Encoding: 123 123 94
Width: 360
GlyphClass: 2
Flags: W
LayerCount: 2
Fore
SplineSet
360 43 m 1,0,-1
 360 0 l 1,1,-1
 0 0 l 1,2,-1
 0 43 l 1,3,-1
 148 43 l 1,4,5
 106 82 106 82 106 149 c 2,6,-1
 106 275 l 2,7,8
 106 329 106 329 57 329 c 2,9,-1
 37 329 l 1,10,-1
 37 431 l 1,11,-1
 57 431 l 2,12,13
 106 431 106 431 106 485 c 2,14,-1
 106 611 l 2,15,16
 106 684 106 684 151.5 720.5 c 128,-1,17
 197 757 197 757 271 757 c 2,18,-1
 311 757 l 1,19,-1
 311 644 l 1,20,21
 306 645 306 645 296 645 c 0,22,23
 246 645 246 645 246 585 c 2,24,-1
 246 499 l 2,25,26
 246 430 246 430 205 396 c 0,27,28
 188 382 188 382 179 380 c 1,29,30
 203 372 203 372 224 344 c 0,31,32
 246 315 246 315 246 261 c 2,33,-1
 246 175 l 2,34,35
 246 115 246 115 296 115 c 0,36,37
 306 115 306 115 311 116 c 1,38,-1
 311 43 l 1,39,-1
 360 43 l 1,0,-1
EndSplineSet
EndChar

StartChar: bar
Encoding: 124 124 95
Width: 276
GlyphClass: 2
Flags: W
LayerCount: 2
Fore
SplineSet
0 0 m 1,0,-1
 0 43 l 1,1,-1
 76 43 l 1,2,-1
 76 777 l 1,3,-1
 200 777 l 1,4,-1
 200 43 l 1,5,-1
 276 43 l 1,6,-1
 276 0 l 1,7,-1
 0 0 l 1,0,-1
EndSplineSet
EndChar

StartChar: braceright
Encoding: 125 125 96
Width: 360
GlyphClass: 2
Flags: W
LayerCount: 2
Fore
SplineSet
0 0 m 1,0,-1
 0 43 l 1,1,-1
 49 43 l 1,2,-1
 49 116 l 1,3,4
 54 115 54 115 64 115 c 0,5,6
 114 115 114 115 114 175 c 2,7,-1
 114 261 l 2,8,9
 114 329 114 329 154 364 c 0,10,11
 170 378 170 378 180 380 c 1,12,13
 156 388 156 388 136 416 c 0,14,15
 114 448 114 448 114 499 c 2,16,-1
 114 585 l 2,17,18
 114 645 114 645 64 645 c 0,19,20
 54 645 54 645 49 644 c 1,21,-1
 49 757 l 1,22,-1
 89 757 l 2,23,24
 163 757 163 757 208.5 720.5 c 128,-1,25
 254 684 254 684 254 611 c 2,26,-1
 254 485 l 2,27,28
 254 431 254 431 303 431 c 2,29,-1
 323 431 l 1,30,-1
 323 329 l 1,31,-1
 303 329 l 2,32,33
 254 329 254 329 254 275 c 2,34,-1
 254 149 l 2,35,36
 254 82 254 82 212 43 c 1,37,-1
 360 43 l 1,38,-1
 360 0 l 1,39,-1
 0 0 l 1,0,-1
EndSplineSet
EndChar

StartChar: asciitilde
Encoding: 126 126 97
Width: 535
GlyphClass: 2
Flags: W
LayerCount: 2
Fore
SplineSet
0 0 m 1,0,-1
 0 43 l 1,1,-1
 236 43 l 1,2,-1
 236 339 l 1,3,4
 200 354 200 354 184.5 354 c 128,-1,5
 169 354 169 354 156 335 c 128,-1,6
 143 316 143 316 144 281 c 1,7,-1
 25 317 l 1,8,9
 32 397 32 397 72 437.5 c 128,-1,10
 112 478 112 478 175 478 c 0,11,12
 211 478 211 478 273 446 c 128,-1,13
 335 414 335 414 357 414 c 0,14,15
 389 414 389 414 389 457 c 0,16,17
 389 471 389 471 387 479 c 1,18,-1
 507 447 l 1,19,20
 501 364 501 364 463 326.5 c 128,-1,21
 425 289 425 289 368 289 c 0,22,23
 338 289 338 289 300 307 c 1,24,-1
 300 43 l 1,25,-1
 535 43 l 1,26,-1
 535 0 l 1,27,-1
 0 0 l 1,0,-1
EndSplineSet
EndChar

StartChar: exclamdown
Encoding: 161 161 98
Width: 318
GlyphClass: 2
Flags: W
LayerCount: 2
Fore
SplineSet
318 43 m 1,0,-1
 318 0 l 1,1,-1
 0 0 l 1,2,-1
 0 43 l 1,3,-1
 70 43 l 1,4,-1
 70 132 l 1,5,-1
 100 492 l 1,6,-1
 218 492 l 1,7,-1
 247 132 l 1,8,-1
 247 43 l 1,9,-1
 318 43 l 1,0,-1
247 627 m 128,-1,11
 247 590 247 590 221.5 564.5 c 128,-1,12
 196 539 196 539 159 539 c 128,-1,13
 122 539 122 539 96.5 564.5 c 128,-1,14
 71 590 71 590 71 627 c 128,-1,15
 71 664 71 664 96.5 689.5 c 128,-1,16
 122 715 122 715 159 715 c 128,-1,17
 196 715 196 715 221.5 689.5 c 128,-1,10
 247 664 247 664 247 627 c 128,-1,11
EndSplineSet
EndChar

StartChar: cent
Encoding: 162 162 99
Width: 598
GlyphClass: 2
Flags: W
LayerCount: 2
Fore
SplineSet
280 -117 m 1,0,-1
 280 0 l 1,1,-1
 -11 0 l 1,2,-1
 -11 43 l 1,3,-1
 160 43 l 1,4,5
 46 122 46 122 46 268 c 0,6,7
 46 378 46 378 113 452 c 128,-1,8
 180 526 180 526 280 542 c 1,9,-1
 280 657 l 1,10,-1
 376 657 l 1,11,-1
 376 543 l 1,12,13
 478 528 478 528 553 452 c 1,14,-1
 475 350 l 1,15,16
 434 397 434 397 376 410 c 1,17,-1
 376 131 l 1,18,19
 402 139 402 139 425.5 156 c 128,-1,20
 449 173 449 173 460 186 c 1,21,-1
 470 200 l 1,22,-1
 559 100 l 1,23,24
 522 63 522 63 490 43 c 1,25,-1
 598 43 l 1,26,-1
 598 0 l 1,27,-1
 376 0 l 1,28,-1
 376 -117 l 1,29,-1
 280 -117 l 1,0,-1
217 354.5 m 128,-1,31
 193 320 193 320 193 269.5 c 128,-1,32
 193 219 193 219 217 184 c 128,-1,33
 241 149 241 149 280 135 c 1,34,-1
 280 404 l 1,35,30
 241 389 241 389 217 354.5 c 128,-1,31
EndSplineSet
EndChar

StartChar: sterling
Encoding: 163 163 100
Width: 628
GlyphClass: 2
Flags: W
LayerCount: 2
Fore
SplineSet
668 43 m 1,0,-1
 668 0 l 1,1,-1
 -43 0 l 1,2,-1
 -43 43 l 1,3,-1
 62 43 l 1,4,-1
 62 133 l 1,5,-1
 138 133 l 1,6,-1
 138 273 l 1,7,-1
 58 273 l 1,8,-1
 58 399 l 1,9,-1
 138 399 l 1,10,-1
 138 502 l 2,11,12
 138 626 138 626 201.5 682.5 c 128,-1,13
 265 739 265 739 368 739 c 0,14,15
 506 739 506 739 578 613 c 1,16,-1
 467 523 l 1,17,18
 451 560 451 560 426 581 c 128,-1,19
 401 602 401 602 371 602 c 128,-1,20
 341 602 341 602 318 579.5 c 128,-1,21
 295 557 295 557 295 508 c 2,22,-1
 295 399 l 1,23,-1
 451 399 l 1,24,-1
 451 273 l 1,25,-1
 295 273 l 1,26,-1
 295 133 l 1,27,-1
 573 133 l 1,28,-1
 573 43 l 1,29,-1
 668 43 l 1,0,-1
EndSplineSet
EndChar

StartChar: currency
Encoding: 164 164 101
Width: 761
GlyphClass: 2
Flags: W
LayerCount: 2
Fore
SplineSet
142 193 m 1,0,1
 96 260 96 260 96 346.5 c 128,-1,2
 96 433 96 433 140 500 c 1,3,-1
 56 585 l 1,4,-1
 150 680 l 1,5,-1
 239 591 l 1,6,7
 304 626 304 626 381 626 c 128,-1,8
 458 626 458 626 522 590 c 1,9,-1
 611 680 l 1,10,-1
 705 585 l 1,11,-1
 621 499 l 1,12,13
 665 431 665 431 665 346.5 c 128,-1,14
 665 262 665 262 618 193 c 1,15,-1
 705 105 l 1,16,-1
 644 43 l 1,17,-1
 807 43 l 1,18,-1
 807 0 l 1,19,-1
 -43 0 l 1,20,-1
 -43 43 l 1,21,-1
 116 43 l 1,22,-1
 56 105 l 1,23,-1
 142 193 l 1,0,1
380 204 m 128,-1,25
 436 204 436 204 472 244.5 c 128,-1,26
 508 285 508 285 508 348 c 128,-1,27
 508 411 508 411 472 451 c 128,-1,28
 436 491 436 491 380 491 c 128,-1,29
 324 491 324 491 288 451 c 128,-1,30
 252 411 252 411 252 348 c 128,-1,31
 252 285 252 285 288 244.5 c 128,-1,24
 324 204 324 204 380 204 c 128,-1,25
519 104 m 1,32,33
 453 70 453 70 378.5 70 c 128,-1,34
 304 70 304 70 242 104 c 1,35,-1
 181 43 l 1,36,-1
 579 43 l 1,37,-1
 519 104 l 1,32,33
EndSplineSet
EndChar

StartChar: yen
Encoding: 165 165 102
Width: 741
GlyphClass: 2
Flags: W
LayerCount: 2
Fore
SplineSet
741 43 m 1,0,-1
 741 0 l 1,1,-1
 0 0 l 1,2,-1
 0 43 l 1,3,-1
 286 43 l 1,4,-1
 286 128 l 1,5,-1
 108 128 l 1,6,-1
 108 224 l 1,7,-1
 286 224 l 1,8,-1
 286 279 l 1,9,-1
 108 279 l 1,10,-1
 108 375 l 1,11,-1
 222 375 l 1,12,-1
 34 698 l 1,13,-1
 204 698 l 1,14,-1
 369 413 l 1,15,-1
 540 698 l 1,16,-1
 709 698 l 1,17,-1
 515 375 l 1,18,-1
 625 375 l 1,19,-1
 625 279 l 1,20,-1
 449 279 l 1,21,-1
 449 224 l 1,22,-1
 625 224 l 1,23,-1
 625 128 l 1,24,-1
 449 128 l 1,25,-1
 449 43 l 1,26,-1
 741 43 l 1,0,-1
EndSplineSet
EndChar

StartChar: brokenbar
Encoding: 166 166 103
Width: 294
GlyphClass: 2
Flags: W
LayerCount: 2
Fore
SplineSet
294 43 m 1,0,-1
 294 0 l 1,1,-1
 0 0 l 1,2,-1
 0 43 l 1,3,-1
 80 43 l 1,4,-1
 80 339 l 1,5,-1
 214 339 l 1,6,-1
 214 43 l 1,7,-1
 294 43 l 1,0,-1
80 427 m 1,8,-1
 80 754 l 1,9,-1
 214 754 l 1,10,-1
 214 427 l 1,11,-1
 80 427 l 1,8,-1
EndSplineSet
EndChar

StartChar: section
Encoding: 167 167 104
Width: 622
GlyphClass: 2
Flags: W
LayerCount: 2
Fore
SplineSet
642 43 m 1,0,-1
 642 0 l 1,1,-1
 539 0 l 1,2,3
 530 -67 530 -67 470.5 -111.5 c 128,-1,4
 411 -156 411 -156 316 -156 c 0,5,6
 173 -156 173 -156 53 -47 c 1,7,-1
 92 0 l 1,8,-1
 0 0 l 1,9,-1
 0 43 l 1,10,-1
 384 43 l 1,11,12
 362 65 362 65 261.5 94.5 c 128,-1,13
 161 124 161 124 105.5 166.5 c 128,-1,14
 50 209 50 209 50 290 c 0,15,16
 50 332 50 332 74.5 369.5 c 128,-1,17
 99 407 99 407 145 427 c 1,18,19
 91 465 91 465 91 530 c 0,20,21
 91 612 91 612 152 663.5 c 128,-1,22
 213 715 213 715 308 715 c 0,23,24
 374 715 374 715 426 696.5 c 128,-1,25
 478 678 478 678 535 636 c 1,26,-1
 460 529 l 1,27,28
 376 593 376 593 306 593 c 0,29,30
 274 593 274 593 255.5 578 c 128,-1,31
 237 563 237 563 237 537.5 c 128,-1,32
 237 512 237 512 260.5 496.5 c 128,-1,33
 284 481 284 481 354 463 c 1,34,35
 474 434 474 434 526 393.5 c 128,-1,36
 578 353 578 353 578 277 c 0,37,38
 578 176 578 176 476 134 c 1,39,40
 526 99 526 99 537 43 c 1,41,-1
 642 43 l 1,0,-1
183 294 m 0,42,43
 183 256 183 256 231.5 231.5 c 128,-1,44
 280 207 280 207 355 207 c 0,45,46
 393 207 393 207 419 223.5 c 128,-1,47
 445 240 445 240 445 267 c 0,48,49
 445 308 445 308 385.5 328 c 128,-1,50
 326 348 326 348 278 348 c 0,51,52
 183 348 183 348 183 294 c 0,42,43
210 0 m 1,53,54
 268 -34 268 -34 325 -34 c 128,-1,55
 382 -34 382 -34 394 0 c 1,56,-1
 210 0 l 1,53,54
EndSplineSet
EndChar

StartChar: dieresis
Encoding: 168 168 105
Width: 531
GlyphClass: 2
Flags: W
LayerCount: 2
Fore
SplineSet
95 691 m 128,-1,1
 95 722 95 722 116.5 743.5 c 128,-1,2
 138 765 138 765 169 765 c 128,-1,3
 200 765 200 765 221.5 743.5 c 128,-1,4
 243 722 243 722 243 691 c 128,-1,5
 243 660 243 660 221.5 638.5 c 128,-1,6
 200 617 200 617 169 617 c 128,-1,7
 138 617 138 617 116.5 638.5 c 128,-1,0
 95 660 95 660 95 691 c 128,-1,1
288 691 m 128,-1,9
 288 722 288 722 309.5 743.5 c 128,-1,10
 331 765 331 765 362 765 c 128,-1,11
 393 765 393 765 414.5 743.5 c 128,-1,12
 436 722 436 722 436 691 c 128,-1,13
 436 660 436 660 414.5 638.5 c 128,-1,14
 393 617 393 617 362 617 c 128,-1,15
 331 617 331 617 309.5 638.5 c 128,-1,8
 288 660 288 660 288 691 c 128,-1,9
EndSplineSet
EndChar

StartChar: copyright
Encoding: 169 169 106
Width: 824
GlyphClass: 2
Flags: W
LayerCount: 2
Fore
SplineSet
0 0 m 1,0,-1
 0 43 l 1,1,-1
 219 43 l 1,2,3
 141 92 141 92 96 172.5 c 128,-1,4
 51 253 51 253 51 348 c 0,5,6
 51 497 51 497 156.5 604 c 128,-1,7
 262 711 262 711 412 711 c 128,-1,8
 562 711 562 711 667.5 605 c 128,-1,9
 773 499 773 499 773 350 c 0,10,11
 773 255 773 255 727 173.5 c 128,-1,12
 681 92 681 92 603 43 c 1,13,-1
 824 43 l 1,14,-1
 824 0 l 1,15,-1
 0 0 l 1,0,-1
699 350 m 128,-1,17
 699 468 699 468 615 552 c 128,-1,18
 531 636 531 636 412.5 636 c 128,-1,19
 294 636 294 636 209.5 551 c 128,-1,20
 125 466 125 466 125 348 c 128,-1,21
 125 230 125 230 208 146 c 128,-1,22
 291 62 291 62 411 62 c 128,-1,23
 531 62 531 62 615 147 c 128,-1,16
 699 232 699 232 699 350 c 128,-1,17
416 146 m 0,24,25
 332 146 332 146 271 203 c 128,-1,26
 210 260 210 260 210 352 c 128,-1,27
 210 444 210 444 273 501.5 c 128,-1,28
 336 559 336 559 428 559 c 128,-1,29
 520 559 520 559 588 488 c 1,30,-1
 528 413 l 1,31,32
 488 461 488 461 427 461 c 0,33,34
 384 461 384 461 353.5 432.5 c 128,-1,35
 323 404 323 404 323 353.5 c 128,-1,36
 323 303 323 303 354.5 273.5 c 128,-1,37
 386 244 386 244 430 244 c 0,38,39
 495 244 495 244 530 302 c 1,40,-1
 592 227 l 1,41,42
 515 146 515 146 416 146 c 0,24,25
EndSplineSet
EndChar

StartChar: guillemotleft
Encoding: 171 171 107
Width: 604
GlyphClass: 2
Flags: W
LayerCount: 2
Fore
SplineSet
-30 0 m 1,0,-1
 -30 43 l 1,1,-1
 136 43 l 1,2,-1
 18 219 l 1,3,-1
 140 407 l 1,4,-1
 291 407 l 1,5,-1
 173 219 l 1,6,-1
 287 43 l 1,7,-1
 361 43 l 1,8,-1
 243 219 l 1,9,-1
 365 407 l 1,10,-1
 516 407 l 1,11,-1
 398 219 l 1,12,-1
 512 43 l 1,13,-1
 604 43 l 1,14,-1
 604 0 l 1,15,-1
 -30 0 l 1,0,-1
EndSplineSet
EndChar

StartChar: logicalnot
Encoding: 172 172 108
Width: 817
GlyphClass: 2
Flags: W
LayerCount: 2
Fore
SplineSet
63 445 m 1,0,-1
 732 445 l 1,1,-1
 732 88 l 1,2,-1
 620 88 l 1,3,-1
 620 327 l 1,4,-1
 63 327 l 1,5,-1
 63 445 l 1,0,-1
EndSplineSet
EndChar

StartChar: registered
Encoding: 174 174 109
Width: 824
GlyphClass: 2
Flags: W
LayerCount: 2
Fore
SplineSet
0 0 m 1,0,-1
 0 43 l 1,1,-1
 219 43 l 1,2,3
 141 92 141 92 96 172.5 c 128,-1,4
 51 253 51 253 51 348 c 0,5,6
 51 497 51 497 156.5 604 c 128,-1,7
 262 711 262 711 412 711 c 128,-1,8
 562 711 562 711 667.5 605 c 128,-1,9
 773 499 773 499 773 350 c 0,10,11
 773 255 773 255 727 173.5 c 128,-1,12
 681 92 681 92 603 43 c 1,13,-1
 824 43 l 1,14,-1
 824 0 l 1,15,-1
 0 0 l 1,0,-1
619 151 m 1,16,17
 699 234 699 234 699 351 c 128,-1,18
 699 468 699 468 615 552 c 128,-1,19
 531 636 531 636 412.5 636 c 128,-1,20
 294 636 294 636 209.5 551 c 128,-1,21
 125 466 125 466 125 348 c 128,-1,22
 125 230 125 230 208 146 c 128,-1,23
 291 62 291 62 412 62 c 128,-1,24
 533 62 533 62 617 149 c 1,25,-1
 501 149 l 1,26,-1
 414 274 l 1,27,-1
 370 274 l 1,28,-1
 370 149 l 1,29,-1
 260 149 l 1,30,-1
 260 555 l 1,31,-1
 421 555 l 2,32,33
 517 555 517 555 558 522 c 128,-1,34
 599 489 599 489 599 416 c 0,35,36
 599 327 599 327 518 292 c 1,37,-1
 619 151 l 1,16,17
476 376.5 m 128,-1,39
 490 389 490 389 490 416.5 c 128,-1,40
 490 444 490 444 475.5 454.5 c 128,-1,41
 461 465 461 465 425 465 c 2,42,-1
 370 465 l 1,43,-1
 370 364 l 1,44,-1
 423 364 l 2,45,38
 462 364 462 364 476 376.5 c 128,-1,39
EndSplineSet
EndChar

StartChar: macron
Encoding: 175 175 110
Width: 442
GlyphClass: 2
Flags: W
LayerCount: 2
Fore
SplineSet
388 687 m 1,0,-1
 388 571 l 1,1,-1
 55 571 l 1,2,-1
 55 687 l 1,3,-1
 388 687 l 1,0,-1
EndSplineSet
EndChar

StartChar: degree
Encoding: 176 176 111
Width: 428
GlyphClass: 2
Flags: W
LayerCount: 2
Fore
SplineSet
214 714 m 128,-1,1
 283 714 283 714 332 666 c 128,-1,2
 381 618 381 618 381 550.5 c 128,-1,3
 381 483 381 483 332 435.5 c 128,-1,4
 283 388 283 388 214 388 c 128,-1,5
 145 388 145 388 96 435.5 c 128,-1,6
 47 483 47 483 47 550.5 c 128,-1,7
 47 618 47 618 96 666 c 128,-1,0
 145 714 145 714 214 714 c 128,-1,1
163 493.5 m 128,-1,9
 184 470 184 470 214 470 c 128,-1,10
 244 470 244 470 264.5 493 c 128,-1,11
 285 516 285 516 285 550 c 128,-1,12
 285 584 285 584 264.5 607 c 128,-1,13
 244 630 244 630 214 630 c 128,-1,14
 184 630 184 630 163 607 c 128,-1,15
 142 584 142 584 142 550.5 c 128,-1,8
 142 517 142 517 163 493.5 c 128,-1,9
430 43 m 1,16,-1
 430 0 l 1,17,-1
 0 0 l 1,18,-1
 0 43 l 1,19,-1
 430 43 l 1,16,-1
EndSplineSet
EndChar

StartChar: plusminus
Encoding: 177 177 112
Width: 581
GlyphClass: 2
Flags: W
LayerCount: 2
Fore
SplineSet
48 202 m 1,0,-1
 259 202 l 1,1,-1
 259 252 l 1,2,-1
 221 252 l 1,3,-1
 221 391 l 1,4,-1
 48 391 l 1,5,-1
 48 508 l 1,6,-1
 221 508 l 1,7,-1
 221 652 l 1,8,-1
 359 652 l 1,9,-1
 359 508 l 1,10,-1
 533 508 l 1,11,-1
 533 391 l 1,12,-1
 359 391 l 1,13,-1
 359 252 l 1,14,-1
 323 252 l 1,15,-1
 323 202 l 1,16,-1
 533 202 l 1,17,-1
 533 89 l 1,18,-1
 323 89 l 1,19,-1
 323 43 l 1,20,-1
 581 43 l 1,21,-1
 581 0 l 1,22,-1
 0 0 l 1,23,-1
 0 43 l 1,24,-1
 259 43 l 1,25,-1
 259 89 l 1,26,-1
 48 89 l 1,27,-1
 48 202 l 1,0,-1
EndSplineSet
EndChar

StartChar: acute
Encoding: 180 180 113
Width: 382
GlyphClass: 2
Flags: W
LayerCount: 2
Fore
SplineSet
193 771 m 1,0,-1
 50 771 l 1,1,-1
 177 948 l 1,2,-1
 332 883 l 1,3,-1
 193 771 l 1,0,-1
EndSplineSet
EndChar

StartChar: paragraph
Encoding: 182 182 114
Width: 712
GlyphClass: 2
Flags: W
LayerCount: 2
Fore
SplineSet
712 43 m 1,0,-1
 712 0 l 1,1,-1
 0 0 l 1,2,-1
 0 43 l 1,3,-1
 260 43 l 1,4,-1
 260 348 l 1,5,-1
 240 348 l 2,6,7
 110 348 110 348 60 444 c 0,8,9
 34 493 34 493 34 548 c 0,10,11
 34 636 34 636 94.5 696 c 128,-1,12
 155 756 155 756 279 756 c 2,13,-1
 621 756 l 1,14,-1
 621 43 l 1,15,-1
 712 43 l 1,0,-1
390 632 m 1,16,-1
 390 43 l 1,17,-1
 488 43 l 1,18,-1
 488 632 l 1,19,-1
 390 632 l 1,16,-1
EndSplineSet
EndChar

StartChar: periodcentered
Encoding: 183 183 115
Width: 298
GlyphClass: 2
Flags: W
LayerCount: 2
Fore
SplineSet
61 318 m 128,-1,1
 61 355 61 355 86.5 380.5 c 128,-1,2
 112 406 112 406 149 406 c 128,-1,3
 186 406 186 406 211.5 380.5 c 128,-1,4
 237 355 237 355 237 318 c 128,-1,5
 237 281 237 281 211.5 255.5 c 128,-1,6
 186 230 186 230 149 230 c 128,-1,7
 112 230 112 230 86.5 255.5 c 128,-1,0
 61 281 61 281 61 318 c 128,-1,1
EndSplineSet
EndChar

StartChar: cedilla
Encoding: 184 184 116
Width: 281
GlyphClass: 2
Flags: W
LayerCount: 2
Fore
SplineSet
244 -127 m 0,0,1
 244 -170 244 -170 208.5 -202 c 128,-1,2
 173 -234 173 -234 119 -234 c 128,-1,3
 65 -234 65 -234 14 -202 c 1,4,-1
 52 -116 l 1,5,6
 74 -135 74 -135 91 -135 c 128,-1,7
 108 -135 108 -135 117.5 -126 c 128,-1,8
 127 -117 127 -117 127 -103.5 c 128,-1,9
 127 -90 127 -90 115 -79.5 c 128,-1,10
 103 -69 103 -69 86.5 -69 c 128,-1,11
 70 -69 70 -69 51 -78 c 1,12,-1
 92 0 l 1,13,-1
 207 0 l 1,14,-1
 179 -51 l 1,15,16
 244 -73 244 -73 244 -127 c 0,0,1
EndSplineSet
EndChar

StartChar: guillemotright
Encoding: 187 187 117
Width: 604
GlyphClass: 2
Flags: W
LayerCount: 2
Fore
SplineSet
604 43 m 1,0,-1
 604 0 l 1,1,-1
 -30 0 l 1,2,-1
 -30 43 l 1,3,-1
 61 43 l 1,4,-1
 176 219 l 1,5,-1
 58 407 l 1,6,-1
 209 407 l 1,7,-1
 331 219 l 1,8,-1
 212 43 l 1,9,-1
 286 43 l 1,10,-1
 401 219 l 1,11,-1
 283 407 l 1,12,-1
 434 407 l 1,13,-1
 556 219 l 1,14,-1
 437 43 l 1,15,-1
 604 43 l 1,0,-1
EndSplineSet
EndChar

StartChar: questiondown
Encoding: 191 191 118
Width: 526
GlyphClass: 2
Flags: W
LayerCount: 2
Fore
SplineSet
0 0 m 1,0,-1
 0 43 l 1,1,-1
 130 43 l 1,2,3
 52 90 52 90 52 194 c 0,4,5
 52 236 52 236 74.5 276.5 c 128,-1,6
 97 317 97 317 124 342 c 0,7,8
 195 411 195 411 195 461 c 2,9,-1
 195 492 l 1,10,-1
 347 492 l 1,11,-1
 347 443 l 2,12,13
 347 375 347 375 290 316 c 0,14,15
 282 308 282 308 262 289 c 128,-1,16
 242 270 242 270 234 261 c 0,17,18
 209 233 209 233 209 204.5 c 128,-1,19
 209 176 209 176 224 160 c 128,-1,20
 239 144 239 144 266.5 144 c 128,-1,21
 294 144 294 144 313.5 168.5 c 128,-1,22
 333 193 333 193 333 224 c 0,23,24
 333 230 333 230 332 236 c 1,25,-1
 474 236 l 1,26,27
 474 231 474 231 474 226 c 0,28,29
 474 100 474 100 377 43 c 1,30,-1
 526 43 l 1,31,-1
 526 0 l 1,32,-1
 0 0 l 1,0,-1
357 627 m 128,-1,34
 357 590 357 590 331.5 564.5 c 128,-1,35
 306 539 306 539 269 539 c 128,-1,36
 232 539 232 539 206.5 564.5 c 128,-1,37
 181 590 181 590 181 627 c 128,-1,38
 181 664 181 664 206.5 689.5 c 128,-1,39
 232 715 232 715 269 715 c 128,-1,40
 306 715 306 715 331.5 689.5 c 128,-1,33
 357 664 357 664 357 627 c 128,-1,34
EndSplineSet
EndChar

StartChar: Agrave
Encoding: 192 192 119
Width: 745
GlyphClass: 2
Flags: W
LayerCount: 2
Fore
SplineSet
847 43 m 1,0,-1
 847 0 l 1,1,-1
 584 0 l 1,2,-1
 519 151 l 1,3,-1
 226 151 l 1,4,-1
 161 0 l 1,5,-1
 -102 0 l 1,6,-1
 -102 43 l 1,7,-1
 13 43 l 1,8,-1
 297 699 l 1,9,-1
 448 699 l 1,10,-1
 731 43 l 1,11,-1
 847 43 l 1,0,-1
448 769 m 1,12,-1
 305 769 l 1,13,-1
 166 881 l 1,14,-1
 320 947 l 1,15,-1
 448 769 l 1,12,-1
373 491 m 1,16,-1
 285 288 l 1,17,-1
 460 288 l 1,18,-1
 373 491 l 1,16,-1
EndSplineSet
EndChar

StartChar: Aacute
Encoding: 193 193 120
Width: 745
GlyphClass: 2
Flags: W
LayerCount: 2
Fore
SplineSet
847 43 m 1,0,-1
 847 0 l 1,1,-1
 584 0 l 1,2,-1
 519 151 l 1,3,-1
 226 151 l 1,4,-1
 161 0 l 1,5,-1
 -102 0 l 1,6,-1
 -102 43 l 1,7,-1
 13 43 l 1,8,-1
 297 699 l 1,9,-1
 448 699 l 1,10,-1
 731 43 l 1,11,-1
 847 43 l 1,0,-1
439 771 m 1,12,-1
 296 771 l 1,13,-1
 423 948 l 1,14,-1
 578 883 l 1,15,-1
 439 771 l 1,12,-1
373 491 m 1,16,-1
 285 288 l 1,17,-1
 460 288 l 1,18,-1
 373 491 l 1,16,-1
EndSplineSet
EndChar

StartChar: Acircumflex
Encoding: 194 194 121
Width: 745
GlyphClass: 2
Flags: W
LayerCount: 2
Fore
SplineSet
847 43 m 1,0,-1
 847 0 l 1,1,-1
 584 0 l 1,2,-1
 519 151 l 1,3,-1
 226 151 l 1,4,-1
 161 0 l 1,5,-1
 -102 0 l 1,6,-1
 -102 43 l 1,7,-1
 13 43 l 1,8,-1
 297 699 l 1,9,-1
 448 699 l 1,10,-1
 731 43 l 1,11,-1
 847 43 l 1,0,-1
283 769 m 1,12,-1
 160 769 l 1,13,-1
 273 927 l 1,14,-1
 460 927 l 1,15,-1
 573 769 l 1,16,-1
 450 769 l 1,17,-1
 366 850 l 1,18,-1
 283 769 l 1,12,-1
373 491 m 1,19,-1
 285 288 l 1,20,-1
 460 288 l 1,21,-1
 373 491 l 1,19,-1
EndSplineSet
EndChar

StartChar: Atilde
Encoding: 195 195 122
Width: 745
GlyphClass: 2
Flags: W
LayerCount: 2
Fore
SplineSet
847 43 m 1,0,-1
 847 0 l 1,1,-1
 584 0 l 1,2,-1
 519 151 l 1,3,-1
 226 151 l 1,4,-1
 161 0 l 1,5,-1
 -102 0 l 1,6,-1
 -102 43 l 1,7,-1
 13 43 l 1,8,-1
 297 699 l 1,9,-1
 448 699 l 1,10,-1
 731 43 l 1,11,-1
 847 43 l 1,0,-1
309 821 m 0,12,13
 278 821 278 821 279 769 c 1,14,-1
 173 769 l 1,15,16
 173 844 173 844 205.5 887 c 128,-1,17
 238 930 238 930 289 930 c 0,18,19
 321 930 321 930 366.5 902.5 c 128,-1,20
 412 875 412 875 422 875 c 0,21,22
 453 875 453 875 452 927 c 1,23,-1
 558 927 l 1,24,25
 558 852 558 852 525.5 809 c 128,-1,26
 493 766 493 766 442 766 c 0,27,28
 411 766 411 766 364 793.5 c 128,-1,29
 317 821 317 821 309 821 c 0,12,13
373 491 m 1,30,-1
 285 288 l 1,31,-1
 460 288 l 1,32,-1
 373 491 l 1,30,-1
EndSplineSet
EndChar

StartChar: Adieresis
Encoding: 196 196 123
Width: 745
GlyphClass: 2
Flags: W
LayerCount: 2
Fore
SplineSet
847 43 m 1,0,-1
 847 0 l 1,1,-1
 584 0 l 1,2,-1
 519 151 l 1,3,-1
 226 151 l 1,4,-1
 161 0 l 1,5,-1
 -102 0 l 1,6,-1
 -102 43 l 1,7,-1
 13 43 l 1,8,-1
 297 699 l 1,9,-1
 448 699 l 1,10,-1
 731 43 l 1,11,-1
 847 43 l 1,0,-1
373 491 m 1,12,-1
 285 288 l 1,13,-1
 460 288 l 1,14,-1
 373 491 l 1,12,-1
205 847 m 128,-1,16
 205 878 205 878 226.5 899.5 c 128,-1,17
 248 921 248 921 279 921 c 128,-1,18
 310 921 310 921 331.5 899.5 c 128,-1,19
 353 878 353 878 353 847 c 128,-1,20
 353 816 353 816 331.5 794.5 c 128,-1,21
 310 773 310 773 279 773 c 128,-1,22
 248 773 248 773 226.5 794.5 c 128,-1,15
 205 816 205 816 205 847 c 128,-1,16
398 847 m 128,-1,24
 398 878 398 878 419.5 899.5 c 128,-1,25
 441 921 441 921 472 921 c 128,-1,26
 503 921 503 921 524.5 899.5 c 128,-1,27
 546 878 546 878 546 847 c 128,-1,28
 546 816 546 816 524.5 794.5 c 128,-1,29
 503 773 503 773 472 773 c 128,-1,30
 441 773 441 773 419.5 794.5 c 128,-1,23
 398 816 398 816 398 847 c 128,-1,24
EndSplineSet
EndChar

StartChar: Aring
Encoding: 197 197 124
Width: 745
GlyphClass: 2
Flags: W
LayerCount: 2
Fore
SplineSet
-102 0 m 1,0,-1
 -102 43 l 1,1,-1
 13 43 l 1,2,-1
 296 698 l 1,3,4
 266 730 266 730 266 773.5 c 128,-1,5
 266 817 266 817 297.5 848.5 c 128,-1,6
 329 880 329 880 373 880 c 128,-1,7
 417 880 417 880 448.5 848.5 c 128,-1,8
 480 817 480 817 480 773 c 128,-1,9
 480 729 480 729 448 697 c 1,10,-1
 731 43 l 1,11,-1
 847 43 l 1,12,-1
 847 0 l 1,13,-1
 584 0 l 1,14,-1
 519 151 l 1,15,-1
 226 151 l 1,16,-1
 161 0 l 1,17,-1
 -102 0 l 1,0,-1
373 491 m 1,18,-1
 285 288 l 1,19,-1
 460 288 l 1,20,-1
 373 491 l 1,18,-1
338 773 m 128,-1,22
 338 759 338 759 348.5 748.5 c 128,-1,23
 359 738 359 738 373 738 c 128,-1,24
 387 738 387 738 397.5 748.5 c 128,-1,25
 408 759 408 759 408 773 c 128,-1,26
 408 787 408 787 397.5 797.5 c 128,-1,27
 387 808 387 808 373 808 c 128,-1,28
 359 808 359 808 348.5 797.5 c 128,-1,21
 338 787 338 787 338 773 c 128,-1,22
EndSplineSet
EndChar

StartChar: AE
Encoding: 198 198 125
Width: 1023
GlyphClass: 2
Flags: W
LayerCount: 2
Fore
SplineSet
1068 43 m 1,0,-1
 1068 0 l 1,1,-1
 445 0 l 1,2,-1
 445 151 l 1,3,-1
 247 151 l 1,4,-1
 168 0 l 1,5,-1
 -102 0 l 1,6,-1
 -102 43 l 1,7,-1
 6 43 l 1,8,-1
 343 699 l 1,9,-1
 960 699 l 1,10,-1
 960 562 l 1,11,-1
 611 562 l 1,12,-1
 611 411 l 1,13,-1
 924 411 l 1,14,-1
 924 280 l 1,15,-1
 611 280 l 1,16,-1
 611 137 l 1,17,-1
 971 137 l 1,18,-1
 971 43 l 1,19,-1
 1068 43 l 1,0,-1
445 292 m 1,20,-1
 445 538 l 1,21,-1
 318 292 l 1,22,-1
 445 292 l 1,20,-1
EndSplineSet
EndChar

StartChar: Ccedilla
Encoding: 199 199 126
Width: 732
GlyphClass: 2
Flags: W
LayerCount: 2
Fore
SplineSet
736 43 m 1,0,-1
 736 0 l 1,1,-1
 0 0 l 1,2,-1
 0 43 l 1,3,-1
 215 43 l 1,4,5
 135 90 135 90 89.5 170.5 c 128,-1,6
 44 251 44 251 44 353 c 0,7,8
 44 507 44 507 150.5 611 c 128,-1,9
 257 715 257 715 411 715 c 0,10,11
 583 715 583 715 699 584 c 1,12,-1
 602 474 l 1,13,14
 528 566 528 566 418 566 c 0,15,16
 330 566 330 566 267.5 508.5 c 128,-1,17
 205 451 205 451 205 353.5 c 128,-1,18
 205 256 205 256 264 197 c 128,-1,19
 323 138 323 138 407 138 c 0,20,21
 522 138 522 138 595 229 c 1,22,-1
 695 126 l 1,23,24
 651 75 651 75 596 43 c 1,25,-1
 736 43 l 1,0,-1
492 -129 m 0,26,27
 492 -172 492 -172 456.5 -204 c 128,-1,28
 421 -236 421 -236 367 -236 c 128,-1,29
 313 -236 313 -236 262 -204 c 1,30,-1
 300 -118 l 1,31,32
 322 -137 322 -137 339 -137 c 128,-1,33
 356 -137 356 -137 365.5 -128 c 128,-1,34
 375 -119 375 -119 375 -105.5 c 128,-1,35
 375 -92 375 -92 363 -81.5 c 128,-1,36
 351 -71 351 -71 334.5 -71 c 128,-1,37
 318 -71 318 -71 299 -80 c 1,38,-1
 340 -2 l 1,39,-1
 455 -2 l 1,40,-1
 427 -53 l 1,41,42
 492 -75 492 -75 492 -129 c 0,26,27
EndSplineSet
EndChar

StartChar: Egrave
Encoding: 200 200 127
Width: 654
GlyphClass: 2
Flags: W
LayerCount: 2
Fore
SplineSet
86 43 m 1,0,-1
 86 699 l 1,1,-1
 590 699 l 1,2,-1
 590 560 l 1,3,-1
 242 560 l 1,4,-1
 242 416 l 1,5,-1
 555 416 l 1,6,-1
 555 283 l 1,7,-1
 242 283 l 1,8,-1
 242 138 l 1,9,-1
 601 138 l 1,10,-1
 601 43 l 1,11,-1
 698 43 l 1,12,-1
 698 0 l 1,13,-1
 -11 0 l 1,14,-1
 -11 43 l 1,15,-1
 86 43 l 1,0,-1
404 769 m 1,16,-1
 261 769 l 1,17,-1
 122 881 l 1,18,-1
 276 947 l 1,19,-1
 404 769 l 1,16,-1
EndSplineSet
EndChar

StartChar: Eacute
Encoding: 201 201 128
Width: 654
GlyphClass: 2
Flags: W
LayerCount: 2
Fore
SplineSet
86 43 m 1,0,-1
 86 699 l 1,1,-1
 590 699 l 1,2,-1
 590 560 l 1,3,-1
 242 560 l 1,4,-1
 242 416 l 1,5,-1
 555 416 l 1,6,-1
 555 283 l 1,7,-1
 242 283 l 1,8,-1
 242 138 l 1,9,-1
 601 138 l 1,10,-1
 601 43 l 1,11,-1
 698 43 l 1,12,-1
 698 0 l 1,13,-1
 -11 0 l 1,14,-1
 -11 43 l 1,15,-1
 86 43 l 1,0,-1
395 771 m 1,16,-1
 252 771 l 1,17,-1
 379 948 l 1,18,-1
 534 883 l 1,19,-1
 395 771 l 1,16,-1
EndSplineSet
EndChar

StartChar: Ecircumflex
Encoding: 202 202 129
Width: 654
GlyphClass: 2
Flags: W
LayerCount: 2
Fore
SplineSet
86 43 m 1,0,-1
 86 699 l 1,1,-1
 590 699 l 1,2,-1
 590 560 l 1,3,-1
 242 560 l 1,4,-1
 242 416 l 1,5,-1
 555 416 l 1,6,-1
 555 283 l 1,7,-1
 242 283 l 1,8,-1
 242 138 l 1,9,-1
 601 138 l 1,10,-1
 601 43 l 1,11,-1
 698 43 l 1,12,-1
 698 0 l 1,13,-1
 -11 0 l 1,14,-1
 -11 43 l 1,15,-1
 86 43 l 1,0,-1
239 769 m 1,16,-1
 116 769 l 1,17,-1
 229 927 l 1,18,-1
 416 927 l 1,19,-1
 529 769 l 1,20,-1
 406 769 l 1,21,-1
 322 850 l 1,22,-1
 239 769 l 1,16,-1
EndSplineSet
EndChar

StartChar: Edieresis
Encoding: 203 203 130
Width: 654
GlyphClass: 2
Flags: W
LayerCount: 2
Fore
SplineSet
86 43 m 1,0,-1
 86 699 l 1,1,-1
 590 699 l 1,2,-1
 590 560 l 1,3,-1
 242 560 l 1,4,-1
 242 416 l 1,5,-1
 555 416 l 1,6,-1
 555 283 l 1,7,-1
 242 283 l 1,8,-1
 242 138 l 1,9,-1
 601 138 l 1,10,-1
 601 43 l 1,11,-1
 698 43 l 1,12,-1
 698 0 l 1,13,-1
 -11 0 l 1,14,-1
 -11 43 l 1,15,-1
 86 43 l 1,0,-1
363 847 m 128,-1,17
 363 878 363 878 384.5 899.5 c 128,-1,18
 406 921 406 921 437 921 c 128,-1,19
 468 921 468 921 489.5 899.5 c 128,-1,20
 511 878 511 878 511 847 c 128,-1,21
 511 816 511 816 489.5 794.5 c 128,-1,22
 468 773 468 773 437 773 c 128,-1,23
 406 773 406 773 384.5 794.5 c 128,-1,16
 363 816 363 816 363 847 c 128,-1,17
170 847 m 128,-1,25
 170 878 170 878 191.5 899.5 c 128,-1,26
 213 921 213 921 244 921 c 128,-1,27
 275 921 275 921 296.5 899.5 c 128,-1,28
 318 878 318 878 318 847 c 128,-1,29
 318 816 318 816 296.5 794.5 c 128,-1,30
 275 773 275 773 244 773 c 128,-1,31
 213 773 213 773 191.5 794.5 c 128,-1,24
 170 816 170 816 170 847 c 128,-1,25
EndSplineSet
EndChar

StartChar: Igrave
Encoding: 204 204 131
Width: 328
GlyphClass: 2
Flags: W
LayerCount: 2
Fore
SplineSet
328 43 m 1,0,-1
 328 0 l 1,1,-1
 0 0 l 1,2,-1
 0 43 l 1,3,-1
 86 43 l 1,4,-1
 86 699 l 1,5,-1
 242 699 l 1,6,-1
 242 43 l 1,7,-1
 328 43 l 1,0,-1
245 769 m 1,8,-1
 102 769 l 1,9,-1
 -37 881 l 1,10,-1
 117 947 l 1,11,-1
 245 769 l 1,8,-1
EndSplineSet
EndChar

StartChar: Iacute
Encoding: 205 205 132
Width: 328
GlyphClass: 2
Flags: W
LayerCount: 2
Fore
SplineSet
328 43 m 1,0,-1
 328 0 l 1,1,-1
 0 0 l 1,2,-1
 0 43 l 1,3,-1
 86 43 l 1,4,-1
 86 699 l 1,5,-1
 242 699 l 1,6,-1
 242 43 l 1,7,-1
 328 43 l 1,0,-1
236 771 m 1,8,-1
 93 771 l 1,9,-1
 220 948 l 1,10,-1
 375 883 l 1,11,-1
 236 771 l 1,8,-1
EndSplineSet
EndChar

StartChar: Icircumflex
Encoding: 206 206 133
Width: 328
GlyphClass: 2
Flags: W
LayerCount: 2
Fore
SplineSet
328 43 m 1,0,-1
 328 0 l 1,1,-1
 0 0 l 1,2,-1
 0 43 l 1,3,-1
 86 43 l 1,4,-1
 86 699 l 1,5,-1
 242 699 l 1,6,-1
 242 43 l 1,7,-1
 328 43 l 1,0,-1
81 770 m 1,8,-1
 -42 770 l 1,9,-1
 71 928 l 1,10,-1
 258 928 l 1,11,-1
 371 770 l 1,12,-1
 248 770 l 1,13,-1
 164 851 l 1,14,-1
 81 770 l 1,8,-1
EndSplineSet
EndChar

StartChar: Idieresis
Encoding: 207 207 134
Width: 328
GlyphClass: 2
Flags: W
LayerCount: 2
Fore
SplineSet
328 43 m 1,0,-1
 328 0 l 1,1,-1
 0 0 l 1,2,-1
 0 43 l 1,3,-1
 86 43 l 1,4,-1
 86 699 l 1,5,-1
 242 699 l 1,6,-1
 242 43 l 1,7,-1
 328 43 l 1,0,-1
186 847 m 128,-1,9
 186 878 186 878 207.5 899.5 c 128,-1,10
 229 921 229 921 260 921 c 128,-1,11
 291 921 291 921 312.5 899.5 c 128,-1,12
 334 878 334 878 334 847 c 128,-1,13
 334 816 334 816 312.5 794.5 c 128,-1,14
 291 773 291 773 260 773 c 128,-1,15
 229 773 229 773 207.5 794.5 c 128,-1,8
 186 816 186 816 186 847 c 128,-1,9
-7 847 m 128,-1,17
 -7 878 -7 878 14.5 899.5 c 128,-1,18
 36 921 36 921 67 921 c 128,-1,19
 98 921 98 921 119.5 899.5 c 128,-1,20
 141 878 141 878 141 847 c 128,-1,21
 141 816 141 816 119.5 794.5 c 128,-1,22
 98 773 98 773 67 773 c 128,-1,23
 36 773 36 773 14.5 794.5 c 128,-1,16
 -7 816 -7 816 -7 847 c 128,-1,17
EndSplineSet
EndChar

StartChar: Eth
Encoding: 208 208 135
Width: 784
GlyphClass: 2
Flags: W
LayerCount: 2
Fore
SplineSet
26 280 m 1,0,-1
 26 413 l 1,1,-1
 100 413 l 1,2,-1
 100 699 l 1,3,-1
 347 699 l 2,4,5
 534 699 534 699 634 607.5 c 128,-1,6
 734 516 734 516 734 350 c 0,7,8
 734 126 734 126 560 43 c 1,9,-1
 796 43 l 1,10,-1
 796 0 l 1,11,-1
 3 0 l 1,12,-1
 3 43 l 1,13,-1
 100 43 l 1,14,-1
 100 280 l 1,15,-1
 26 280 l 1,0,-1
519.5 192 m 128,-1,17
 577 246 577 246 577 349 c 128,-1,18
 577 452 577 452 519.5 507.5 c 128,-1,19
 462 563 462 563 343 563 c 2,20,-1
 256 563 l 1,21,-1
 256 413 l 1,22,-1
 490 413 l 1,23,-1
 490 280 l 1,24,-1
 256 280 l 1,25,-1
 256 138 l 1,26,-1
 355 138 l 2,27,16
 462 138 462 138 519.5 192 c 128,-1,17
EndSplineSet
EndChar

StartChar: Ntilde
Encoding: 209 209 136
Width: 817
GlyphClass: 2
Flags: W
LayerCount: 2
Fore
SplineSet
86 43 m 1,0,-1
 86 699 l 1,1,-1
 232 699 l 1,2,-1
 575 249 l 1,3,-1
 575 699 l 1,4,-1
 731 699 l 1,5,-1
 731 43 l 1,6,-1
 828 43 l 1,7,-1
 828 0 l 1,8,-1
 575 0 l 1,9,-1
 242 438 l 1,10,-1
 242 0 l 1,11,-1
 -11 0 l 1,12,-1
 -11 43 l 1,13,-1
 86 43 l 1,0,-1
350 820 m 0,14,15
 319 820 319 820 320 768 c 1,16,-1
 214 768 l 1,17,18
 214 843 214 843 246.5 886 c 128,-1,19
 279 929 279 929 330 929 c 0,20,21
 362 929 362 929 407.5 901.5 c 128,-1,22
 453 874 453 874 463 874 c 0,23,24
 494 874 494 874 493 926 c 1,25,-1
 599 926 l 1,26,27
 599 851 599 851 566.5 808 c 128,-1,28
 534 765 534 765 483 765 c 0,29,30
 452 765 452 765 405 792.5 c 128,-1,31
 358 820 358 820 350 820 c 0,14,15
EndSplineSet
EndChar

StartChar: Ograve
Encoding: 210 210 137
Width: 826
GlyphClass: 2
Flags: W
LayerCount: 2
Fore
SplineSet
826 43 m 1,0,-1
 826 0 l 1,1,-1
 0 0 l 1,2,-1
 0 43 l 1,3,-1
 223 43 l 1,4,5
 141 90 141 90 93.5 172 c 128,-1,6
 46 254 46 254 46 354 c 0,7,8
 46 508 46 508 152 611.5 c 128,-1,9
 258 715 258 715 413 715 c 128,-1,10
 568 715 568 715 674 611.5 c 128,-1,11
 780 508 780 508 780 354 c 0,12,13
 780 254 780 254 732 172 c 128,-1,14
 684 90 684 90 603 43 c 1,15,-1
 826 43 l 1,0,-1
561 513 m 128,-1,17
 501 579 501 579 413.5 579 c 128,-1,18
 326 579 326 579 266 513 c 128,-1,19
 206 447 206 447 206 353.5 c 128,-1,20
 206 260 206 260 266 194.5 c 128,-1,21
 326 129 326 129 413.5 129 c 128,-1,22
 501 129 501 129 561 194.5 c 128,-1,23
 621 260 621 260 621 353.5 c 128,-1,16
 621 447 621 447 561 513 c 128,-1,17
494 769 m 1,24,-1
 351 769 l 1,25,-1
 212 881 l 1,26,-1
 366 947 l 1,27,-1
 494 769 l 1,24,-1
EndSplineSet
EndChar

StartChar: Oacute
Encoding: 211 211 138
Width: 826
GlyphClass: 2
Flags: W
LayerCount: 2
Fore
SplineSet
826 43 m 1,0,-1
 826 0 l 1,1,-1
 0 0 l 1,2,-1
 0 43 l 1,3,-1
 223 43 l 1,4,5
 141 90 141 90 93.5 172 c 128,-1,6
 46 254 46 254 46 354 c 0,7,8
 46 508 46 508 152 611.5 c 128,-1,9
 258 715 258 715 413 715 c 128,-1,10
 568 715 568 715 674 611.5 c 128,-1,11
 780 508 780 508 780 354 c 0,12,13
 780 254 780 254 732 172 c 128,-1,14
 684 90 684 90 603 43 c 1,15,-1
 826 43 l 1,0,-1
561 513 m 128,-1,17
 501 579 501 579 413.5 579 c 128,-1,18
 326 579 326 579 266 513 c 128,-1,19
 206 447 206 447 206 353.5 c 128,-1,20
 206 260 206 260 266 194.5 c 128,-1,21
 326 129 326 129 413.5 129 c 128,-1,22
 501 129 501 129 561 194.5 c 128,-1,23
 621 260 621 260 621 353.5 c 128,-1,16
 621 447 621 447 561 513 c 128,-1,17
485 771 m 1,24,-1
 342 771 l 1,25,-1
 469 948 l 1,26,-1
 624 883 l 1,27,-1
 485 771 l 1,24,-1
EndSplineSet
EndChar

StartChar: Ocircumflex
Encoding: 212 212 139
Width: 826
GlyphClass: 2
Flags: W
LayerCount: 2
Fore
SplineSet
826 43 m 1,0,-1
 826 0 l 1,1,-1
 0 0 l 1,2,-1
 0 43 l 1,3,-1
 223 43 l 1,4,5
 141 90 141 90 93.5 172 c 128,-1,6
 46 254 46 254 46 354 c 0,7,8
 46 508 46 508 152 611.5 c 128,-1,9
 258 715 258 715 413 715 c 128,-1,10
 568 715 568 715 674 611.5 c 128,-1,11
 780 508 780 508 780 354 c 0,12,13
 780 254 780 254 732 172 c 128,-1,14
 684 90 684 90 603 43 c 1,15,-1
 826 43 l 1,0,-1
561 513 m 128,-1,17
 501 579 501 579 413.5 579 c 128,-1,18
 326 579 326 579 266 513 c 128,-1,19
 206 447 206 447 206 353.5 c 128,-1,20
 206 260 206 260 266 194.5 c 128,-1,21
 326 129 326 129 413.5 129 c 128,-1,22
 501 129 501 129 561 194.5 c 128,-1,23
 621 260 621 260 621 353.5 c 128,-1,16
 621 447 621 447 561 513 c 128,-1,17
329 769 m 1,24,-1
 206 769 l 1,25,-1
 319 927 l 1,26,-1
 506 927 l 1,27,-1
 619 769 l 1,28,-1
 496 769 l 1,29,-1
 412 850 l 1,30,-1
 329 769 l 1,24,-1
EndSplineSet
EndChar

StartChar: Otilde
Encoding: 213 213 140
Width: 826
GlyphClass: 2
Flags: W
LayerCount: 2
Fore
SplineSet
826 43 m 1,0,-1
 826 0 l 1,1,-1
 0 0 l 1,2,-1
 0 43 l 1,3,-1
 223 43 l 1,4,5
 141 90 141 90 93.5 172 c 128,-1,6
 46 254 46 254 46 354 c 0,7,8
 46 508 46 508 152 611.5 c 128,-1,9
 258 715 258 715 413 715 c 128,-1,10
 568 715 568 715 674 611.5 c 128,-1,11
 780 508 780 508 780 354 c 0,12,13
 780 254 780 254 732 172 c 128,-1,14
 684 90 684 90 603 43 c 1,15,-1
 826 43 l 1,0,-1
561 513 m 128,-1,17
 501 579 501 579 413.5 579 c 128,-1,18
 326 579 326 579 266 513 c 128,-1,19
 206 447 206 447 206 353.5 c 128,-1,20
 206 260 206 260 266 194.5 c 128,-1,21
 326 129 326 129 413.5 129 c 128,-1,22
 501 129 501 129 561 194.5 c 128,-1,23
 621 260 621 260 621 353.5 c 128,-1,16
 621 447 621 447 561 513 c 128,-1,17
355 820 m 0,24,25
 324 820 324 820 325 768 c 1,26,-1
 219 768 l 1,27,28
 219 843 219 843 251.5 886 c 128,-1,29
 284 929 284 929 335 929 c 0,30,31
 367 929 367 929 412.5 901.5 c 128,-1,32
 458 874 458 874 468 874 c 0,33,34
 499 874 499 874 498 926 c 1,35,-1
 604 926 l 1,36,37
 604 851 604 851 571.5 808 c 128,-1,38
 539 765 539 765 488 765 c 0,39,40
 457 765 457 765 410 792.5 c 128,-1,41
 363 820 363 820 355 820 c 0,24,25
EndSplineSet
EndChar

StartChar: Odieresis
Encoding: 214 214 141
Width: 826
GlyphClass: 2
Flags: W
LayerCount: 2
Fore
SplineSet
826 43 m 1,0,-1
 826 0 l 1,1,-1
 0 0 l 1,2,-1
 0 43 l 1,3,-1
 223 43 l 1,4,5
 141 90 141 90 93.5 172 c 128,-1,6
 46 254 46 254 46 354 c 0,7,8
 46 508 46 508 152 611.5 c 128,-1,9
 258 715 258 715 413 715 c 128,-1,10
 568 715 568 715 674 611.5 c 128,-1,11
 780 508 780 508 780 354 c 0,12,13
 780 254 780 254 732 172 c 128,-1,14
 684 90 684 90 603 43 c 1,15,-1
 826 43 l 1,0,-1
561 513 m 128,-1,17
 501 579 501 579 413.5 579 c 128,-1,18
 326 579 326 579 266 513 c 128,-1,19
 206 447 206 447 206 353.5 c 128,-1,20
 206 260 206 260 266 194.5 c 128,-1,21
 326 129 326 129 413.5 129 c 128,-1,22
 501 129 501 129 561 194.5 c 128,-1,23
 621 260 621 260 621 353.5 c 128,-1,16
 621 447 621 447 561 513 c 128,-1,17
241 847 m 128,-1,25
 241 878 241 878 262.5 899.5 c 128,-1,26
 284 921 284 921 315 921 c 128,-1,27
 346 921 346 921 367.5 899.5 c 128,-1,28
 389 878 389 878 389 847 c 128,-1,29
 389 816 389 816 367.5 794.5 c 128,-1,30
 346 773 346 773 315 773 c 128,-1,31
 284 773 284 773 262.5 794.5 c 128,-1,24
 241 816 241 816 241 847 c 128,-1,25
434 847 m 128,-1,33
 434 878 434 878 455.5 899.5 c 128,-1,34
 477 921 477 921 508 921 c 128,-1,35
 539 921 539 921 560.5 899.5 c 128,-1,36
 582 878 582 878 582 847 c 128,-1,37
 582 816 582 816 560.5 794.5 c 128,-1,38
 539 773 539 773 508 773 c 128,-1,39
 477 773 477 773 455.5 794.5 c 128,-1,32
 434 816 434 816 434 847 c 128,-1,33
EndSplineSet
EndChar

StartChar: multiply
Encoding: 215 215 142
Width: 589
GlyphClass: 2
Flags: W
LayerCount: 2
Fore
SplineSet
589 43 m 1,0,-1
 589 0 l 1,1,-1
 0 0 l 1,2,-1
 0 43 l 1,3,-1
 271 43 l 1,4,-1
 271 250 l 1,5,-1
 136 112 l 1,6,-1
 48 201 l 1,7,-1
 208 364 l 1,8,-1
 49 525 l 1,9,-1
 137 614 l 1,10,-1
 295 451 l 1,11,-1
 454 614 l 1,12,-1
 540 525 l 1,13,-1
 383 364 l 1,14,-1
 541 201 l 1,15,-1
 455 112 l 1,16,-1
 318 251 l 1,17,-1
 318 43 l 1,18,-1
 589 43 l 1,0,-1
EndSplineSet
EndChar

StartChar: Oslash
Encoding: 216 216 143
Width: 826
GlyphClass: 2
Flags: W
LayerCount: 2
Fore
SplineSet
826 43 m 1,0,-1
 826 0 l 1,1,-1
 333 0 l 1,2,-1
 282 -112 l 1,3,-1
 141 -112 l 1,4,-1
 192 0 l 1,5,-1
 0 0 l 1,6,-1
 0 43 l 1,7,-1
 211 43 l 1,8,-1
 214 48 l 1,9,10
 136 96 136 96 91 176.5 c 128,-1,11
 46 257 46 257 46 354 c 0,12,13
 46 508 46 508 152 611.5 c 128,-1,14
 258 715 258 715 413 715 c 0,15,16
 461 715 461 715 513 702 c 1,17,-1
 560 805 l 1,18,-1
 702 805 l 1,19,-1
 630 648 l 1,20,21
 700 599 700 599 740 522 c 128,-1,22
 780 445 780 445 780 349.5 c 128,-1,23
 780 254 780 254 732 172.5 c 128,-1,24
 684 91 684 91 603 43 c 1,25,-1
 826 43 l 1,0,-1
413 579 m 0,26,27
 326 579 326 579 266 513 c 128,-1,28
 206 447 206 447 206 348 c 128,-1,29
 206 249 206 249 276 184 c 1,30,-1
 455 574 l 1,31,32
 432 579 432 579 413 579 c 0,26,27
561 194.5 m 128,-1,34
 621 260 621 260 621 351 c 128,-1,35
 621 442 621 442 565 508 c 1,36,-1
 393 130 l 1,37,38
 399 129 399 129 413 129 c 0,39,33
 501 129 501 129 561 194.5 c 128,-1,34
EndSplineSet
EndChar

StartChar: Ugrave
Encoding: 217 217 144
Width: 751
GlyphClass: 2
Flags: W
LayerCount: 2
Fore
SplineSet
751 43 m 1,0,-1
 751 0 l 1,1,-1
 0 0 l 1,2,-1
 0 43 l 1,3,-1
 199 43 l 1,4,5
 76 125 76 125 76 308 c 2,6,-1
 76 699 l 1,7,-1
 232 699 l 1,8,-1
 232 313 l 2,9,10
 232 229 232 229 271 180.5 c 128,-1,11
 310 132 310 132 376 132 c 128,-1,12
 442 132 442 132 480.5 180.5 c 128,-1,13
 519 229 519 229 519 313 c 2,14,-1
 519 699 l 1,15,-1
 675 699 l 1,16,-1
 675 308 l 2,17,18
 675 125 675 125 553 43 c 1,19,-1
 751 43 l 1,0,-1
455 769 m 1,20,-1
 312 769 l 1,21,-1
 173 881 l 1,22,-1
 327 947 l 1,23,-1
 455 769 l 1,20,-1
EndSplineSet
EndChar

StartChar: Uacute
Encoding: 218 218 145
Width: 751
GlyphClass: 2
Flags: W
LayerCount: 2
Fore
SplineSet
751 43 m 1,0,-1
 751 0 l 1,1,-1
 0 0 l 1,2,-1
 0 43 l 1,3,-1
 199 43 l 1,4,5
 76 125 76 125 76 308 c 2,6,-1
 76 699 l 1,7,-1
 232 699 l 1,8,-1
 232 313 l 2,9,10
 232 229 232 229 271 180.5 c 128,-1,11
 310 132 310 132 376 132 c 128,-1,12
 442 132 442 132 480.5 180.5 c 128,-1,13
 519 229 519 229 519 313 c 2,14,-1
 519 699 l 1,15,-1
 675 699 l 1,16,-1
 675 308 l 2,17,18
 675 125 675 125 553 43 c 1,19,-1
 751 43 l 1,0,-1
447 771 m 1,20,-1
 304 771 l 1,21,-1
 431 948 l 1,22,-1
 586 883 l 1,23,-1
 447 771 l 1,20,-1
EndSplineSet
EndChar

StartChar: Ucircumflex
Encoding: 219 219 146
Width: 751
GlyphClass: 2
Flags: W
LayerCount: 2
Fore
SplineSet
751 43 m 1,0,-1
 751 0 l 1,1,-1
 0 0 l 1,2,-1
 0 43 l 1,3,-1
 199 43 l 1,4,5
 76 125 76 125 76 308 c 2,6,-1
 76 699 l 1,7,-1
 232 699 l 1,8,-1
 232 313 l 2,9,10
 232 229 232 229 271 180.5 c 128,-1,11
 310 132 310 132 376 132 c 128,-1,12
 442 132 442 132 480.5 180.5 c 128,-1,13
 519 229 519 229 519 313 c 2,14,-1
 519 699 l 1,15,-1
 675 699 l 1,16,-1
 675 308 l 2,17,18
 675 125 675 125 553 43 c 1,19,-1
 751 43 l 1,0,-1
291 769 m 1,20,-1
 168 769 l 1,21,-1
 281 927 l 1,22,-1
 468 927 l 1,23,-1
 581 769 l 1,24,-1
 458 769 l 1,25,-1
 374 850 l 1,26,-1
 291 769 l 1,20,-1
EndSplineSet
EndChar

StartChar: Udieresis
Encoding: 220 220 147
Width: 751
GlyphClass: 2
Flags: W
LayerCount: 2
Fore
SplineSet
751 43 m 1,0,-1
 751 0 l 1,1,-1
 0 0 l 1,2,-1
 0 43 l 1,3,-1
 199 43 l 1,4,5
 76 125 76 125 76 308 c 2,6,-1
 76 699 l 1,7,-1
 232 699 l 1,8,-1
 232 313 l 2,9,10
 232 229 232 229 271 180.5 c 128,-1,11
 310 132 310 132 376 132 c 128,-1,12
 442 132 442 132 480.5 180.5 c 128,-1,13
 519 229 519 229 519 313 c 2,14,-1
 519 699 l 1,15,-1
 675 699 l 1,16,-1
 675 308 l 2,17,18
 675 125 675 125 553 43 c 1,19,-1
 751 43 l 1,0,-1
397 847 m 128,-1,21
 397 878 397 878 418.5 899.5 c 128,-1,22
 440 921 440 921 471 921 c 128,-1,23
 502 921 502 921 523.5 899.5 c 128,-1,24
 545 878 545 878 545 847 c 128,-1,25
 545 816 545 816 523.5 794.5 c 128,-1,26
 502 773 502 773 471 773 c 128,-1,27
 440 773 440 773 418.5 794.5 c 128,-1,20
 397 816 397 816 397 847 c 128,-1,21
204 847 m 128,-1,29
 204 878 204 878 225.5 899.5 c 128,-1,30
 247 921 247 921 278 921 c 128,-1,31
 309 921 309 921 330.5 899.5 c 128,-1,32
 352 878 352 878 352 847 c 128,-1,33
 352 816 352 816 330.5 794.5 c 128,-1,34
 309 773 309 773 278 773 c 128,-1,35
 247 773 247 773 225.5 794.5 c 128,-1,28
 204 816 204 816 204 847 c 128,-1,29
EndSplineSet
EndChar

StartChar: Yacute
Encoding: 221 221 148
Width: 618
GlyphClass: 2
Flags: W
LayerCount: 2
Fore
SplineSet
618 43 m 1,0,-1
 618 0 l 1,1,-1
 0 0 l 1,2,-1
 0 43 l 1,3,-1
 231 43 l 1,4,-1
 231 276 l 1,5,-1
 -11 699 l 1,6,-1
 158 699 l 1,7,-1
 309 439 l 1,8,-1
 460 699 l 1,9,-1
 629 699 l 1,10,-1
 387 276 l 1,11,-1
 387 43 l 1,12,-1
 618 43 l 1,0,-1
361 771 m 1,13,-1
 218 771 l 1,14,-1
 345 948 l 1,15,-1
 500 883 l 1,16,-1
 361 771 l 1,13,-1
EndSplineSet
EndChar

StartChar: Thorn
Encoding: 222 222 149
Width: 685
GlyphClass: 2
Flags: W
LayerCount: 2
Fore
SplineSet
785 43 m 1,0,-1
 785 0 l 1,1,-1
 -100 0 l 1,2,-1
 -100 43 l 1,3,-1
 86 43 l 1,4,-1
 86 699 l 1,5,-1
 242 699 l 1,6,-1
 242 615 l 1,7,-1
 323 615 l 2,8,9
 641 615 641 615 641 368 c 0,10,11
 641 232 641 232 561.5 171.5 c 128,-1,12
 482 111 482 111 325 111 c 2,13,-1
 242 111 l 1,14,-1
 242 43 l 1,15,-1
 785 43 l 1,0,-1
449 278.5 m 128,-1,17
 481 311 481 311 481 370.5 c 128,-1,18
 481 430 481 430 441 455 c 128,-1,19
 401 480 401 480 321 480 c 2,20,-1
 242 480 l 1,21,-1
 242 246 l 1,22,-1
 337 246 l 2,23,16
 417 246 417 246 449 278.5 c 128,-1,17
EndSplineSet
EndChar

StartChar: germandbls
Encoding: 223 223 150
Width: 647
GlyphClass: 2
Flags: W
LayerCount: 2
Fore
SplineSet
-38 0 m 1,0,-1
 -38 43 l 1,1,-1
 70 43 l 1,2,-1
 70 450 l 2,3,4
 70 548 70 548 90 604 c 0,5,6
 98 629 98 629 117 660 c 128,-1,7
 136 691 136 691 162 710 c 1,8,9
 222 757 222 757 321 757 c 0,10,11
 378 757 378 757 422.5 742.5 c 128,-1,12
 467 728 467 728 493 706.5 c 128,-1,13
 519 685 519 685 536 656 c 0,14,15
 564 605 564 605 564 547 c 0,16,17
 564 454 564 454 487 391 c 1,18,19
 546 372 546 372 575.5 322.5 c 128,-1,20
 605 273 605 273 605 212 c 0,21,22
 605 99 605 99 517 43 c 1,23,-1
 647 43 l 1,24,-1
 647 0 l 1,25,-1
 -38 0 l 1,0,-1
378.5 465.5 m 128,-1,27
 411 496 411 496 411 533.5 c 128,-1,28
 411 571 411 571 392 597.5 c 128,-1,29
 373 624 373 624 332 624 c 0,30,31
 274 624 274 624 250 583 c 128,-1,32
 226 542 226 542 226 463 c 2,33,-1
 226 43 l 1,34,-1
 282 43 l 1,35,-1
 282 126 l 1,36,-1
 326 126 l 2,37,38
 449 126 449 126 449 212 c 0,39,40
 449 307 449 307 334 307 c 0,41,42
 313 307 313 307 279 304 c 1,43,-1
 279 425 l 1,44,26
 346 435 346 435 378.5 465.5 c 128,-1,27
EndSplineSet
EndChar

StartChar: agrave
Encoding: 224 224 151
Width: 745
GlyphClass: 2
Flags: W
LayerCount: 2
Fore
SplineSet
847 43 m 1,0,-1
 847 0 l 1,1,-1
 584 0 l 1,2,-1
 519 151 l 1,3,-1
 226 151 l 1,4,-1
 161 0 l 1,5,-1
 -102 0 l 1,6,-1
 -102 43 l 1,7,-1
 13 43 l 1,8,-1
 297 699 l 1,9,-1
 448 699 l 1,10,-1
 731 43 l 1,11,-1
 847 43 l 1,0,-1
448 769 m 1,12,-1
 305 769 l 1,13,-1
 166 881 l 1,14,-1
 320 947 l 1,15,-1
 448 769 l 1,12,-1
373 491 m 1,16,-1
 285 288 l 1,17,-1
 460 288 l 1,18,-1
 373 491 l 1,16,-1
EndSplineSet
EndChar

StartChar: aacute
Encoding: 225 225 152
Width: 745
GlyphClass: 2
Flags: W
LayerCount: 2
Fore
SplineSet
847 43 m 1,0,-1
 847 0 l 1,1,-1
 584 0 l 1,2,-1
 519 151 l 1,3,-1
 226 151 l 1,4,-1
 161 0 l 1,5,-1
 -102 0 l 1,6,-1
 -102 43 l 1,7,-1
 13 43 l 1,8,-1
 297 699 l 1,9,-1
 448 699 l 1,10,-1
 731 43 l 1,11,-1
 847 43 l 1,0,-1
439 771 m 1,12,-1
 296 771 l 1,13,-1
 423 948 l 1,14,-1
 578 883 l 1,15,-1
 439 771 l 1,12,-1
373 491 m 1,16,-1
 285 288 l 1,17,-1
 460 288 l 1,18,-1
 373 491 l 1,16,-1
EndSplineSet
EndChar

StartChar: acircumflex
Encoding: 226 226 153
Width: 745
GlyphClass: 2
Flags: W
LayerCount: 2
Fore
SplineSet
847 43 m 1,0,-1
 847 0 l 1,1,-1
 584 0 l 1,2,-1
 519 151 l 1,3,-1
 226 151 l 1,4,-1
 161 0 l 1,5,-1
 -102 0 l 1,6,-1
 -102 43 l 1,7,-1
 13 43 l 1,8,-1
 297 699 l 1,9,-1
 448 699 l 1,10,-1
 731 43 l 1,11,-1
 847 43 l 1,0,-1
283 769 m 1,12,-1
 160 769 l 1,13,-1
 273 927 l 1,14,-1
 460 927 l 1,15,-1
 573 769 l 1,16,-1
 450 769 l 1,17,-1
 366 850 l 1,18,-1
 283 769 l 1,12,-1
373 491 m 1,19,-1
 285 288 l 1,20,-1
 460 288 l 1,21,-1
 373 491 l 1,19,-1
EndSplineSet
EndChar

StartChar: atilde
Encoding: 227 227 154
Width: 745
GlyphClass: 2
Flags: W
LayerCount: 2
Fore
SplineSet
847 43 m 1,0,-1
 847 0 l 1,1,-1
 584 0 l 1,2,-1
 519 151 l 1,3,-1
 226 151 l 1,4,-1
 161 0 l 1,5,-1
 -102 0 l 1,6,-1
 -102 43 l 1,7,-1
 13 43 l 1,8,-1
 297 699 l 1,9,-1
 448 699 l 1,10,-1
 731 43 l 1,11,-1
 847 43 l 1,0,-1
309 821 m 0,12,13
 278 821 278 821 279 769 c 1,14,-1
 173 769 l 1,15,16
 173 844 173 844 205.5 887 c 128,-1,17
 238 930 238 930 289 930 c 0,18,19
 321 930 321 930 366.5 902.5 c 128,-1,20
 412 875 412 875 422 875 c 0,21,22
 453 875 453 875 452 927 c 1,23,-1
 558 927 l 1,24,25
 558 852 558 852 525.5 809 c 128,-1,26
 493 766 493 766 442 766 c 0,27,28
 411 766 411 766 364 793.5 c 128,-1,29
 317 821 317 821 309 821 c 0,12,13
373 491 m 1,30,-1
 285 288 l 1,31,-1
 460 288 l 1,32,-1
 373 491 l 1,30,-1
EndSplineSet
EndChar

StartChar: adieresis
Encoding: 228 228 155
Width: 745
GlyphClass: 2
Flags: W
LayerCount: 2
Fore
SplineSet
847 43 m 1,0,-1
 847 0 l 1,1,-1
 584 0 l 1,2,-1
 519 151 l 1,3,-1
 226 151 l 1,4,-1
 161 0 l 1,5,-1
 -102 0 l 1,6,-1
 -102 43 l 1,7,-1
 13 43 l 1,8,-1
 297 699 l 1,9,-1
 448 699 l 1,10,-1
 731 43 l 1,11,-1
 847 43 l 1,0,-1
373 491 m 1,12,-1
 285 288 l 1,13,-1
 460 288 l 1,14,-1
 373 491 l 1,12,-1
205 847 m 128,-1,16
 205 878 205 878 226.5 899.5 c 128,-1,17
 248 921 248 921 279 921 c 128,-1,18
 310 921 310 921 331.5 899.5 c 128,-1,19
 353 878 353 878 353 847 c 128,-1,20
 353 816 353 816 331.5 794.5 c 128,-1,21
 310 773 310 773 279 773 c 128,-1,22
 248 773 248 773 226.5 794.5 c 128,-1,15
 205 816 205 816 205 847 c 128,-1,16
398 847 m 128,-1,24
 398 878 398 878 419.5 899.5 c 128,-1,25
 441 921 441 921 472 921 c 128,-1,26
 503 921 503 921 524.5 899.5 c 128,-1,27
 546 878 546 878 546 847 c 128,-1,28
 546 816 546 816 524.5 794.5 c 128,-1,29
 503 773 503 773 472 773 c 128,-1,30
 441 773 441 773 419.5 794.5 c 128,-1,23
 398 816 398 816 398 847 c 128,-1,24
EndSplineSet
EndChar

StartChar: aring
Encoding: 229 229 156
Width: 745
GlyphClass: 2
Flags: W
LayerCount: 2
Fore
SplineSet
-102 0 m 1,0,-1
 -102 43 l 1,1,-1
 13 43 l 1,2,-1
 296 698 l 1,3,4
 266 730 266 730 266 773.5 c 128,-1,5
 266 817 266 817 297.5 848.5 c 128,-1,6
 329 880 329 880 373 880 c 128,-1,7
 417 880 417 880 448.5 848.5 c 128,-1,8
 480 817 480 817 480 773 c 128,-1,9
 480 729 480 729 448 697 c 1,10,-1
 731 43 l 1,11,-1
 847 43 l 1,12,-1
 847 0 l 1,13,-1
 584 0 l 1,14,-1
 519 151 l 1,15,-1
 226 151 l 1,16,-1
 161 0 l 1,17,-1
 -102 0 l 1,0,-1
373 491 m 1,18,-1
 285 288 l 1,19,-1
 460 288 l 1,20,-1
 373 491 l 1,18,-1
338 773 m 128,-1,22
 338 759 338 759 348.5 748.5 c 128,-1,23
 359 738 359 738 373 738 c 128,-1,24
 387 738 387 738 397.5 748.5 c 128,-1,25
 408 759 408 759 408 773 c 128,-1,26
 408 787 408 787 397.5 797.5 c 128,-1,27
 387 808 387 808 373 808 c 128,-1,28
 359 808 359 808 348.5 797.5 c 128,-1,21
 338 787 338 787 338 773 c 128,-1,22
EndSplineSet
EndChar

StartChar: ae
Encoding: 230 230 157
Width: 1023
GlyphClass: 2
Flags: W
LayerCount: 2
Fore
SplineSet
1068 43 m 1,0,-1
 1068 0 l 1,1,-1
 445 0 l 1,2,-1
 445 151 l 1,3,-1
 247 151 l 1,4,-1
 168 0 l 1,5,-1
 -102 0 l 1,6,-1
 -102 43 l 1,7,-1
 6 43 l 1,8,-1
 343 699 l 1,9,-1
 960 699 l 1,10,-1
 960 562 l 1,11,-1
 611 562 l 1,12,-1
 611 411 l 1,13,-1
 924 411 l 1,14,-1
 924 280 l 1,15,-1
 611 280 l 1,16,-1
 611 137 l 1,17,-1
 971 137 l 1,18,-1
 971 43 l 1,19,-1
 1068 43 l 1,0,-1
445 292 m 1,20,-1
 445 538 l 1,21,-1
 318 292 l 1,22,-1
 445 292 l 1,20,-1
EndSplineSet
EndChar

StartChar: ccedilla
Encoding: 231 231 158
Width: 732
GlyphClass: 2
Flags: W
LayerCount: 2
Fore
SplineSet
736 43 m 1,0,-1
 736 0 l 1,1,-1
 0 0 l 1,2,-1
 0 43 l 1,3,-1
 215 43 l 1,4,5
 135 90 135 90 89.5 170.5 c 128,-1,6
 44 251 44 251 44 353 c 0,7,8
 44 507 44 507 150.5 611 c 128,-1,9
 257 715 257 715 411 715 c 0,10,11
 583 715 583 715 699 584 c 1,12,-1
 602 474 l 1,13,14
 528 566 528 566 418 566 c 0,15,16
 330 566 330 566 267.5 508.5 c 128,-1,17
 205 451 205 451 205 353.5 c 128,-1,18
 205 256 205 256 264 197 c 128,-1,19
 323 138 323 138 407 138 c 0,20,21
 522 138 522 138 595 229 c 1,22,-1
 695 126 l 1,23,24
 651 75 651 75 596 43 c 1,25,-1
 736 43 l 1,0,-1
492 -129 m 0,26,27
 492 -172 492 -172 456.5 -204 c 128,-1,28
 421 -236 421 -236 367 -236 c 128,-1,29
 313 -236 313 -236 262 -204 c 1,30,-1
 300 -118 l 1,31,32
 322 -137 322 -137 339 -137 c 128,-1,33
 356 -137 356 -137 365.5 -128 c 128,-1,34
 375 -119 375 -119 375 -105.5 c 128,-1,35
 375 -92 375 -92 363 -81.5 c 128,-1,36
 351 -71 351 -71 334.5 -71 c 128,-1,37
 318 -71 318 -71 299 -80 c 1,38,-1
 340 -2 l 1,39,-1
 455 -2 l 1,40,-1
 427 -53 l 1,41,42
 492 -75 492 -75 492 -129 c 0,26,27
EndSplineSet
EndChar

StartChar: egrave
Encoding: 232 232 159
Width: 654
GlyphClass: 2
Flags: W
LayerCount: 2
Fore
SplineSet
86 43 m 1,0,-1
 86 699 l 1,1,-1
 590 699 l 1,2,-1
 590 560 l 1,3,-1
 242 560 l 1,4,-1
 242 416 l 1,5,-1
 555 416 l 1,6,-1
 555 283 l 1,7,-1
 242 283 l 1,8,-1
 242 138 l 1,9,-1
 601 138 l 1,10,-1
 601 43 l 1,11,-1
 698 43 l 1,12,-1
 698 0 l 1,13,-1
 -11 0 l 1,14,-1
 -11 43 l 1,15,-1
 86 43 l 1,0,-1
404 769 m 1,16,-1
 261 769 l 1,17,-1
 122 881 l 1,18,-1
 276 947 l 1,19,-1
 404 769 l 1,16,-1
EndSplineSet
EndChar

StartChar: eacute
Encoding: 233 233 160
Width: 654
GlyphClass: 2
Flags: W
LayerCount: 2
Fore
SplineSet
86 43 m 1,0,-1
 86 699 l 1,1,-1
 590 699 l 1,2,-1
 590 560 l 1,3,-1
 242 560 l 1,4,-1
 242 416 l 1,5,-1
 555 416 l 1,6,-1
 555 283 l 1,7,-1
 242 283 l 1,8,-1
 242 138 l 1,9,-1
 601 138 l 1,10,-1
 601 43 l 1,11,-1
 698 43 l 1,12,-1
 698 0 l 1,13,-1
 -11 0 l 1,14,-1
 -11 43 l 1,15,-1
 86 43 l 1,0,-1
395 771 m 1,16,-1
 252 771 l 1,17,-1
 379 948 l 1,18,-1
 534 883 l 1,19,-1
 395 771 l 1,16,-1
EndSplineSet
EndChar

StartChar: ecircumflex
Encoding: 234 234 161
Width: 654
GlyphClass: 2
Flags: W
LayerCount: 2
Fore
SplineSet
86 43 m 1,0,-1
 86 699 l 1,1,-1
 590 699 l 1,2,-1
 590 560 l 1,3,-1
 242 560 l 1,4,-1
 242 416 l 1,5,-1
 555 416 l 1,6,-1
 555 283 l 1,7,-1
 242 283 l 1,8,-1
 242 138 l 1,9,-1
 601 138 l 1,10,-1
 601 43 l 1,11,-1
 698 43 l 1,12,-1
 698 0 l 1,13,-1
 -11 0 l 1,14,-1
 -11 43 l 1,15,-1
 86 43 l 1,0,-1
239 769 m 1,16,-1
 116 769 l 1,17,-1
 229 927 l 1,18,-1
 416 927 l 1,19,-1
 529 769 l 1,20,-1
 406 769 l 1,21,-1
 322 850 l 1,22,-1
 239 769 l 1,16,-1
EndSplineSet
EndChar

StartChar: edieresis
Encoding: 235 235 162
Width: 654
GlyphClass: 2
Flags: W
LayerCount: 2
Fore
SplineSet
86 43 m 1,0,-1
 86 699 l 1,1,-1
 590 699 l 1,2,-1
 590 560 l 1,3,-1
 242 560 l 1,4,-1
 242 416 l 1,5,-1
 555 416 l 1,6,-1
 555 283 l 1,7,-1
 242 283 l 1,8,-1
 242 138 l 1,9,-1
 601 138 l 1,10,-1
 601 43 l 1,11,-1
 698 43 l 1,12,-1
 698 0 l 1,13,-1
 -11 0 l 1,14,-1
 -11 43 l 1,15,-1
 86 43 l 1,0,-1
170 847 m 128,-1,17
 170 878 170 878 191.5 899.5 c 128,-1,18
 213 921 213 921 244 921 c 128,-1,19
 275 921 275 921 296.5 899.5 c 128,-1,20
 318 878 318 878 318 847 c 128,-1,21
 318 816 318 816 296.5 794.5 c 128,-1,22
 275 773 275 773 244 773 c 128,-1,23
 213 773 213 773 191.5 794.5 c 128,-1,16
 170 816 170 816 170 847 c 128,-1,17
363 847 m 128,-1,25
 363 878 363 878 384.5 899.5 c 128,-1,26
 406 921 406 921 437 921 c 128,-1,27
 468 921 468 921 489.5 899.5 c 128,-1,28
 511 878 511 878 511 847 c 128,-1,29
 511 816 511 816 489.5 794.5 c 128,-1,30
 468 773 468 773 437 773 c 128,-1,31
 406 773 406 773 384.5 794.5 c 128,-1,24
 363 816 363 816 363 847 c 128,-1,25
EndSplineSet
EndChar

StartChar: igrave
Encoding: 236 236 163
Width: 328
GlyphClass: 2
Flags: W
LayerCount: 2
Fore
SplineSet
328 43 m 1,0,-1
 328 0 l 1,1,-1
 0 0 l 1,2,-1
 0 43 l 1,3,-1
 86 43 l 1,4,-1
 86 699 l 1,5,-1
 242 699 l 1,6,-1
 242 43 l 1,7,-1
 328 43 l 1,0,-1
245 769 m 1,8,-1
 102 769 l 1,9,-1
 -37 881 l 1,10,-1
 117 947 l 1,11,-1
 245 769 l 1,8,-1
EndSplineSet
EndChar

StartChar: iacute
Encoding: 237 237 164
Width: 328
GlyphClass: 2
Flags: W
LayerCount: 2
Fore
SplineSet
328 43 m 1,0,-1
 328 0 l 1,1,-1
 0 0 l 1,2,-1
 0 43 l 1,3,-1
 86 43 l 1,4,-1
 86 699 l 1,5,-1
 242 699 l 1,6,-1
 242 43 l 1,7,-1
 328 43 l 1,0,-1
236 771 m 1,8,-1
 93 771 l 1,9,-1
 220 948 l 1,10,-1
 375 883 l 1,11,-1
 236 771 l 1,8,-1
EndSplineSet
EndChar

StartChar: icircumflex
Encoding: 238 238 165
Width: 328
GlyphClass: 2
Flags: W
LayerCount: 2
Fore
SplineSet
328 43 m 1,0,-1
 328 0 l 1,1,-1
 0 0 l 1,2,-1
 0 43 l 1,3,-1
 86 43 l 1,4,-1
 86 699 l 1,5,-1
 242 699 l 1,6,-1
 242 43 l 1,7,-1
 328 43 l 1,0,-1
81 770 m 1,8,-1
 -42 770 l 1,9,-1
 71 928 l 1,10,-1
 258 928 l 1,11,-1
 371 770 l 1,12,-1
 248 770 l 1,13,-1
 164 851 l 1,14,-1
 81 770 l 1,8,-1
EndSplineSet
EndChar

StartChar: idieresis
Encoding: 239 239 166
Width: 328
GlyphClass: 2
Flags: W
LayerCount: 2
Fore
SplineSet
328 43 m 1,0,-1
 328 0 l 1,1,-1
 0 0 l 1,2,-1
 0 43 l 1,3,-1
 86 43 l 1,4,-1
 86 699 l 1,5,-1
 242 699 l 1,6,-1
 242 43 l 1,7,-1
 328 43 l 1,0,-1
186 847 m 128,-1,9
 186 878 186 878 207.5 899.5 c 128,-1,10
 229 921 229 921 260 921 c 128,-1,11
 291 921 291 921 312.5 899.5 c 128,-1,12
 334 878 334 878 334 847 c 128,-1,13
 334 816 334 816 312.5 794.5 c 128,-1,14
 291 773 291 773 260 773 c 128,-1,15
 229 773 229 773 207.5 794.5 c 128,-1,8
 186 816 186 816 186 847 c 128,-1,9
-7 847 m 128,-1,17
 -7 878 -7 878 14.5 899.5 c 128,-1,18
 36 921 36 921 67 921 c 128,-1,19
 98 921 98 921 119.5 899.5 c 128,-1,20
 141 878 141 878 141 847 c 128,-1,21
 141 816 141 816 119.5 794.5 c 128,-1,22
 98 773 98 773 67 773 c 128,-1,23
 36 773 36 773 14.5 794.5 c 128,-1,16
 -7 816 -7 816 -7 847 c 128,-1,17
EndSplineSet
EndChar

StartChar: eth
Encoding: 240 240 167
Width: 784
GlyphClass: 2
Flags: W
LayerCount: 2
Fore
SplineSet
26 280 m 1,0,-1
 26 413 l 1,1,-1
 100 413 l 1,2,-1
 100 699 l 1,3,-1
 347 699 l 2,4,5
 534 699 534 699 634 607.5 c 128,-1,6
 734 516 734 516 734 350 c 0,7,8
 734 126 734 126 560 43 c 1,9,-1
 796 43 l 1,10,-1
 796 0 l 1,11,-1
 3 0 l 1,12,-1
 3 43 l 1,13,-1
 100 43 l 1,14,-1
 100 280 l 1,15,-1
 26 280 l 1,0,-1
519.5 192 m 128,-1,17
 577 246 577 246 577 349 c 128,-1,18
 577 452 577 452 519.5 507.5 c 128,-1,19
 462 563 462 563 343 563 c 2,20,-1
 256 563 l 1,21,-1
 256 413 l 1,22,-1
 490 413 l 1,23,-1
 490 280 l 1,24,-1
 256 280 l 1,25,-1
 256 138 l 1,26,-1
 355 138 l 2,27,16
 462 138 462 138 519.5 192 c 128,-1,17
EndSplineSet
EndChar

StartChar: ntilde
Encoding: 241 241 168
Width: 817
GlyphClass: 2
Flags: W
LayerCount: 2
Fore
SplineSet
86 43 m 1,0,-1
 86 699 l 1,1,-1
 232 699 l 1,2,-1
 575 249 l 1,3,-1
 575 699 l 1,4,-1
 731 699 l 1,5,-1
 731 43 l 1,6,-1
 828 43 l 1,7,-1
 828 0 l 1,8,-1
 575 0 l 1,9,-1
 242 438 l 1,10,-1
 242 0 l 1,11,-1
 -11 0 l 1,12,-1
 -11 43 l 1,13,-1
 86 43 l 1,0,-1
350 820 m 0,14,15
 319 820 319 820 320 768 c 1,16,-1
 214 768 l 1,17,18
 214 843 214 843 246.5 886 c 128,-1,19
 279 929 279 929 330 929 c 0,20,21
 362 929 362 929 407.5 901.5 c 128,-1,22
 453 874 453 874 463 874 c 0,23,24
 494 874 494 874 493 926 c 1,25,-1
 599 926 l 1,26,27
 599 851 599 851 566.5 808 c 128,-1,28
 534 765 534 765 483 765 c 0,29,30
 452 765 452 765 405 792.5 c 128,-1,31
 358 820 358 820 350 820 c 0,14,15
EndSplineSet
EndChar

StartChar: ograve
Encoding: 242 242 169
Width: 826
GlyphClass: 2
Flags: W
LayerCount: 2
Fore
SplineSet
826 43 m 1,0,-1
 826 0 l 1,1,-1
 0 0 l 1,2,-1
 0 43 l 1,3,-1
 223 43 l 1,4,5
 141 90 141 90 93.5 172 c 128,-1,6
 46 254 46 254 46 354 c 0,7,8
 46 508 46 508 152 611.5 c 128,-1,9
 258 715 258 715 413 715 c 128,-1,10
 568 715 568 715 674 611.5 c 128,-1,11
 780 508 780 508 780 354 c 0,12,13
 780 254 780 254 732 172 c 128,-1,14
 684 90 684 90 603 43 c 1,15,-1
 826 43 l 1,0,-1
561 513 m 128,-1,17
 501 579 501 579 413.5 579 c 128,-1,18
 326 579 326 579 266 513 c 128,-1,19
 206 447 206 447 206 353.5 c 128,-1,20
 206 260 206 260 266 194.5 c 128,-1,21
 326 129 326 129 413.5 129 c 128,-1,22
 501 129 501 129 561 194.5 c 128,-1,23
 621 260 621 260 621 353.5 c 128,-1,16
 621 447 621 447 561 513 c 128,-1,17
494 769 m 1,24,-1
 351 769 l 1,25,-1
 212 881 l 1,26,-1
 366 947 l 1,27,-1
 494 769 l 1,24,-1
EndSplineSet
EndChar

StartChar: oacute
Encoding: 243 243 170
Width: 826
GlyphClass: 2
Flags: W
LayerCount: 2
Fore
SplineSet
826 43 m 1,0,-1
 826 0 l 1,1,-1
 0 0 l 1,2,-1
 0 43 l 1,3,-1
 223 43 l 1,4,5
 141 90 141 90 93.5 172 c 128,-1,6
 46 254 46 254 46 354 c 0,7,8
 46 508 46 508 152 611.5 c 128,-1,9
 258 715 258 715 413 715 c 128,-1,10
 568 715 568 715 674 611.5 c 128,-1,11
 780 508 780 508 780 354 c 0,12,13
 780 254 780 254 732 172 c 128,-1,14
 684 90 684 90 603 43 c 1,15,-1
 826 43 l 1,0,-1
561 513 m 128,-1,17
 501 579 501 579 413.5 579 c 128,-1,18
 326 579 326 579 266 513 c 128,-1,19
 206 447 206 447 206 353.5 c 128,-1,20
 206 260 206 260 266 194.5 c 128,-1,21
 326 129 326 129 413.5 129 c 128,-1,22
 501 129 501 129 561 194.5 c 128,-1,23
 621 260 621 260 621 353.5 c 128,-1,16
 621 447 621 447 561 513 c 128,-1,17
485 771 m 1,24,-1
 342 771 l 1,25,-1
 469 948 l 1,26,-1
 624 883 l 1,27,-1
 485 771 l 1,24,-1
EndSplineSet
EndChar

StartChar: ocircumflex
Encoding: 244 244 171
Width: 826
GlyphClass: 2
Flags: W
LayerCount: 2
Fore
SplineSet
826 43 m 1,0,-1
 826 0 l 1,1,-1
 0 0 l 1,2,-1
 0 43 l 1,3,-1
 223 43 l 1,4,5
 141 90 141 90 93.5 172 c 128,-1,6
 46 254 46 254 46 354 c 0,7,8
 46 508 46 508 152 611.5 c 128,-1,9
 258 715 258 715 413 715 c 128,-1,10
 568 715 568 715 674 611.5 c 128,-1,11
 780 508 780 508 780 354 c 0,12,13
 780 254 780 254 732 172 c 128,-1,14
 684 90 684 90 603 43 c 1,15,-1
 826 43 l 1,0,-1
561 513 m 128,-1,17
 501 579 501 579 413.5 579 c 128,-1,18
 326 579 326 579 266 513 c 128,-1,19
 206 447 206 447 206 353.5 c 128,-1,20
 206 260 206 260 266 194.5 c 128,-1,21
 326 129 326 129 413.5 129 c 128,-1,22
 501 129 501 129 561 194.5 c 128,-1,23
 621 260 621 260 621 353.5 c 128,-1,16
 621 447 621 447 561 513 c 128,-1,17
329 769 m 1,24,-1
 206 769 l 1,25,-1
 319 927 l 1,26,-1
 506 927 l 1,27,-1
 619 769 l 1,28,-1
 496 769 l 1,29,-1
 412 850 l 1,30,-1
 329 769 l 1,24,-1
EndSplineSet
EndChar

StartChar: otilde
Encoding: 245 245 172
Width: 826
GlyphClass: 2
Flags: W
LayerCount: 2
Fore
SplineSet
826 43 m 1,0,-1
 826 0 l 1,1,-1
 0 0 l 1,2,-1
 0 43 l 1,3,-1
 223 43 l 1,4,5
 141 90 141 90 93.5 172 c 128,-1,6
 46 254 46 254 46 354 c 0,7,8
 46 508 46 508 152 611.5 c 128,-1,9
 258 715 258 715 413 715 c 128,-1,10
 568 715 568 715 674 611.5 c 128,-1,11
 780 508 780 508 780 354 c 0,12,13
 780 254 780 254 732 172 c 128,-1,14
 684 90 684 90 603 43 c 1,15,-1
 826 43 l 1,0,-1
561 513 m 128,-1,17
 501 579 501 579 413.5 579 c 128,-1,18
 326 579 326 579 266 513 c 128,-1,19
 206 447 206 447 206 353.5 c 128,-1,20
 206 260 206 260 266 194.5 c 128,-1,21
 326 129 326 129 413.5 129 c 128,-1,22
 501 129 501 129 561 194.5 c 128,-1,23
 621 260 621 260 621 353.5 c 128,-1,16
 621 447 621 447 561 513 c 128,-1,17
355 820 m 0,24,25
 324 820 324 820 325 768 c 1,26,-1
 219 768 l 1,27,28
 219 843 219 843 251.5 886 c 128,-1,29
 284 929 284 929 335 929 c 0,30,31
 367 929 367 929 412.5 901.5 c 128,-1,32
 458 874 458 874 468 874 c 0,33,34
 499 874 499 874 498 926 c 1,35,-1
 604 926 l 1,36,37
 604 851 604 851 571.5 808 c 128,-1,38
 539 765 539 765 488 765 c 0,39,40
 457 765 457 765 410 792.5 c 128,-1,41
 363 820 363 820 355 820 c 0,24,25
EndSplineSet
EndChar

StartChar: odieresis
Encoding: 246 246 173
Width: 826
GlyphClass: 2
Flags: W
LayerCount: 2
Fore
SplineSet
826 43 m 1,0,-1
 826 0 l 1,1,-1
 0 0 l 1,2,-1
 0 43 l 1,3,-1
 223 43 l 1,4,5
 141 90 141 90 93.5 172 c 128,-1,6
 46 254 46 254 46 354 c 0,7,8
 46 508 46 508 152 611.5 c 128,-1,9
 258 715 258 715 413 715 c 128,-1,10
 568 715 568 715 674 611.5 c 128,-1,11
 780 508 780 508 780 354 c 0,12,13
 780 254 780 254 732 172 c 128,-1,14
 684 90 684 90 603 43 c 1,15,-1
 826 43 l 1,0,-1
561 513 m 128,-1,17
 501 579 501 579 413.5 579 c 128,-1,18
 326 579 326 579 266 513 c 128,-1,19
 206 447 206 447 206 353.5 c 128,-1,20
 206 260 206 260 266 194.5 c 128,-1,21
 326 129 326 129 413.5 129 c 128,-1,22
 501 129 501 129 561 194.5 c 128,-1,23
 621 260 621 260 621 353.5 c 128,-1,16
 621 447 621 447 561 513 c 128,-1,17
241 847 m 128,-1,25
 241 878 241 878 262.5 899.5 c 128,-1,26
 284 921 284 921 315 921 c 128,-1,27
 346 921 346 921 367.5 899.5 c 128,-1,28
 389 878 389 878 389 847 c 128,-1,29
 389 816 389 816 367.5 794.5 c 128,-1,30
 346 773 346 773 315 773 c 128,-1,31
 284 773 284 773 262.5 794.5 c 128,-1,24
 241 816 241 816 241 847 c 128,-1,25
434 847 m 128,-1,33
 434 878 434 878 455.5 899.5 c 128,-1,34
 477 921 477 921 508 921 c 128,-1,35
 539 921 539 921 560.5 899.5 c 128,-1,36
 582 878 582 878 582 847 c 128,-1,37
 582 816 582 816 560.5 794.5 c 128,-1,38
 539 773 539 773 508 773 c 128,-1,39
 477 773 477 773 455.5 794.5 c 128,-1,32
 434 816 434 816 434 847 c 128,-1,33
EndSplineSet
EndChar

StartChar: divide
Encoding: 247 247 174
Width: 582
GlyphClass: 2
Flags: W
LayerCount: 2
Fore
SplineSet
0 0 m 1,0,-1
 0 43 l 1,1,-1
 260 43 l 1,2,-1
 260 77 l 1,3,4
 234 87 234 87 218.5 109.5 c 128,-1,5
 203 132 203 132 203 160 c 128,-1,6
 203 188 203 188 218.5 210.5 c 128,-1,7
 234 233 234 233 260 242 c 1,8,-1
 260 288 l 1,9,-1
 48 288 l 1,10,-1
 48 411 l 1,11,-1
 260 411 l 1,12,-1
 260 456 l 1,13,14
 234 466 234 466 218.5 488.5 c 128,-1,15
 203 511 203 511 203 543.5 c 128,-1,16
 203 576 203 576 228.5 601.5 c 128,-1,17
 254 627 254 627 291 627 c 128,-1,18
 328 627 328 627 353.5 601.5 c 128,-1,19
 379 576 379 576 379 544 c 128,-1,20
 379 512 379 512 363.5 489.5 c 128,-1,21
 348 467 348 467 324 457 c 1,22,-1
 324 411 l 1,23,-1
 534 411 l 1,24,-1
 534 288 l 1,25,-1
 324 288 l 1,26,-1
 324 241 l 1,27,28
 348 231 348 231 363.5 209 c 128,-1,29
 379 187 379 187 379 160 c 128,-1,30
 379 133 379 133 363.5 110.5 c 128,-1,31
 348 88 348 88 324 78 c 1,32,-1
 324 43 l 1,33,-1
 582 43 l 1,34,-1
 582 0 l 1,35,-1
 0 0 l 1,0,-1
EndSplineSet
EndChar

StartChar: oslash
Encoding: 248 248 175
Width: 826
GlyphClass: 2
Flags: W
LayerCount: 2
Fore
SplineSet
826 43 m 1,0,-1
 826 0 l 1,1,-1
 333 0 l 1,2,-1
 282 -112 l 1,3,-1
 141 -112 l 1,4,-1
 192 0 l 1,5,-1
 0 0 l 1,6,-1
 0 43 l 1,7,-1
 211 43 l 1,8,-1
 214 48 l 1,9,10
 136 96 136 96 91 176.5 c 128,-1,11
 46 257 46 257 46 354 c 0,12,13
 46 508 46 508 152 611.5 c 128,-1,14
 258 715 258 715 413 715 c 0,15,16
 461 715 461 715 513 702 c 1,17,-1
 560 805 l 1,18,-1
 702 805 l 1,19,-1
 630 648 l 1,20,21
 700 599 700 599 740 522 c 128,-1,22
 780 445 780 445 780 349.5 c 128,-1,23
 780 254 780 254 732 172.5 c 128,-1,24
 684 91 684 91 603 43 c 1,25,-1
 826 43 l 1,0,-1
413 579 m 0,26,27
 326 579 326 579 266 513 c 128,-1,28
 206 447 206 447 206 348 c 128,-1,29
 206 249 206 249 276 184 c 1,30,-1
 455 574 l 1,31,32
 432 579 432 579 413 579 c 0,26,27
561 194.5 m 128,-1,34
 621 260 621 260 621 351 c 128,-1,35
 621 442 621 442 565 508 c 1,36,-1
 393 130 l 1,37,38
 399 129 399 129 413 129 c 0,39,33
 501 129 501 129 561 194.5 c 128,-1,34
EndSplineSet
EndChar

StartChar: ugrave
Encoding: 249 249 176
Width: 751
GlyphClass: 2
Flags: W
LayerCount: 2
Fore
SplineSet
751 43 m 1,0,-1
 751 0 l 1,1,-1
 0 0 l 1,2,-1
 0 43 l 1,3,-1
 199 43 l 1,4,5
 76 125 76 125 76 308 c 2,6,-1
 76 699 l 1,7,-1
 232 699 l 1,8,-1
 232 313 l 2,9,10
 232 229 232 229 271 180.5 c 128,-1,11
 310 132 310 132 376 132 c 128,-1,12
 442 132 442 132 480.5 180.5 c 128,-1,13
 519 229 519 229 519 313 c 2,14,-1
 519 699 l 1,15,-1
 675 699 l 1,16,-1
 675 308 l 2,17,18
 675 125 675 125 553 43 c 1,19,-1
 751 43 l 1,0,-1
455 769 m 1,20,-1
 312 769 l 1,21,-1
 173 881 l 1,22,-1
 327 947 l 1,23,-1
 455 769 l 1,20,-1
EndSplineSet
EndChar

StartChar: uacute
Encoding: 250 250 177
Width: 751
GlyphClass: 2
Flags: W
LayerCount: 2
Fore
SplineSet
751 43 m 1,0,-1
 751 0 l 1,1,-1
 0 0 l 1,2,-1
 0 43 l 1,3,-1
 199 43 l 1,4,5
 76 125 76 125 76 308 c 2,6,-1
 76 699 l 1,7,-1
 232 699 l 1,8,-1
 232 313 l 2,9,10
 232 229 232 229 271 180.5 c 128,-1,11
 310 132 310 132 376 132 c 128,-1,12
 442 132 442 132 480.5 180.5 c 128,-1,13
 519 229 519 229 519 313 c 2,14,-1
 519 699 l 1,15,-1
 675 699 l 1,16,-1
 675 308 l 2,17,18
 675 125 675 125 553 43 c 1,19,-1
 751 43 l 1,0,-1
447 771 m 1,20,-1
 304 771 l 1,21,-1
 431 948 l 1,22,-1
 586 883 l 1,23,-1
 447 771 l 1,20,-1
EndSplineSet
EndChar

StartChar: ucircumflex
Encoding: 251 251 178
Width: 751
GlyphClass: 2
Flags: W
LayerCount: 2
Fore
SplineSet
751 43 m 1,0,-1
 751 0 l 1,1,-1
 0 0 l 1,2,-1
 0 43 l 1,3,-1
 199 43 l 1,4,5
 76 125 76 125 76 308 c 2,6,-1
 76 699 l 1,7,-1
 232 699 l 1,8,-1
 232 313 l 2,9,10
 232 229 232 229 271 180.5 c 128,-1,11
 310 132 310 132 376 132 c 128,-1,12
 442 132 442 132 480.5 180.5 c 128,-1,13
 519 229 519 229 519 313 c 2,14,-1
 519 699 l 1,15,-1
 675 699 l 1,16,-1
 675 308 l 2,17,18
 675 125 675 125 553 43 c 1,19,-1
 751 43 l 1,0,-1
291 769 m 1,20,-1
 168 769 l 1,21,-1
 281 927 l 1,22,-1
 468 927 l 1,23,-1
 581 769 l 1,24,-1
 458 769 l 1,25,-1
 374 850 l 1,26,-1
 291 769 l 1,20,-1
EndSplineSet
EndChar

StartChar: udieresis
Encoding: 252 252 179
Width: 751
GlyphClass: 2
Flags: W
LayerCount: 2
Fore
SplineSet
751 43 m 1,0,-1
 751 0 l 1,1,-1
 0 0 l 1,2,-1
 0 43 l 1,3,-1
 199 43 l 1,4,5
 76 125 76 125 76 308 c 2,6,-1
 76 699 l 1,7,-1
 232 699 l 1,8,-1
 232 313 l 2,9,10
 232 229 232 229 271 180.5 c 128,-1,11
 310 132 310 132 376 132 c 128,-1,12
 442 132 442 132 480.5 180.5 c 128,-1,13
 519 229 519 229 519 313 c 2,14,-1
 519 699 l 1,15,-1
 675 699 l 1,16,-1
 675 308 l 2,17,18
 675 125 675 125 553 43 c 1,19,-1
 751 43 l 1,0,-1
397 847 m 128,-1,21
 397 878 397 878 418.5 899.5 c 128,-1,22
 440 921 440 921 471 921 c 128,-1,23
 502 921 502 921 523.5 899.5 c 128,-1,24
 545 878 545 878 545 847 c 128,-1,25
 545 816 545 816 523.5 794.5 c 128,-1,26
 502 773 502 773 471 773 c 128,-1,27
 440 773 440 773 418.5 794.5 c 128,-1,20
 397 816 397 816 397 847 c 128,-1,21
204 847 m 128,-1,29
 204 878 204 878 225.5 899.5 c 128,-1,30
 247 921 247 921 278 921 c 128,-1,31
 309 921 309 921 330.5 899.5 c 128,-1,32
 352 878 352 878 352 847 c 128,-1,33
 352 816 352 816 330.5 794.5 c 128,-1,34
 309 773 309 773 278 773 c 128,-1,35
 247 773 247 773 225.5 794.5 c 128,-1,28
 204 816 204 816 204 847 c 128,-1,29
EndSplineSet
EndChar

StartChar: yacute
Encoding: 253 253 180
Width: 618
GlyphClass: 2
Flags: W
LayerCount: 2
Fore
SplineSet
618 43 m 1,0,-1
 618 0 l 1,1,-1
 0 0 l 1,2,-1
 0 43 l 1,3,-1
 231 43 l 1,4,-1
 231 276 l 1,5,-1
 -11 699 l 1,6,-1
 158 699 l 1,7,-1
 309 439 l 1,8,-1
 460 699 l 1,9,-1
 629 699 l 1,10,-1
 387 276 l 1,11,-1
 387 43 l 1,12,-1
 618 43 l 1,0,-1
361 771 m 1,13,-1
 218 771 l 1,14,-1
 345 948 l 1,15,-1
 500 883 l 1,16,-1
 361 771 l 1,13,-1
EndSplineSet
EndChar

StartChar: thorn
Encoding: 254 254 181
Width: 685
GlyphClass: 2
Flags: W
LayerCount: 2
Fore
SplineSet
785 43 m 1,0,-1
 785 0 l 1,1,-1
 -100 0 l 1,2,-1
 -100 43 l 1,3,-1
 86 43 l 1,4,-1
 86 699 l 1,5,-1
 242 699 l 1,6,-1
 242 615 l 1,7,-1
 323 615 l 2,8,9
 641 615 641 615 641 368 c 0,10,11
 641 232 641 232 561.5 171.5 c 128,-1,12
 482 111 482 111 325 111 c 2,13,-1
 242 111 l 1,14,-1
 242 43 l 1,15,-1
 785 43 l 1,0,-1
449 278.5 m 128,-1,17
 481 311 481 311 481 370.5 c 128,-1,18
 481 430 481 430 441 455 c 128,-1,19
 401 480 401 480 321 480 c 2,20,-1
 242 480 l 1,21,-1
 242 246 l 1,22,-1
 337 246 l 2,23,16
 417 246 417 246 449 278.5 c 128,-1,17
EndSplineSet
EndChar

StartChar: ydieresis
Encoding: 255 255 182
Width: 618
GlyphClass: 2
Flags: W
LayerCount: 2
Fore
SplineSet
618 43 m 1,0,-1
 618 0 l 1,1,-1
 0 0 l 1,2,-1
 0 43 l 1,3,-1
 231 43 l 1,4,-1
 231 276 l 1,5,-1
 -11 699 l 1,6,-1
 158 699 l 1,7,-1
 309 439 l 1,8,-1
 460 699 l 1,9,-1
 629 699 l 1,10,-1
 387 276 l 1,11,-1
 387 43 l 1,12,-1
 618 43 l 1,0,-1
331 851 m 128,-1,14
 331 882 331 882 352.5 903.5 c 128,-1,15
 374 925 374 925 405 925 c 128,-1,16
 436 925 436 925 457.5 903.5 c 128,-1,17
 479 882 479 882 479 851 c 128,-1,18
 479 820 479 820 457.5 798.5 c 128,-1,19
 436 777 436 777 405 777 c 128,-1,20
 374 777 374 777 352.5 798.5 c 128,-1,13
 331 820 331 820 331 851 c 128,-1,14
138 851 m 128,-1,22
 138 882 138 882 159.5 903.5 c 128,-1,23
 181 925 181 925 212 925 c 128,-1,24
 243 925 243 925 264.5 903.5 c 128,-1,25
 286 882 286 882 286 851 c 128,-1,26
 286 820 286 820 264.5 798.5 c 128,-1,27
 243 777 243 777 212 777 c 128,-1,28
 181 777 181 777 159.5 798.5 c 128,-1,21
 138 820 138 820 138 851 c 128,-1,22
EndSplineSet
EndChar

StartChar: Itilde
Encoding: 296 296 183
Width: 328
GlyphClass: 2
Flags: W
LayerCount: 2
Fore
SplineSet
328 43 m 1,0,-1
 328 0 l 1,1,-1
 0 0 l 1,2,-1
 0 43 l 1,3,-1
 86 43 l 1,4,-1
 86 699 l 1,5,-1
 242 699 l 1,6,-1
 242 43 l 1,7,-1
 328 43 l 1,0,-1
106 821 m 0,8,9
 75 821 75 821 76 769 c 1,10,-1
 -30 769 l 1,11,12
 -30 844 -30 844 2.5 887 c 128,-1,13
 35 930 35 930 86 930 c 0,14,15
 118 930 118 930 163.5 902.5 c 128,-1,16
 209 875 209 875 219 875 c 0,17,18
 250 875 250 875 249 927 c 1,19,-1
 355 927 l 1,20,21
 355 852 355 852 322.5 809 c 128,-1,22
 290 766 290 766 239 766 c 0,23,24
 208 766 208 766 161 793.5 c 128,-1,25
 114 821 114 821 106 821 c 0,8,9
EndSplineSet
EndChar

StartChar: itilde
Encoding: 297 297 184
Width: 328
GlyphClass: 2
Flags: W
LayerCount: 2
Fore
SplineSet
328 43 m 1,0,-1
 328 0 l 1,1,-1
 0 0 l 1,2,-1
 0 43 l 1,3,-1
 86 43 l 1,4,-1
 86 699 l 1,5,-1
 242 699 l 1,6,-1
 242 43 l 1,7,-1
 328 43 l 1,0,-1
106 821 m 0,8,9
 75 821 75 821 76 769 c 1,10,-1
 -30 769 l 1,11,12
 -30 844 -30 844 2.5 887 c 128,-1,13
 35 930 35 930 86 930 c 0,14,15
 118 930 118 930 163.5 902.5 c 128,-1,16
 209 875 209 875 219 875 c 0,17,18
 250 875 250 875 249 927 c 1,19,-1
 355 927 l 1,20,21
 355 852 355 852 322.5 809 c 128,-1,22
 290 766 290 766 239 766 c 0,23,24
 208 766 208 766 161 793.5 c 128,-1,25
 114 821 114 821 106 821 c 0,8,9
EndSplineSet
EndChar

StartChar: Jcircumflex
Encoding: 308 308 185
Width: 556
GlyphClass: 2
Flags: W
LayerCount: 2
Fore
SplineSet
556 43 m 1,0,-1
 556 0 l 1,1,-1
 0 0 l 1,2,-1
 0 43 l 1,3,-1
 119 43 l 1,4,5
 70 65 70 65 26 111 c 1,6,-1
 107 226 l 1,7,8
 170 158 170 158 239 158 c 0,9,10
 272 158 272 158 295.5 184 c 128,-1,11
 319 210 319 210 319 260 c 2,12,-1
 319 565 l 1,13,-1
 112 565 l 1,14,-1
 112 699 l 1,15,-1
 476 699 l 1,16,-1
 476 263 l 2,17,18
 476 104 476 104 368 43 c 1,19,-1
 556 43 l 1,0,-1
214 769 m 1,20,-1
 91 769 l 1,21,-1
 204 927 l 1,22,-1
 391 927 l 1,23,-1
 504 769 l 1,24,-1
 381 769 l 1,25,-1
 297 850 l 1,26,-1
 214 769 l 1,20,-1
EndSplineSet
EndChar

StartChar: jcircumflex
Encoding: 309 309 186
Width: 556
GlyphClass: 2
Flags: W
LayerCount: 2
Fore
SplineSet
556 43 m 1,0,-1
 556 0 l 1,1,-1
 0 0 l 1,2,-1
 0 43 l 1,3,-1
 119 43 l 1,4,5
 70 65 70 65 26 111 c 1,6,-1
 107 226 l 1,7,8
 170 158 170 158 239 158 c 0,9,10
 272 158 272 158 295.5 184 c 128,-1,11
 319 210 319 210 319 260 c 2,12,-1
 319 565 l 1,13,-1
 112 565 l 1,14,-1
 112 699 l 1,15,-1
 476 699 l 1,16,-1
 476 263 l 2,17,18
 476 104 476 104 368 43 c 1,19,-1
 556 43 l 1,0,-1
214 769 m 1,20,-1
 91 769 l 1,21,-1
 204 927 l 1,22,-1
 391 927 l 1,23,-1
 504 769 l 1,24,-1
 381 769 l 1,25,-1
 297 850 l 1,26,-1
 214 769 l 1,20,-1
EndSplineSet
EndChar

StartChar: Lslash
Encoding: 321 321 187
Width: 584
GlyphClass: 2
Flags: W
LayerCount: 2
Fore
SplineSet
102 43 m 1,0,-1
 102 201 l 1,1,-1
 28 178 l 1,2,-1
 28 313 l 1,3,-1
 102 337 l 1,4,-1
 102 698 l 1,5,-1
 258 698 l 1,6,-1
 258 386 l 1,7,-1
 463 451 l 1,8,-1
 463 315 l 1,9,-1
 258 250 l 1,10,-1
 258 139 l 1,11,-1
 556 139 l 1,12,-1
 556 43 l 1,13,-1
 653 43 l 1,14,-1
 653 0 l 1,15,-1
 0 0 l 1,16,-1
 0 43 l 1,17,-1
 102 43 l 1,0,-1
EndSplineSet
EndChar

StartChar: lslash
Encoding: 322 322 188
Width: 584
GlyphClass: 2
Flags: W
LayerCount: 2
Fore
SplineSet
102 43 m 1,0,-1
 102 201 l 1,1,-1
 28 178 l 1,2,-1
 28 313 l 1,3,-1
 102 337 l 1,4,-1
 102 698 l 1,5,-1
 258 698 l 1,6,-1
 258 386 l 1,7,-1
 463 451 l 1,8,-1
 463 315 l 1,9,-1
 258 250 l 1,10,-1
 258 139 l 1,11,-1
 556 139 l 1,12,-1
 556 43 l 1,13,-1
 653 43 l 1,14,-1
 653 0 l 1,15,-1
 0 0 l 1,16,-1
 0 43 l 1,17,-1
 102 43 l 1,0,-1
EndSplineSet
EndChar

StartChar: Nacute
Encoding: 323 323 189
Width: 817
GlyphClass: 2
Flags: W
LayerCount: 2
Fore
SplineSet
86 43 m 1,0,-1
 86 699 l 1,1,-1
 232 699 l 1,2,-1
 575 249 l 1,3,-1
 575 699 l 1,4,-1
 731 699 l 1,5,-1
 731 43 l 1,6,-1
 828 43 l 1,7,-1
 828 0 l 1,8,-1
 575 0 l 1,9,-1
 242 438 l 1,10,-1
 242 0 l 1,11,-1
 -11 0 l 1,12,-1
 -11 43 l 1,13,-1
 86 43 l 1,0,-1
471 771 m 1,14,-1
 328 771 l 1,15,-1
 455 948 l 1,16,-1
 610 883 l 1,17,-1
 471 771 l 1,14,-1
EndSplineSet
EndChar

StartChar: nacute
Encoding: 324 324 190
Width: 817
GlyphClass: 2
Flags: W
LayerCount: 2
Fore
SplineSet
86 43 m 1,0,-1
 86 699 l 1,1,-1
 232 699 l 1,2,-1
 575 249 l 1,3,-1
 575 699 l 1,4,-1
 731 699 l 1,5,-1
 731 43 l 1,6,-1
 828 43 l 1,7,-1
 828 0 l 1,8,-1
 575 0 l 1,9,-1
 242 438 l 1,10,-1
 242 0 l 1,11,-1
 -11 0 l 1,12,-1
 -11 43 l 1,13,-1
 86 43 l 1,0,-1
471 771 m 1,14,-1
 328 771 l 1,15,-1
 455 948 l 1,16,-1
 610 883 l 1,17,-1
 471 771 l 1,14,-1
EndSplineSet
EndChar

StartChar: OE
Encoding: 338 338 191
Width: 1042
GlyphClass: 2
Flags: W
LayerCount: 2
Fore
SplineSet
1145 43 m 1,0,-1
 1145 0 l 1,1,-1
 -100 0 l 1,2,-1
 -100 43 l 1,3,-1
 227 43 l 1,4,5
 144 87 144 87 95.5 168 c 128,-1,6
 47 249 47 249 47 349 c 0,7,8
 47 498 47 498 149.5 598 c 128,-1,9
 252 698 252 698 403 698 c 2,10,-1
 978 698 l 1,11,-1
 978 560 l 1,12,-1
 630 560 l 1,13,-1
 630 416 l 1,14,-1
 942 416 l 1,15,-1
 942 283 l 1,16,-1
 630 283 l 1,17,-1
 630 138 l 1,18,-1
 989 138 l 1,19,-1
 989 43 l 1,20,-1
 1145 43 l 1,0,-1
271 503.5 m 128,-1,22
 213 440 213 440 213 349.5 c 128,-1,23
 213 259 213 259 271 195 c 128,-1,24
 329 131 329 131 413 131 c 2,25,-1
 473 131 l 1,26,-1
 473 567 l 1,27,-1
 413 567 l 2,28,21
 329 567 329 567 271 503.5 c 128,-1,22
EndSplineSet
EndChar

StartChar: oe
Encoding: 339 339 192
Width: 1042
GlyphClass: 2
Flags: W
LayerCount: 2
Fore
SplineSet
1145 43 m 1,0,-1
 1145 0 l 1,1,-1
 -100 0 l 1,2,-1
 -100 43 l 1,3,-1
 227 43 l 1,4,5
 144 87 144 87 95.5 168 c 128,-1,6
 47 249 47 249 47 349 c 0,7,8
 47 498 47 498 149.5 598 c 128,-1,9
 252 698 252 698 403 698 c 2,10,-1
 978 698 l 1,11,-1
 978 560 l 1,12,-1
 630 560 l 1,13,-1
 630 416 l 1,14,-1
 942 416 l 1,15,-1
 942 283 l 1,16,-1
 630 283 l 1,17,-1
 630 138 l 1,18,-1
 989 138 l 1,19,-1
 989 43 l 1,20,-1
 1145 43 l 1,0,-1
271 503.5 m 128,-1,22
 213 440 213 440 213 349.5 c 128,-1,23
 213 259 213 259 271 195 c 128,-1,24
 329 131 329 131 413 131 c 2,25,-1
 473 131 l 1,26,-1
 473 567 l 1,27,-1
 413 567 l 2,28,21
 329 567 329 567 271 503.5 c 128,-1,22
EndSplineSet
EndChar

StartChar: Racute
Encoding: 340 340 193
Width: 727
GlyphClass: 2
Flags: W
LayerCount: 2
Fore
SplineSet
86 43 m 1,0,-1
 86 699 l 1,1,-1
 351 699 l 2,2,3
 514 699 514 699 583.5 644 c 128,-1,4
 653 589 653 589 653 467 c 0,5,6
 653 299 653 299 520 250 c 1,7,-1
 666 43 l 1,8,-1
 760 43 l 1,9,-1
 760 0 l 1,10,-1
 505 0 l 1,11,-1
 350 223 l 1,12,-1
 242 223 l 1,13,-1
 242 0 l 1,14,-1
 -11 0 l 1,15,-1
 -11 43 l 1,16,-1
 86 43 l 1,0,-1
465 384 m 128,-1,18
 494 410 494 410 494 466.5 c 128,-1,19
 494 523 494 523 464 544 c 128,-1,20
 434 565 434 565 359 565 c 2,21,-1
 242 565 l 1,22,-1
 242 358 l 1,23,-1
 356 358 l 2,24,17
 436 358 436 358 465 384 c 128,-1,18
347 771 m 1,25,-1
 204 771 l 1,26,-1
 331 948 l 1,27,-1
 486 883 l 1,28,-1
 347 771 l 1,25,-1
EndSplineSet
EndChar

StartChar: racute
Encoding: 341 341 194
Width: 727
GlyphClass: 2
Flags: W
LayerCount: 2
Fore
SplineSet
86 43 m 1,0,-1
 86 699 l 1,1,-1
 351 699 l 2,2,3
 514 699 514 699 583.5 644 c 128,-1,4
 653 589 653 589 653 467 c 0,5,6
 653 299 653 299 520 250 c 1,7,-1
 666 43 l 1,8,-1
 760 43 l 1,9,-1
 760 0 l 1,10,-1
 505 0 l 1,11,-1
 350 223 l 1,12,-1
 242 223 l 1,13,-1
 242 0 l 1,14,-1
 -11 0 l 1,15,-1
 -11 43 l 1,16,-1
 86 43 l 1,0,-1
465 384 m 128,-1,18
 494 410 494 410 494 466.5 c 128,-1,19
 494 523 494 523 464 544 c 128,-1,20
 434 565 434 565 359 565 c 2,21,-1
 242 565 l 1,22,-1
 242 358 l 1,23,-1
 356 358 l 2,24,17
 436 358 436 358 465 384 c 128,-1,18
347 771 m 1,25,-1
 204 771 l 1,26,-1
 331 948 l 1,27,-1
 486 883 l 1,28,-1
 347 771 l 1,25,-1
EndSplineSet
EndChar

StartChar: Rcommaaccent
Encoding: 342 342 195
Width: 727
GlyphClass: 2
Flags: W
LayerCount: 2
Fore
SplineSet
760 43 m 1,0,-1
 760 0 l 1,1,-1
 505 0 l 1,2,-1
 358 211 l 1,3,-1
 358 -55 l 1,4,-1
 452 -55 l 1,5,-1
 372 -250 l 1,6,-1
 246 -250 l 1,7,-1
 311 -55 l 1,8,-1
 311 223 l 1,9,-1
 242 223 l 1,10,-1
 242 0 l 1,11,-1
 -11 0 l 1,12,-1
 -11 43 l 1,13,-1
 86 43 l 1,14,-1
 86 699 l 1,15,-1
 351 699 l 2,16,17
 514 699 514 699 583.5 644 c 128,-1,18
 653 589 653 589 653 467 c 0,19,20
 653 299 653 299 520 250 c 1,21,-1
 666 43 l 1,22,-1
 760 43 l 1,0,-1
465 384 m 128,-1,24
 494 410 494 410 494 466.5 c 128,-1,25
 494 523 494 523 464 544 c 128,-1,26
 434 565 434 565 359 565 c 2,27,-1
 242 565 l 1,28,-1
 242 358 l 1,29,-1
 356 358 l 2,30,23
 436 358 436 358 465 384 c 128,-1,24
EndSplineSet
EndChar

StartChar: rcommaaccent
Encoding: 343 343 196
Width: 727
GlyphClass: 2
Flags: W
LayerCount: 2
Fore
SplineSet
86 43 m 1,0,-1
 86 699 l 1,1,-1
 351 699 l 2,2,3
 514 699 514 699 583.5 644 c 128,-1,4
 653 589 653 589 653 467 c 0,5,6
 653 299 653 299 520 250 c 1,7,-1
 666 43 l 1,8,-1
 760 43 l 1,9,-1
 760 0 l 1,10,-1
 505 0 l 1,11,-1
 358 211 l 1,12,-1
 358 -55 l 1,13,-1
 452 -55 l 1,14,-1
 372 -250 l 1,15,-1
 246 -250 l 1,16,-1
 311 -55 l 1,17,-1
 311 223 l 1,18,-1
 242 223 l 1,19,-1
 242 0 l 1,20,-1
 -11 0 l 1,21,-1
 -11 43 l 1,22,-1
 86 43 l 1,0,-1
465 384 m 128,-1,24
 494 410 494 410 494 466.5 c 128,-1,25
 494 523 494 523 464 544 c 128,-1,26
 434 565 434 565 359 565 c 2,27,-1
 242 565 l 1,28,-1
 242 358 l 1,29,-1
 356 358 l 2,30,23
 436 358 436 358 465 384 c 128,-1,24
EndSplineSet
EndChar

StartChar: Rcaron
Encoding: 344 344 197
Width: 727
GlyphClass: 2
Flags: W
LayerCount: 2
Fore
SplineSet
86 43 m 1,0,-1
 86 699 l 1,1,-1
 351 699 l 2,2,3
 514 699 514 699 583.5 644 c 128,-1,4
 653 589 653 589 653 467 c 0,5,6
 653 299 653 299 520 250 c 1,7,-1
 666 43 l 1,8,-1
 760 43 l 1,9,-1
 760 0 l 1,10,-1
 505 0 l 1,11,-1
 350 223 l 1,12,-1
 242 223 l 1,13,-1
 242 0 l 1,14,-1
 -11 0 l 1,15,-1
 -11 43 l 1,16,-1
 86 43 l 1,0,-1
465 384 m 128,-1,18
 494 410 494 410 494 466.5 c 128,-1,19
 494 523 494 523 464 544 c 128,-1,20
 434 565 434 565 359 565 c 2,21,-1
 242 565 l 1,22,-1
 242 358 l 1,23,-1
 356 358 l 2,24,17
 436 358 436 358 465 384 c 128,-1,18
130 927 m 1,25,-1
 253 927 l 1,26,-1
 336 846 l 1,27,-1
 420 927 l 1,28,-1
 543 927 l 1,29,-1
 430 769 l 1,30,-1
 243 769 l 1,31,-1
 130 927 l 1,25,-1
EndSplineSet
EndChar

StartChar: rcaron
Encoding: 345 345 198
Width: 727
GlyphClass: 2
Flags: W
LayerCount: 2
Fore
SplineSet
86 43 m 1,0,-1
 86 699 l 1,1,-1
 351 699 l 2,2,3
 514 699 514 699 583.5 644 c 128,-1,4
 653 589 653 589 653 467 c 0,5,6
 653 299 653 299 520 250 c 1,7,-1
 666 43 l 1,8,-1
 760 43 l 1,9,-1
 760 0 l 1,10,-1
 505 0 l 1,11,-1
 350 223 l 1,12,-1
 242 223 l 1,13,-1
 242 0 l 1,14,-1
 -11 0 l 1,15,-1
 -11 43 l 1,16,-1
 86 43 l 1,0,-1
465 384 m 128,-1,18
 494 410 494 410 494 466.5 c 128,-1,19
 494 523 494 523 464 544 c 128,-1,20
 434 565 434 565 359 565 c 2,21,-1
 242 565 l 1,22,-1
 242 358 l 1,23,-1
 356 358 l 2,24,17
 436 358 436 358 465 384 c 128,-1,18
130 927 m 1,25,-1
 253 927 l 1,26,-1
 336 846 l 1,27,-1
 420 927 l 1,28,-1
 543 927 l 1,29,-1
 430 769 l 1,30,-1
 243 769 l 1,31,-1
 130 927 l 1,25,-1
EndSplineSet
EndChar

StartChar: Scaron
Encoding: 352 352 199
Width: 638
GlyphClass: 2
Flags: W
LayerCount: 2
Fore
SplineSet
638 43 m 1,0,-1
 638 0 l 1,1,-1
 0 0 l 1,2,-1
 0 43 l 1,3,-1
 136 43 l 1,4,5
 81 71 81 71 36 115 c 1,6,-1
 129 229 l 1,7,8
 242 130 242 130 338 130 c 0,9,10
 381 130 381 130 405.5 148.5 c 128,-1,11
 430 167 430 167 430 198.5 c 128,-1,12
 430 230 430 230 404 248.5 c 128,-1,13
 378 267 378 267 301 286 c 0,14,15
 179 315 179 315 122.5 361.5 c 128,-1,16
 66 408 66 408 66 507.5 c 128,-1,17
 66 607 66 607 137.5 661 c 128,-1,18
 209 715 209 715 316 715 c 0,19,20
 386 715 386 715 456 691 c 128,-1,21
 526 667 526 667 578 623 c 1,22,-1
 499 509 l 1,23,24
 408 578 408 578 311 578 c 0,25,26
 272 578 272 578 249.5 559.5 c 128,-1,27
 227 541 227 541 227 510.5 c 128,-1,28
 227 480 227 480 254.5 462 c 128,-1,29
 282 444 282 444 381.5 419.5 c 128,-1,30
 481 395 481 395 536 346 c 128,-1,31
 591 297 591 297 591 210 c 0,32,33
 591 102 591 102 510 43 c 1,34,-1
 638 43 l 1,0,-1
101 927 m 1,35,-1
 224 927 l 1,36,-1
 307 846 l 1,37,-1
 391 927 l 1,38,-1
 514 927 l 1,39,-1
 401 769 l 1,40,-1
 214 769 l 1,41,-1
 101 927 l 1,35,-1
EndSplineSet
EndChar

StartChar: scaron
Encoding: 353 353 200
Width: 638
GlyphClass: 2
Flags: W
LayerCount: 2
Fore
SplineSet
638 43 m 1,0,-1
 638 0 l 1,1,-1
 0 0 l 1,2,-1
 0 43 l 1,3,-1
 136 43 l 1,4,5
 81 71 81 71 36 115 c 1,6,-1
 129 229 l 1,7,8
 242 130 242 130 338 130 c 0,9,10
 381 130 381 130 405.5 148.5 c 128,-1,11
 430 167 430 167 430 198.5 c 128,-1,12
 430 230 430 230 404 248.5 c 128,-1,13
 378 267 378 267 301 286 c 0,14,15
 179 315 179 315 122.5 361.5 c 128,-1,16
 66 408 66 408 66 507.5 c 128,-1,17
 66 607 66 607 137.5 661 c 128,-1,18
 209 715 209 715 316 715 c 0,19,20
 386 715 386 715 456 691 c 128,-1,21
 526 667 526 667 578 623 c 1,22,-1
 499 509 l 1,23,24
 408 578 408 578 311 578 c 0,25,26
 272 578 272 578 249.5 559.5 c 128,-1,27
 227 541 227 541 227 510.5 c 128,-1,28
 227 480 227 480 254.5 462 c 128,-1,29
 282 444 282 444 381.5 419.5 c 128,-1,30
 481 395 481 395 536 346 c 128,-1,31
 591 297 591 297 591 210 c 0,32,33
 591 102 591 102 510 43 c 1,34,-1
 638 43 l 1,0,-1
101 927 m 1,35,-1
 224 927 l 1,36,-1
 307 846 l 1,37,-1
 391 927 l 1,38,-1
 514 927 l 1,39,-1
 401 769 l 1,40,-1
 214 769 l 1,41,-1
 101 927 l 1,35,-1
EndSplineSet
EndChar

StartChar: Ydieresis
Encoding: 376 376 201
Width: 618
GlyphClass: 2
Flags: W
LayerCount: 2
Fore
SplineSet
618 43 m 1,0,-1
 618 0 l 1,1,-1
 0 0 l 1,2,-1
 0 43 l 1,3,-1
 231 43 l 1,4,-1
 231 276 l 1,5,-1
 -11 699 l 1,6,-1
 158 699 l 1,7,-1
 309 439 l 1,8,-1
 460 699 l 1,9,-1
 629 699 l 1,10,-1
 387 276 l 1,11,-1
 387 43 l 1,12,-1
 618 43 l 1,0,-1
331 851 m 128,-1,14
 331 882 331 882 352.5 903.5 c 128,-1,15
 374 925 374 925 405 925 c 128,-1,16
 436 925 436 925 457.5 903.5 c 128,-1,17
 479 882 479 882 479 851 c 128,-1,18
 479 820 479 820 457.5 798.5 c 128,-1,19
 436 777 436 777 405 777 c 128,-1,20
 374 777 374 777 352.5 798.5 c 128,-1,13
 331 820 331 820 331 851 c 128,-1,14
138 851 m 128,-1,22
 138 882 138 882 159.5 903.5 c 128,-1,23
 181 925 181 925 212 925 c 128,-1,24
 243 925 243 925 264.5 903.5 c 128,-1,25
 286 882 286 882 286 851 c 128,-1,26
 286 820 286 820 264.5 798.5 c 128,-1,27
 243 777 243 777 212 777 c 128,-1,28
 181 777 181 777 159.5 798.5 c 128,-1,21
 138 820 138 820 138 851 c 128,-1,22
EndSplineSet
EndChar

StartChar: Zcaron
Encoding: 381 381 202
Width: 681
GlyphClass: 2
Flags: W
LayerCount: 2
Fore
SplineSet
728 43 m 1,0,-1
 728 0 l 1,1,-1
 -51 0 l 1,2,-1
 -51 43 l 1,3,-1
 46 43 l 1,4,-1
 46 107 l 1,5,-1
 412 564 l 1,6,-1
 58 564 l 1,7,-1
 58 699 l 1,8,-1
 625 699 l 1,9,-1
 625 591 l 1,10,-1
 260 136 l 1,11,-1
 631 136 l 1,12,-1
 631 43 l 1,13,-1
 728 43 l 1,0,-1
127 927 m 1,14,-1
 250 927 l 1,15,-1
 333 846 l 1,16,-1
 417 927 l 1,17,-1
 540 927 l 1,18,-1
 427 769 l 1,19,-1
 240 769 l 1,20,-1
 127 927 l 1,14,-1
EndSplineSet
EndChar

StartChar: zcaron
Encoding: 382 382 203
Width: 681
GlyphClass: 2
Flags: W
LayerCount: 2
Fore
SplineSet
728 43 m 1,0,-1
 728 0 l 1,1,-1
 -51 0 l 1,2,-1
 -51 43 l 1,3,-1
 46 43 l 1,4,-1
 46 107 l 1,5,-1
 412 564 l 1,6,-1
 58 564 l 1,7,-1
 58 699 l 1,8,-1
 625 699 l 1,9,-1
 625 591 l 1,10,-1
 260 136 l 1,11,-1
 631 136 l 1,12,-1
 631 43 l 1,13,-1
 728 43 l 1,0,-1
127 927 m 1,14,-1
 250 927 l 1,15,-1
 333 846 l 1,16,-1
 417 927 l 1,17,-1
 540 927 l 1,18,-1
 427 769 l 1,19,-1
 240 769 l 1,20,-1
 127 927 l 1,14,-1
EndSplineSet
EndChar

StartChar: circumflex
Encoding: 710 710 204
Width: 483
GlyphClass: 2
Flags: W
LayerCount: 2
Fore
SplineSet
158 771 m 1,0,-1
 35 771 l 1,1,-1
 148 929 l 1,2,-1
 335 929 l 1,3,-1
 448 771 l 1,4,-1
 325 771 l 1,5,-1
 241 852 l 1,6,-1
 158 771 l 1,0,-1
EndSplineSet
EndChar

StartChar: caron
Encoding: 711 711 205
Width: 613
GlyphClass: 2
Flags: W
LayerCount: 2
Fore
SplineSet
100 918 m 1,0,-1
 223 918 l 1,1,-1
 306 837 l 1,2,-1
 390 918 l 1,3,-1
 513 918 l 1,4,-1
 400 760 l 1,5,-1
 213 760 l 1,6,-1
 100 918 l 1,0,-1
EndSplineSet
EndChar

StartChar: breve
Encoding: 728 728 206
Width: 568
GlyphClass: 2
Flags: W
LayerCount: 2
Fore
SplineSet
284 666 m 128,-1,1
 329 666 329 666 347 726 c 1,2,-1
 468 726 l 1,3,4
 461 644 461 644 411 598 c 128,-1,5
 361 552 361 552 284 552 c 128,-1,6
 207 552 207 552 157 598 c 128,-1,7
 107 644 107 644 100 726 c 1,8,-1
 221 726 l 1,9,0
 239 666 239 666 284 666 c 128,-1,1
EndSplineSet
EndChar

StartChar: dotaccent
Encoding: 729 729 207
Width: 312
GlyphClass: 2
Flags: W
LayerCount: 2
Fore
SplineSet
55 682 m 128,-1,1
 55 724 55 724 84.5 753.5 c 128,-1,2
 114 783 114 783 156 783 c 128,-1,3
 198 783 198 783 227.5 753.5 c 128,-1,4
 257 724 257 724 257 682 c 128,-1,5
 257 640 257 640 227.5 610.5 c 128,-1,6
 198 581 198 581 156 581 c 128,-1,7
 114 581 114 581 84.5 610.5 c 128,-1,0
 55 640 55 640 55 682 c 128,-1,1
EndSplineSet
EndChar

StartChar: ring
Encoding: 730 730 208
Width: 414
GlyphClass: 2
Flags: W
LayerCount: 2
Fore
SplineSet
100 703 m 128,-1,1
 100 747 100 747 131.5 778.5 c 128,-1,2
 163 810 163 810 207 810 c 128,-1,3
 251 810 251 810 282.5 778.5 c 128,-1,4
 314 747 314 747 314 703 c 128,-1,5
 314 659 314 659 282.5 627.5 c 128,-1,6
 251 596 251 596 207 596 c 128,-1,7
 163 596 163 596 131.5 627.5 c 128,-1,0
 100 659 100 659 100 703 c 128,-1,1
172 703 m 128,-1,9
 172 689 172 689 182.5 678.5 c 128,-1,10
 193 668 193 668 207 668 c 128,-1,11
 221 668 221 668 231.5 678.5 c 128,-1,12
 242 689 242 689 242 703 c 128,-1,13
 242 717 242 717 231.5 727.5 c 128,-1,14
 221 738 221 738 207 738 c 128,-1,15
 193 738 193 738 182.5 727.5 c 128,-1,8
 172 717 172 717 172 703 c 128,-1,9
EndSplineSet
EndChar

StartChar: ogonek
Encoding: 731 731 209
Width: 215
GlyphClass: 2
Flags: W
LayerCount: 2
Fore
SplineSet
125 -129 m 0,0,1
 147 -129 147 -129 166 -100 c 1,2,-1
 217 -133 l 1,3,4
 188 -180 188 -180 163.5 -196 c 128,-1,5
 139 -212 139 -212 102.5 -212 c 128,-1,6
 66 -212 66 -212 42 -187 c 128,-1,7
 18 -162 18 -162 18 -131 c 128,-1,8
 18 -100 18 -100 31 -71 c 128,-1,9
 44 -42 44 -42 58 -25 c 2,10,-1
 71 -8 l 1,11,-1
 144 -8 l 1,12,13
 98 -68 98 -68 98 -104 c 0,14,15
 98 -129 98 -129 125 -129 c 0,0,1
EndSplineSet
EndChar

StartChar: tilde
Encoding: 732 732 210
Width: 585
GlyphClass: 2
Flags: W
LayerCount: 2
Fore
SplineSet
243 663 m 0,0,1
 212 663 212 663 213 611 c 1,2,-1
 107 611 l 1,3,4
 107 686 107 686 139.5 729 c 128,-1,5
 172 772 172 772 223 772 c 0,6,7
 255 772 255 772 300.5 744.5 c 128,-1,8
 346 717 346 717 356 717 c 0,9,10
 387 717 387 717 386 769 c 1,11,-1
 492 769 l 1,12,13
 492 694 492 694 459.5 651 c 128,-1,14
 427 608 427 608 376 608 c 0,15,16
 345 608 345 608 298 635.5 c 128,-1,17
 251 663 251 663 243 663 c 0,0,1
EndSplineSet
EndChar

StartChar: hungarumlaut
Encoding: 733 733 211
Width: 506
GlyphClass: 2
Flags: W
LayerCount: 2
Fore
SplineSet
149 611 m 1,0,-1
 16 611 l 1,1,-1
 143 788 l 1,2,-1
 288 723 l 1,3,-1
 149 611 l 1,0,-1
371 611 m 1,4,-1
 228 611 l 1,5,-1
 365 788 l 1,6,-1
 510 723 l 1,7,-1
 371 611 l 1,4,-1
EndSplineSet
EndChar

StartChar: endash
Encoding: 8211 8211 212
Width: 543
GlyphClass: 2
Flags: W
LayerCount: 2
Fore
SplineSet
74 216 m 1,0,-1
 74 312 l 1,1,-1
 469 312 l 1,2,-1
 469 216 l 1,3,-1
 295 216 l 1,4,-1
 295 43 l 1,5,-1
 543 43 l 1,6,-1
 543 0 l 1,7,-1
 0 0 l 1,8,-1
 0 43 l 1,9,-1
 248 43 l 1,10,-1
 248 216 l 1,11,-1
 74 216 l 1,0,-1
EndSplineSet
EndChar

StartChar: emdash
Encoding: 8212 8212 213
Width: 697
GlyphClass: 2
Flags: W
LayerCount: 2
Fore
SplineSet
64 216 m 1,0,-1
 64 312 l 1,1,-1
 633 312 l 1,2,-1
 633 216 l 1,3,-1
 374 216 l 1,4,-1
 374 43 l 1,5,-1
 697 43 l 1,6,-1
 697 0 l 1,7,-1
 0 0 l 1,8,-1
 0 43 l 1,9,-1
 327 43 l 1,10,-1
 327 216 l 1,11,-1
 64 216 l 1,0,-1
EndSplineSet
EndChar

StartChar: quoteleft
Encoding: 8216 8216 214
Width: 282
GlyphClass: 2
Flags: W
LayerCount: 2
Fore
SplineSet
282 43 m 1,0,-1
 282 0 l 1,1,-1
 0 0 l 1,2,-1
 0 43 l 1,3,-1
 99 43 l 1,4,-1
 99 504 l 1,5,-1
 57 504 l 1,6,-1
 117 699 l 1,7,-1
 239 699 l 1,8,-1
 179 504 l 1,9,-1
 146 504 l 1,10,-1
 146 43 l 1,11,-1
 282 43 l 1,0,-1
EndSplineSet
EndChar

StartChar: quoteright
Encoding: 8217 8217 215
Width: 282
GlyphClass: 2
Flags: W
LayerCount: 2
Fore
SplineSet
282 43 m 1,0,-1
 282 0 l 1,1,-1
 0 0 l 1,2,-1
 0 43 l 1,3,-1
 99 43 l 1,4,-1
 99 504 l 1,5,-1
 57 504 l 1,6,-1
 117 699 l 1,7,-1
 239 699 l 1,8,-1
 179 504 l 1,9,-1
 146 504 l 1,10,-1
 146 43 l 1,11,-1
 282 43 l 1,0,-1
EndSplineSet
EndChar

StartChar: quotesinglbase
Encoding: 8218 8218 216
Width: 279
GlyphClass: 2
Flags: W
LayerCount: 2
Fore
SplineSet
279 43 m 1,0,-1
 279 0 l 1,1,-1
 177 0 l 1,2,-1
 153 -77 l 1,3,-1
 32 -77 l 1,4,-1
 55 0 l 1,5,-1
 -13 0 l 1,6,-1
 -13 43 l 1,7,-1
 68 43 l 1,8,-1
 91 117 l 1,9,-1
 213 117 l 1,10,-1
 190 43 l 1,11,-1
 279 43 l 1,0,-1
EndSplineSet
EndChar

StartChar: quotedblleft
Encoding: 8220 8220 217
Width: 444
GlyphClass: 2
Flags: W
LayerCount: 2
Fore
SplineSet
444 43 m 1,0,-1
 444 0 l 1,1,-1
 0 0 l 1,2,-1
 0 43 l 1,3,-1
 179 43 l 1,4,-1
 179 504 l 1,5,-1
 57 504 l 1,6,-1
 117 699 l 1,7,-1
 239 699 l 1,8,-1
 183 519 l 1,9,-1
 223 519 l 1,10,-1
 279 699 l 1,11,-1
 401 699 l 1,12,-1
 341 504 l 1,13,-1
 226 504 l 1,14,-1
 226 43 l 1,15,-1
 444 43 l 1,0,-1
EndSplineSet
EndChar

StartChar: quotedblright
Encoding: 8221 8221 218
Width: 444
GlyphClass: 2
Flags: W
LayerCount: 2
Fore
SplineSet
444 43 m 1,0,-1
 444 0 l 1,1,-1
 0 0 l 1,2,-1
 0 43 l 1,3,-1
 179 43 l 1,4,-1
 179 504 l 1,5,-1
 57 504 l 1,6,-1
 117 699 l 1,7,-1
 239 699 l 1,8,-1
 183 519 l 1,9,-1
 223 519 l 1,10,-1
 279 699 l 1,11,-1
 401 699 l 1,12,-1
 341 504 l 1,13,-1
 226 504 l 1,14,-1
 226 43 l 1,15,-1
 444 43 l 1,0,-1
EndSplineSet
EndChar

StartChar: quotedblbase
Encoding: 8222 8222 219
Width: 472
GlyphClass: 2
Flags: W
LayerCount: 2
Fore
SplineSet
472 43 m 1,0,-1
 472 0 l 1,1,-1
 370 0 l 1,2,-1
 346 -77 l 1,3,-1
 225 -77 l 1,4,-1
 248 0 l 1,5,-1
 177 0 l 1,6,-1
 153 -77 l 1,7,-1
 32 -77 l 1,8,-1
 55 0 l 1,9,-1
 -13 0 l 1,10,-1
 -13 43 l 1,11,-1
 68 43 l 1,12,-1
 91 117 l 1,13,-1
 213 117 l 1,14,-1
 190 43 l 1,15,-1
 261 43 l 1,16,-1
 284 117 l 1,17,-1
 406 117 l 1,18,-1
 383 43 l 1,19,-1
 472 43 l 1,0,-1
EndSplineSet
EndChar

StartChar: dagger
Encoding: 8224 8224 220
Width: 538
GlyphClass: 2
Flags: W
LayerCount: 2
Fore
SplineSet
0 0 m 1,0,-1
 0 43 l 1,1,-1
 193 43 l 1,2,-1
 193 373 l 1,3,-1
 35 373 l 1,4,-1
 35 503 l 1,5,-1
 193 503 l 1,6,-1
 193 699 l 1,7,-1
 338 699 l 1,8,-1
 338 503 l 1,9,-1
 503 503 l 1,10,-1
 503 373 l 1,11,-1
 338 373 l 1,12,-1
 338 43 l 1,13,-1
 538 43 l 1,14,-1
 538 0 l 1,15,-1
 0 0 l 1,0,-1
EndSplineSet
EndChar

StartChar: daggerdbl
Encoding: 8225 8225 221
Width: 534
GlyphClass: 2
Flags: W
LayerCount: 2
Fore
SplineSet
0 0 m 1,0,-1
 0 43 l 1,1,-1
 193 43 l 1,2,-1
 193 179 l 1,3,-1
 91 179 l 1,4,-1
 91 290 l 1,5,-1
 193 290 l 1,6,-1
 193 373 l 1,7,-1
 38 373 l 1,8,-1
 38 503 l 1,9,-1
 193 503 l 1,10,-1
 193 699 l 1,11,-1
 339 699 l 1,12,-1
 339 503 l 1,13,-1
 497 503 l 1,14,-1
 497 373 l 1,15,-1
 339 373 l 1,16,-1
 339 290 l 1,17,-1
 438 290 l 1,18,-1
 438 179 l 1,19,-1
 339 179 l 1,20,-1
 339 43 l 1,21,-1
 534 43 l 1,22,-1
 534 0 l 1,23,-1
 0 0 l 1,0,-1
EndSplineSet
EndChar

StartChar: bullet
Encoding: 8226 8226 222
Width: 438
GlyphClass: 2
Flags: W
LayerCount: 2
Fore
SplineSet
0 0 m 1,0,-1
 0 43 l 1,1,-1
 195 43 l 1,2,-1
 195 180 l 1,3,4
 145 189 145 189 112.5 227.5 c 128,-1,5
 80 266 80 266 80 320.5 c 128,-1,6
 80 375 80 375 120.5 415.5 c 128,-1,7
 161 456 161 456 219 456 c 128,-1,8
 277 456 277 456 317.5 415.5 c 128,-1,9
 358 375 358 375 358 320.5 c 128,-1,10
 358 266 358 266 325 227 c 128,-1,11
 292 188 292 188 242 180 c 1,12,-1
 242 43 l 1,13,-1
 438 43 l 1,14,-1
 438 0 l 1,15,-1
 0 0 l 1,0,-1
EndSplineSet
EndChar

StartChar: ellipsis
Encoding: 8230 8230 223
Width: 719
GlyphClass: 2
Flags: W
LayerCount: 2
Fore
SplineSet
291 43 m 1,0,1
 271 66 271 66 271 101.5 c 128,-1,2
 271 137 271 137 296.5 162.5 c 128,-1,3
 322 188 322 188 359 188 c 128,-1,4
 396 188 396 188 421.5 162.5 c 128,-1,5
 447 137 447 137 447 102 c 128,-1,6
 447 67 447 67 426 43 c 1,7,-1
 507 43 l 1,8,9
 487 66 487 66 487 101.5 c 128,-1,10
 487 137 487 137 512.5 162.5 c 128,-1,11
 538 188 538 188 575 188 c 128,-1,12
 612 188 612 188 637.5 162.5 c 128,-1,13
 663 137 663 137 663 102 c 128,-1,14
 663 67 663 67 642 43 c 1,15,-1
 720 43 l 1,16,-1
 720 0 l 1,17,-1
 0 0 l 1,18,-1
 0 43 l 1,19,-1
 76 43 l 1,20,21
 56 66 56 66 56 101.5 c 128,-1,22
 56 137 56 137 81.5 162.5 c 128,-1,23
 107 188 107 188 144 188 c 128,-1,24
 181 188 181 188 206.5 162.5 c 128,-1,25
 232 137 232 137 232 102 c 128,-1,26
 232 67 232 67 211 43 c 1,27,-1
 291 43 l 1,0,1
EndSplineSet
EndChar

StartChar: perthousand
Encoding: 8240 8240 224
Width: 1117
GlyphClass: 2
Flags: W
LayerCount: 2
Fore
SplineSet
1137 43 m 1,0,-1
 1137 0 l 1,1,-1
 0 0 l 1,2,-1
 0 43 l 1,3,-1
 83 43 l 1,4,-1
 554 698 l 1,5,-1
 725 698 l 1,6,-1
 254 43 l 1,7,-1
 463 43 l 1,8,9
 430 81 430 81 430 136 c 128,-1,10
 430 191 430 191 472 232 c 128,-1,11
 514 273 514 273 577.5 273 c 128,-1,12
 641 273 641 273 683 232 c 128,-1,13
 725 191 725 191 725 136 c 128,-1,14
 725 81 725 81 693 43 c 1,15,-1
 820 43 l 1,16,17
 788 80 788 80 788 135.5 c 128,-1,18
 788 191 788 191 830 232 c 128,-1,19
 872 273 872 273 935.5 273 c 128,-1,20
 999 273 999 273 1041 232 c 128,-1,21
 1083 191 1083 191 1083 136 c 128,-1,22
 1083 81 1083 81 1051 43 c 1,23,-1
 1137 43 l 1,0,-1
309 441.5 m 128,-1,25
 267 401 267 401 203.5 401 c 128,-1,26
 140 401 140 401 98 442 c 128,-1,27
 56 483 56 483 56 541.5 c 128,-1,28
 56 600 56 600 98 641 c 128,-1,29
 140 682 140 682 203.5 682 c 128,-1,30
 267 682 267 682 309 641 c 128,-1,31
 351 600 351 600 351 541 c 128,-1,24
 351 482 351 482 309 441.5 c 128,-1,25
540.5 88 m 128,-1,33
 555 71 555 71 577.5 71 c 128,-1,34
 600 71 600 71 614.5 88 c 128,-1,35
 629 105 629 105 629 132.5 c 128,-1,36
 629 160 629 160 614.5 177.5 c 128,-1,37
 600 195 600 195 577.5 195 c 128,-1,38
 555 195 555 195 540.5 177.5 c 128,-1,39
 526 160 526 160 526 132.5 c 128,-1,32
 526 105 526 105 540.5 88 c 128,-1,33
898.5 88 m 128,-1,41
 913 71 913 71 935.5 71 c 128,-1,42
 958 71 958 71 972.5 88 c 128,-1,43
 987 105 987 105 987 132.5 c 128,-1,44
 987 160 987 160 972.5 177.5 c 128,-1,45
 958 195 958 195 935.5 195 c 128,-1,46
 913 195 913 195 898.5 177.5 c 128,-1,47
 884 160 884 160 884 132.5 c 128,-1,40
 884 105 884 105 898.5 88 c 128,-1,41
171.5 502.5 m 128,-1,49
 184 488 184 488 203.5 488 c 128,-1,50
 223 488 223 488 235.5 502.5 c 128,-1,51
 248 517 248 517 248 541 c 128,-1,52
 248 565 248 565 235.5 580 c 128,-1,53
 223 595 223 595 203.5 595 c 128,-1,54
 184 595 184 595 171.5 580 c 128,-1,55
 159 565 159 565 159 541 c 128,-1,48
 159 517 159 517 171.5 502.5 c 128,-1,49
EndSplineSet
EndChar

StartChar: guilsinglleft
Encoding: 8249 8249 225
Width: 379
GlyphClass: 2
Flags: W
LayerCount: 2
Fore
SplineSet
0 0 m 1,0,-1
 0 43 l 1,1,-1
 166 43 l 1,2,-1
 48 219 l 1,3,-1
 170 407 l 1,4,-1
 321 407 l 1,5,-1
 203 219 l 1,6,-1
 317 43 l 1,7,-1
 379 43 l 1,8,-1
 379 0 l 1,9,-1
 0 0 l 1,0,-1
EndSplineSet
EndChar

StartChar: guilsinglright
Encoding: 8250 8250 226
Width: 379
GlyphClass: 2
Flags: W
LayerCount: 2
Fore
SplineSet
-40 0 m 1,0,-1
 -40 43 l 1,1,-1
 58 43 l 1,2,-1
 176 228 l 1,3,-1
 58 412 l 1,4,-1
 209 412 l 1,5,-1
 331 228 l 1,6,-1
 209 43 l 1,7,-1
 379 43 l 1,8,-1
 379 0 l 1,9,-1
 -40 0 l 1,0,-1
EndSplineSet
EndChar

StartChar: minus
Encoding: 8722 8722 227
Width: 582
GlyphClass: 2
Flags: W
LayerCount: 2
Fore
SplineSet
582 43 m 1,0,-1
 582 0 l 1,1,-1
 0 0 l 1,2,-1
 0 43 l 1,3,-1
 268 43 l 1,4,-1
 268 288 l 1,5,-1
 48 288 l 1,6,-1
 48 411 l 1,7,-1
 534 411 l 1,8,-1
 534 288 l 1,9,-1
 315 288 l 1,10,-1
 315 43 l 1,11,-1
 582 43 l 1,0,-1
EndSplineSet
EndChar

StartChar: lessequal
Encoding: 8804 8804 228
Width: 621
GlyphClass: 2
Flags: W
LayerCount: 2
Fore
SplineSet
383 43 m 1,0,-1
 621 43 l 1,1,-1
 621 0 l 1,2,-1
 549 0 l 1,3,-1
 549 -78 l 1,4,-1
 62 -78 l 1,5,-1
 62 0 l 1,6,-1
 0 0 l 1,7,-1
 0 43 l 1,8,-1
 336 43 l 1,9,-1
 336 197 l 1,10,-1
 62 326 l 1,11,-1
 62 463 l 1,12,-1
 548 692 l 1,13,-1
 548 545 l 1,14,-1
 227 397 l 1,15,-1
 548 245 l 1,16,-1
 548 97 l 1,17,-1
 383 175 l 1,18,-1
 383 43 l 1,0,-1
EndSplineSet
EndChar

StartChar: greaterequal
Encoding: 8805 8805 229
Width: 621
GlyphClass: 2
Flags: W
LayerCount: 2
Fore
SplineSet
621 43 m 1,0,-1
 621 0 l 1,1,-1
 559 0 l 1,2,-1
 559 -78 l 1,3,-1
 72 -78 l 1,4,-1
 72 0 l 1,5,-1
 0 0 l 1,6,-1
 0 43 l 1,7,-1
 238 43 l 1,8,-1
 238 174 l 1,9,-1
 73 97 l 1,10,-1
 73 245 l 1,11,-1
 394 397 l 1,12,-1
 73 545 l 1,13,-1
 73 692 l 1,14,-1
 559 463 l 1,15,-1
 559 326 l 1,16,-1
 285 196 l 1,17,-1
 285 43 l 1,18,-1
 621 43 l 1,0,-1
EndSplineSet
EndChar
